AwamiNastaliqRegular.ufo
<glyph name="exclam" format="1">
  <advance width="593"/>
  <unicode hex="0021"/>
  <outline>
    <contour>
      <point x="396" y="1077" type="curve"/>
      <point x="396" y="1173"/>
      <point x="342" y="1208"/>
      <point x="298" y="1208" type="curve" smooth="yes"/>
      <point x="242" y="1208"/>
      <point x="197" y="1163"/>
      <point x="197" y="1085" type="curve" smooth="yes"/>
      <point x="197" y="1072"/>
      <point x="199" y="1060"/>
      <point x="204" y="1019" type="curve" smooth="yes"/>
      <point x="279" y="312" type="line"/>
      <point x="314" y="312" type="line"/>
      <point x="392" y="1019" type="line" smooth="yes"/>
      <point x="396" y="1042"/>
      <point x="396" y="1063"/>
    </contour>
    <contour>
      <point x="392" y="74" type="curve"/>
      <point x="392" y="132"/>
      <point x="342" y="168"/>
      <point x="297" y="168" type="curve" smooth="yes"/>
      <point x="252" y="168"/>
      <point x="199" y="136"/>
      <point x="199" y="74" type="curve" smooth="yes"/>
      <point x="199" y="3"/>
      <point x="257" y="-26"/>
      <point x="297" y="-26" type="curve" smooth="yes"/>
      <point x="348" y="-26"/>
      <point x="392" y="19"/>
    </contour>
  </outline>
</glyph>
<glyph name="quotedbl" format="1">
  <advance width="726"/>
  <unicode hex="0022"/>
  <outline>
    <contour>
      <point x="611" y="1114" type="curve"/>
      <point x="611" y="1165"/>
      <point x="578" y="1208"/>
      <point x="523" y="1208" type="curve" smooth="yes"/>
      <point x="466" y="1208"/>
      <point x="434" y="1176"/>
      <point x="434" y="1102" type="curve" smooth="yes"/>
      <point x="434" y="1075"/>
      <point x="440" y="1027"/>
      <point x="455" y="954" type="curve" smooth="yes"/>
      <point x="501" y="700" type="line"/>
      <point x="544" y="700" type="line"/>
      <point x="592" y="954" type="line" smooth="yes"/>
      <point x="607" y="1039"/>
      <point x="611" y="1091"/>
    </contour>
    <contour>
      <point x="291" y="1113" type="curve"/>
      <point x="291" y="1169"/>
      <point x="254" y="1208"/>
      <point x="203" y="1208" type="curve" smooth="yes"/>
      <point x="152" y="1208"/>
      <point x="117" y="1181"/>
      <point x="117" y="1102" type="curve" smooth="yes"/>
      <point x="117" y="1075"/>
      <point x="122" y="1027"/>
      <point x="136" y="957" type="curve" smooth="yes"/>
      <point x="184" y="700" type="line"/>
      <point x="219" y="700" type="line"/>
      <point x="267" y="955" type="line" smooth="yes"/>
      <point x="283" y="1037"/>
      <point x="291" y="1091"/>
    </contour>
  </outline>
</glyph>
<glyph name="numbersign" format="1">
  <advance width="1026"/>
  <unicode hex="0023"/>
  <outline>
    <contour>
      <point x="989" y="427" type="line"/>
      <point x="989" y="511" type="line"/>
      <point x="734" y="511" type="line"/>
      <point x="805" y="854" type="line"/>
      <point x="989" y="854" type="line"/>
      <point x="989" y="934" type="line"/>
      <point x="819" y="934" type="line"/>
      <point x="912" y="1389" type="line"/>
      <point x="830" y="1389" type="line"/>
      <point x="734" y="934" type="line"/>
      <point x="397" y="934" type="line"/>
      <point x="485" y="1389" type="line"/>
      <point x="404" y="1389" type="line"/>
      <point x="314" y="934" type="line"/>
      <point x="36" y="934" type="line"/>
      <point x="36" y="854" type="line"/>
      <point x="294" y="854" type="line"/>
      <point x="222" y="511" type="line"/>
      <point x="36" y="511" type="line"/>
      <point x="36" y="427" type="line"/>
      <point x="207" y="427" type="line"/>
      <point x="115" y="-30" type="line"/>
      <point x="199" y="-30" type="line"/>
      <point x="294" y="427" type="line"/>
      <point x="632" y="427" type="line"/>
      <point x="543" y="-30" type="line"/>
      <point x="623" y="-30" type="line"/>
      <point x="715" y="427" type="line"/>
    </contour>
    <contour>
      <point x="720" y="854" type="line"/>
      <point x="650" y="511" type="line"/>
      <point x="307" y="511" type="line"/>
      <point x="378" y="854" type="line"/>
    </contour>
  </outline>
</glyph>
<glyph name="dollar" format="1">
  <advance width="892"/>
  <unicode hex="0024"/>
  <outline>
    <contour>
      <point x="802" y="293" type="curve"/>
      <point x="802" y="452"/>
      <point x="715" y="516"/>
      <point x="458" y="700" type="curve"/>
      <point x="458" y="1142" type="line"/>
      <point x="633" y="1125"/>
      <point x="699" y="1026"/>
      <point x="712" y="862" type="curve"/>
      <point x="746" y="862" type="line"/>
      <point x="746" y="1123" type="line"/>
      <point x="652" y="1159"/>
      <point x="593" y="1180"/>
      <point x="578" y="1185" type="curve"/>
      <point x="545" y="1191"/>
      <point x="504" y="1199"/>
      <point x="458" y="1201" type="curve"/>
      <point x="458" y="1281" type="line"/>
      <point x="403" y="1281" type="line"/>
      <point x="403" y="1201" type="line"/>
      <point x="284" y="1193"/>
      <point x="95" y="1116"/>
      <point x="95" y="918" type="curve" smooth="yes"/>
      <point x="95" y="746"/>
      <point x="208" y="667"/>
      <point x="403" y="540" type="curve"/>
      <point x="403" y="33" type="line"/>
      <point x="234" y="48"/>
      <point x="144" y="127"/>
      <point x="132" y="291" type="curve"/>
      <point x="95" y="291" type="line"/>
      <point x="95" y="44" type="line"/>
      <point x="177" y="9"/>
      <point x="301" y="-21"/>
      <point x="403" y="-26" type="curve"/>
      <point x="403" y="-136" type="line"/>
      <point x="458" y="-136" type="line"/>
      <point x="458" y="-26" type="line"/>
      <point x="636" y="-15"/>
      <point x="802" y="104"/>
    </contour>
    <contour>
      <point x="403" y="738" type="line"/>
      <point x="340" y="777"/>
      <point x="230" y="851"/>
      <point x="230" y="972" type="curve" smooth="yes"/>
      <point x="230" y="1106"/>
      <point x="346" y="1134"/>
      <point x="403" y="1142" type="curve"/>
    </contour>
    <contour>
      <point x="664" y="251" type="curve"/>
      <point x="664" y="93"/>
      <point x="522" y="37"/>
      <point x="458" y="33" type="curve"/>
      <point x="458" y="502" type="line"/>
      <point x="590" y="410"/>
      <point x="664" y="353"/>
    </contour>
  </outline>
</glyph>
<glyph name="percent" format="1">
  <advance width="1542"/>
  <unicode hex="0025"/>
  <outline>
    <contour>
      <point x="1408" y="442" type="curve"/>
      <point x="1408" y="537"/>
      <point x="1339" y="639"/>
      <point x="1217" y="639" type="curve" smooth="yes"/>
      <point x="1014" y="639"/>
      <point x="830" y="413"/>
      <point x="830" y="219" type="curve" smooth="yes"/>
      <point x="830" y="85"/>
      <point x="874" y="-26"/>
      <point x="1057" y="-26" type="curve" smooth="yes"/>
      <point x="1211" y="-26"/>
      <point x="1408" y="162"/>
    </contour>
    <contour>
      <point x="1161" y="1211" type="line"/>
      <point x="1075" y="1211" type="line"/>
      <point x="1016" y="1134"/>
      <point x="916" y="1088"/>
      <point x="808" y="1087" type="curve" smooth="yes"/>
      <point x="646" y="1085"/>
      <point x="667" y="1185"/>
      <point x="522" y="1185" type="curve" smooth="yes"/>
      <point x="319" y="1185"/>
      <point x="136" y="952"/>
      <point x="136" y="761" type="curve" smooth="yes"/>
      <point x="136" y="606"/>
      <point x="208" y="516"/>
      <point x="348" y="516" type="curve" smooth="yes"/>
      <point x="505" y="516"/>
      <point x="713" y="724"/>
      <point x="713" y="966" type="curve" smooth="yes"/>
      <point x="713" y="996"/>
      <point x="700" y="1034"/>
      <point x="700" y="1061" type="curve"/>
      <point x="770" y="1034"/>
      <point x="902" y="1049"/>
      <point x="1010" y="1094" type="curve"/>
      <point x="386" y="-26" type="line"/>
      <point x="472" y="-26" type="line"/>
    </contour>
    <contour>
      <point x="1362" y="432" type="curve"/>
      <point x="1362" y="288"/>
      <point x="1245" y="30"/>
      <point x="1077" y="30" type="curve" smooth="yes"/>
      <point x="996" y="30"/>
      <point x="966" y="85"/>
      <point x="966" y="152" type="curve" smooth="yes"/>
      <point x="966" y="312"/>
      <point x="1087" y="581"/>
      <point x="1238" y="581" type="curve" smooth="yes"/>
      <point x="1319" y="581"/>
      <point x="1362" y="502"/>
    </contour>
    <contour>
      <point x="667" y="991" type="curve"/>
      <point x="667" y="816"/>
      <point x="542" y="578"/>
      <point x="383" y="578" type="curve" smooth="yes"/>
      <point x="297" y="578"/>
      <point x="271" y="633"/>
      <point x="271" y="710" type="curve" smooth="yes"/>
      <point x="271" y="955"/>
      <point x="463" y="1134"/>
      <point x="528" y="1134" type="curve" smooth="yes"/>
      <point x="559" y="1134"/>
      <point x="585" y="1093"/>
      <point x="652" y="1074" type="curve"/>
      <point x="657" y="1046"/>
      <point x="667" y="1021"/>
    </contour>
  </outline>
</glyph>
<glyph name="ampersand" format="1">
  <advance width="1388"/>
  <unicode hex="0026"/>
  <outline>
    <contour>
      <point x="1332" y="212" type="curve"/>
      <point x="1300" y="235" type="line"/>
      <point x="1289" y="191"/>
      <point x="1252" y="106"/>
      <point x="1141" y="106" type="curve" smooth="yes"/>
      <point x="1019" y="106"/>
      <point x="931" y="211"/>
      <point x="880" y="270" type="curve"/>
      <point x="943" y="350"/>
      <point x="1003" y="435"/>
      <point x="1053" y="528" type="curve" smooth="yes"/>
      <point x="1155" y="715"/>
      <point x="1178" y="715"/>
      <point x="1276" y="726" type="curve"/>
      <point x="1276" y="760" type="line"/>
      <point x="908" y="760" type="line"/>
      <point x="908" y="726" type="line"/>
      <point x="924" y="726"/>
      <point x="991" y="712"/>
      <point x="991" y="630" type="curve" smooth="yes"/>
      <point x="991" y="545"/>
      <point x="940" y="442"/>
      <point x="838" y="321" type="curve"/>
      <point x="756" y="431"/>
      <point x="679" y="550"/>
      <point x="607" y="680" type="curve"/>
      <point x="713" y="738"/>
      <point x="893" y="826"/>
      <point x="893" y="994" type="curve" smooth="yes"/>
      <point x="893" y="1104"/>
      <point x="812" y="1208"/>
      <point x="658" y="1208" type="curve" smooth="yes"/>
      <point x="516" y="1208"/>
      <point x="355" y="1120"/>
      <point x="355" y="920" type="curve" smooth="yes"/>
      <point x="355" y="813"/>
      <point x="399" y="720"/>
      <point x="427" y="659" type="curve"/>
      <point x="284" y="585"/>
      <point x="65" y="450"/>
      <point x="65" y="234" type="curve" smooth="yes"/>
      <point x="65" y="106"/>
      <point x="170" y="-28"/>
      <point x="378" y="-28" type="curve" smooth="yes"/>
      <point x="569" y="-28"/>
      <point x="686" y="80"/>
      <point x="758" y="143" type="curve"/>
      <point x="821" y="74"/>
      <point x="926" y="-28"/>
      <point x="1063" y="-28" type="curve" smooth="yes"/>
      <point x="1245" y="-28"/>
      <point x="1314" y="125"/>
    </contour>
    <contour>
      <point x="792" y="998" type="curve"/>
      <point x="792" y="849"/>
      <point x="650" y="772"/>
      <point x="578" y="739" type="curve"/>
      <point x="546" y="806"/>
      <point x="504" y="907"/>
      <point x="504" y="988" type="curve" smooth="yes"/>
      <point x="504" y="1022"/>
      <point x="532" y="1146"/>
      <point x="658" y="1146" type="curve" smooth="yes"/>
      <point x="728" y="1146"/>
      <point x="792" y="1087"/>
    </contour>
    <contour>
      <point x="712" y="191" type="curve"/>
      <point x="653" y="144"/>
      <point x="574" y="78"/>
      <point x="466" y="78" type="curve" smooth="yes"/>
      <point x="323" y="78"/>
      <point x="247" y="197"/>
      <point x="247" y="312" type="curve" smooth="yes"/>
      <point x="247" y="478"/>
      <point x="386" y="563"/>
      <point x="455" y="600" type="curve"/>
      <point x="492" y="530"/>
      <point x="523" y="472"/>
      <point x="552" y="422" type="curve" smooth="yes"/>
      <point x="581" y="371"/>
      <point x="634" y="298"/>
    </contour>
  </outline>
</glyph>
<glyph name="quotesingle" format="1">
  <advance width="323"/>
  <unicode hex="0027"/>
  <outline>
    <contour>
      <point x="249" y="1114" type="curve"/>
      <point x="249" y="1155"/>
      <point x="221" y="1208"/>
      <point x="156" y="1208" type="curve" smooth="yes"/>
      <point x="101" y="1208"/>
      <point x="74" y="1174"/>
      <point x="74" y="1102" type="curve" smooth="yes"/>
      <point x="74" y="1077"/>
      <point x="78" y="1029"/>
      <point x="93" y="957" type="curve" smooth="yes"/>
      <point x="139" y="700" type="line"/>
      <point x="178" y="700" type="line"/>
      <point x="224" y="955" type="line" smooth="yes"/>
      <point x="240" y="1041"/>
      <point x="249" y="1094"/>
    </contour>
  </outline>
</glyph>
<glyph name="parenleft" format="1">
  <advance width="682"/>
  <unicode hex="0028"/>
  <outline>
    <contour>
      <point x="634" y="-440" type="curve"/>
      <point x="634" y="-402" type="line"/>
      <point x="321" y="-209"/>
      <point x="276" y="193"/>
      <point x="276" y="519" type="curve" smooth="yes"/>
      <point x="276" y="963"/>
      <point x="412" y="1264"/>
      <point x="634" y="1382" type="curve"/>
      <point x="634" y="1423" type="line"/>
      <point x="307" y="1269"/>
      <point x="85" y="901"/>
      <point x="85" y="493" type="curve" smooth="yes"/>
      <point x="85" y="89"/>
      <point x="301" y="-284"/>
    </contour>
  </outline>
</glyph>
<glyph name="parenright" format="1">
  <advance width="682"/>
  <unicode hex="0029"/>
  <outline>
    <contour>
      <point x="600" y="489" type="curve"/>
      <point x="600" y="894"/>
      <point x="398" y="1248"/>
      <point x="45" y="1424" type="curve"/>
      <point x="45" y="1385" type="line"/>
      <point x="396" y="1158"/>
      <point x="408" y="724"/>
      <point x="408" y="463" type="curve" smooth="yes"/>
      <point x="408" y="17"/>
      <point x="274" y="-281"/>
      <point x="45" y="-402" type="curve"/>
      <point x="45" y="-440" type="line"/>
      <point x="369" y="-297"/>
      <point x="600" y="80"/>
    </contour>
  </outline>
</glyph>
<glyph name="asterisk" format="1">
  <advance width="892"/>
  <unicode hex="002A"/>
  <outline>
    <contour>
      <point x="766" y="1022" type="curve"/>
      <point x="766" y="1058"/>
      <point x="732" y="1085"/>
      <point x="699" y="1085" type="curve" smooth="yes"/>
      <point x="626" y="1085"/>
      <point x="535" y="955"/>
      <point x="465" y="907" type="curve"/>
      <point x="478" y="985"/>
      <point x="518" y="1074"/>
      <point x="518" y="1148" type="curve" smooth="yes"/>
      <point x="518" y="1188"/>
      <point x="496" y="1238"/>
      <point x="452" y="1238" type="curve" smooth="yes"/>
      <point x="399" y="1238"/>
      <point x="376" y="1191"/>
      <point x="376" y="1146" type="curve" smooth="yes"/>
      <point x="376" y="1093"/>
      <point x="422" y="979"/>
      <point x="431" y="907" type="curve"/>
      <point x="370" y="955"/>
      <point x="267" y="1087"/>
      <point x="191" y="1087" type="curve" smooth="yes"/>
      <point x="154" y="1087"/>
      <point x="127" y="1061"/>
      <point x="127" y="1024" type="curve" smooth="yes"/>
      <point x="127" y="920"/>
      <point x="340" y="916"/>
      <point x="412" y="877" type="curve"/>
      <point x="338" y="853"/>
      <point x="127" y="823"/>
      <point x="127" y="726" type="curve" smooth="yes"/>
      <point x="127" y="691"/>
      <point x="164" y="666"/>
      <point x="197" y="666" type="curve" smooth="yes"/>
      <point x="265" y="666"/>
      <point x="367" y="800"/>
      <point x="432" y="847" type="curve"/>
      <point x="415" y="772"/>
      <point x="376" y="680"/>
      <point x="376" y="606" type="curve" smooth="yes"/>
      <point x="376" y="566"/>
      <point x="398" y="516"/>
      <point x="442" y="516" type="curve" smooth="yes"/>
      <point x="494" y="516"/>
      <point x="518" y="563"/>
      <point x="518" y="609" type="curve" smooth="yes"/>
      <point x="518" y="687"/>
      <point x="465" y="761"/>
      <point x="465" y="846" type="curve"/>
      <point x="526" y="799"/>
      <point x="624" y="667"/>
      <point x="700" y="667" type="curve" smooth="yes"/>
      <point x="736" y="667"/>
      <point x="765" y="693"/>
      <point x="765" y="730" type="curve" smooth="yes"/>
      <point x="765" y="825"/>
      <point x="563" y="844"/>
      <point x="485" y="877" type="curve"/>
      <point x="558" y="905"/>
      <point x="766" y="923"/>
    </contour>
  </outline>
</glyph>
<glyph name="plus" format="1">
  <advance width="1972"/>
  <unicode hex="002B"/>
  <outline>
    <contour>
      <point x="1577" y="530" type="line"/>
      <point x="1577" y="653" type="line"/>
      <point x="1046" y="653" type="line"/>
      <point x="1046" y="1183" type="line"/>
      <point x="926" y="1183" type="line"/>
      <point x="926" y="653" type="line"/>
      <point x="396" y="653" type="line"/>
      <point x="396" y="530" type="line"/>
      <point x="926" y="530" type="line"/>
      <point x="926" y="0" type="line"/>
      <point x="1046" y="0" type="line"/>
      <point x="1046" y="530" type="line"/>
    </contour>
  </outline>
</glyph>
<glyph name="comma" format="1">
  <advance width="445"/>
  <unicode hex="002C"/>
  <outline>
    <contour>
      <point x="355" y="-9" type="curve"/>
      <point x="355" y="111"/>
      <point x="277" y="173"/>
      <point x="210" y="173" type="curve" smooth="yes"/>
      <point x="149" y="173"/>
      <point x="97" y="134"/>
      <point x="97" y="72" type="curve" smooth="yes"/>
      <point x="97" y="3"/>
      <point x="141" y="-26"/>
      <point x="189" y="-26" type="curve" smooth="yes"/>
      <point x="216" y="-26"/>
      <point x="237" y="0"/>
      <point x="264" y="0" type="curve" smooth="yes"/>
      <point x="279" y="0"/>
      <point x="283" y="-21"/>
      <point x="283" y="-34" type="curve" smooth="yes"/>
      <point x="283" y="-149"/>
      <point x="184" y="-234"/>
      <point x="97" y="-258" type="curve"/>
      <point x="97" y="-298" type="line"/>
      <point x="234" y="-251"/>
      <point x="355" y="-157"/>
    </contour>
  </outline>
</glyph>
<glyph name="hyphenminus" format="1">
  <advance width="593"/>
  <unicode hex="002D"/>
  <outline>
    <contour>
      <point x="522" y="332" type="line"/>
      <point x="522" y="465" type="line"/>
      <point x="72" y="465" type="line"/>
      <point x="72" y="332" type="line"/>
    </contour>
    <contour>
      <point x="298" y="870" type="move" name="U"/>
    </contour>
  </outline>
</glyph>
<glyph name="period" format="1">
  <advance width="445"/>
  <unicode hex="002E"/>
  <outline>
    <contour>
      <point x="319" y="74" type="curve"/>
      <point x="319" y="130"/>
      <point x="275" y="170"/>
      <point x="223" y="170" type="curve" smooth="yes"/>
      <point x="168" y="170"/>
      <point x="127" y="129"/>
      <point x="127" y="74" type="curve" smooth="yes"/>
      <point x="127" y="21"/>
      <point x="164" y="-26"/>
      <point x="223" y="-26" type="curve" smooth="yes"/>
      <point x="279" y="-26"/>
      <point x="319" y="21"/>
    </contour>
  </outline>
</glyph>
<glyph name="slash" format="1">
  <advance width="496"/>
  <unicode hex="002F"/>
  <outline>
    <contour>
      <point x="508" y="1238" type="line"/>
      <point x="439" y="1238" type="line"/>
      <point x="10" y="-26" type="line"/>
      <point x="83" y="-26" type="line"/>
    </contour>
  </outline>
</glyph>
<glyph name="zero" format="1">
  <advance width="892"/>
  <unicode hex="0030"/>
  <outline>
    <contour>
      <point x="828" y="600" type="qcurve" name="hr00"/>
      <point x="828" y="521"/>
      <point x="806" y="367"/>
      <point x="761" y="229"/>
      <point x="696" y="112"/>
      <point x="610" y="27"/>
      <point x="504" y="-21"/>
      <point x="440" y="-21" type="qcurve"/>
      <point x="383" y="-21"/>
      <point x="282" y="26"/>
      <point x="198" y="109"/>
      <point x="132" y="224"/>
      <point x="87" y="358"/>
      <point x="64" y="506"/>
      <point x="64" y="583" type="qcurve"/>
      <point x="64" y="724"/>
      <point x="127" y="954"/>
      <point x="234" y="1117"/>
      <point x="374" y="1206"/>
      <point x="450" y="1206" type="qcurve"/>
      <point x="525" y="1206"/>
      <point x="661" y="1121"/>
      <point x="766" y="965"/>
      <point x="828" y="740"/>
    </contour>
    <contour>
      <point x="658" y="639" type="qcurve"/>
      <point x="658" y="757"/>
      <point x="631" y="946"/>
      <point x="578" y="1078"/>
      <point x="499" y="1148"/>
      <point x="448" y="1148" type="qcurve"/>
      <point x="424" y="1148"/>
      <point x="372" y="1128"/>
      <point x="325" y="1076"/>
      <point x="284" y="990"/>
      <point x="253" y="860"/>
      <point x="235" y="681"/>
      <point x="235" y="563" type="qcurve"/>
      <point x="235" y="432"/>
      <point x="264" y="233"/>
      <point x="319" y="100"/>
      <point x="397" y="34"/>
      <point x="444" y="34" type="qcurve"/>
      <point x="491" y="34"/>
      <point x="569" y="95"/>
      <point x="626" y="236"/>
      <point x="658" y="468"/>
    </contour>
    <contour>
      <point x="446" y="1248" type="move" name="U"/>
    </contour>
    <contour>
      <point x="446" y="-87" type="move" name="L"/>
    </contour>
  </outline>
</glyph>
<glyph name="one" format="1">
  <advance width="1025"/>
  <unicode hex="0031"/>
  <outline>
    <contour>
      <point x="264" y="0" type="line" name="hr00"/>
      <point x="264" y="38" type="line"/>
      <point x="328" y="38"/>
      <point x="399" y="53"/>
      <point x="433" y="97"/>
      <point x="440" y="177"/>
      <point x="440" y="241" type="qcurve"/>
      <point x="440" y="972" type="line"/>
      <point x="440" y="1017"/>
      <point x="440" y="1057" type="qcurve"/>
      <point x="440" y="1097"/>
      <point x="433" y="1161"/>
      <point x="412" y="1207"/>
      <point x="371" y="1226"/>
      <point x="304" y="1215"/>
      <point x="254" y="1192" type="qcurve"/>
      <point x="241" y="1224" type="line"/>
      <point x="570" y="1386" type="line"/>
      <point x="605" y="1386" type="line"/>
      <point x="605" y="241" type="line"/>
      <point x="605" y="176"/>
      <point x="610" y="96"/>
      <point x="642" y="53"/>
      <point x="711" y="38"/>
      <point x="775" y="38" type="qcurve"/>
      <point x="775" y="0" type="line"/>
    </contour>
    <contour>
      <point x="508" y="1435" type="move" name="U"/>
    </contour>
    <contour>
      <point x="508" y="-100" type="move" name="L"/>
    </contour>
  </outline>
</glyph>
<glyph name="two" format="1">
  <advance width="1026"/>
  <unicode hex="0032"/>
  <outline>
    <contour>
      <point x="844" y="0" type="line" name="hr00"/>
      <point x="45" y="0" type="line"/>
      <point x="45" y="38" type="line"/>
      <point x="280" y="253"/>
      <point x="446" y="424"/>
      <point x="543" y="565" type="curve"/>
      <point x="639" y="702"/>
      <point x="687" y="825"/>
      <point x="687" y="936" type="curve" smooth="yes"/>
      <point x="687" y="1167"/>
      <point x="503" y="1233"/>
      <point x="419" y="1233" type="curve" smooth="yes"/>
      <point x="226" y="1233"/>
      <point x="147" y="1079"/>
      <point x="120" y="1004" type="curve"/>
      <point x="85" y="1004" type="line"/>
      <point x="101" y="1123"/>
      <point x="171" y="1387"/>
      <point x="469" y="1387" type="curve" smooth="yes"/>
      <point x="662" y="1387"/>
      <point x="858" y="1250"/>
      <point x="858" y="1029" type="curve"/>
      <point x="856" y="817"/>
      <point x="683" y="602"/>
      <point x="568" y="480" type="curve"/>
      <point x="401" y="297"/>
      <point x="299" y="191"/>
      <point x="258" y="152" type="curve"/>
      <point x="613" y="152" type="line" smooth="yes"/>
      <point x="817" y="152"/>
      <point x="843" y="172"/>
      <point x="904" y="260" type="curve"/>
      <point x="941" y="260" type="line"/>
    </contour>
    <contour>
      <point x="493" y="1435" type="move" name="U"/>
    </contour>
    <contour>
      <point x="493" y="-100" type="move" name="L"/>
    </contour>
  </outline>
</glyph>
<glyph name="three" format="1">
  <advance width="892"/>
  <unicode hex="0033"/>
  <outline>
    <contour>
      <point x="745" y="391" type="qcurve"/>
      <point x="745" y="300"/>
      <point x="680" y="149"/>
      <point x="559" y="40"/>
      <point x="386" y="-21"/>
      <point x="278" y="-21" type="qcurve"/>
      <point x="229" y="-21"/>
      <point x="160" y="-10"/>
      <point x="115" y="6"/>
      <point x="89" y="27"/>
      <point x="77" y="49"/>
      <point x="74" y="68"/>
      <point x="74" y="74" type="qcurve"/>
      <point x="74" y="87"/>
      <point x="85" y="109"/>
      <point x="104" y="126"/>
      <point x="129" y="136"/>
      <point x="143" y="136" type="qcurve"/>
      <point x="175" y="136"/>
      <point x="228" y="110"/>
      <point x="284" y="81"/>
      <point x="350" y="56"/>
      <point x="394" y="56" type="qcurve"/>
      <point x="433" y="56"/>
      <point x="512" y="88"/>
      <point x="575" y="148"/>
      <point x="615" y="232"/>
      <point x="615" y="284" type="qcurve"/>
      <point x="615" y="344"/>
      <point x="586" y="432"/>
      <point x="538" y="496"/>
      <point x="476" y="539"/>
      <point x="444" y="552" type="qcurve"/>
      <point x="368" y="584"/>
      <point x="271" y="585" type="qcurve"/>
      <point x="271" y="612" type="line"/>
      <point x="283" y="613"/>
      <point x="331" y="625"/>
      <point x="391" y="650"/>
      <point x="454" y="690"/>
      <point x="506" y="750"/>
      <point x="540" y="833"/>
      <point x="540" y="887" type="qcurve"/>
      <point x="540" y="944"/>
      <point x="501" y="1020"/>
      <point x="443" y="1066"/>
      <point x="375" y="1085"/>
      <point x="346" y="1085" type="qcurve"/>
      <point x="211" y="1085"/>
      <point x="120" y="941" type="qcurve"/>
      <point x="91" y="955" type="line"/>
      <point x="100" y="974"/>
      <point x="124" y="1025"/>
      <point x="158" y="1081"/>
      <point x="207" y="1135"/>
      <point x="271" y="1179"/>
      <point x="356" y="1206"/>
      <point x="410" y="1206" type="qcurve"/>
      <point x="466" y="1206"/>
      <point x="552" y="1179"/>
      <point x="612" y="1135"/>
      <point x="652" y="1082"/>
      <point x="675" y="1028"/>
      <point x="684" y="981"/>
      <point x="684" y="966" type="qcurve"/>
      <point x="684" y="902"/>
      <point x="606" y="769"/>
      <point x="525" y="700" type="qcurve"/>
      <point x="553" y="690"/>
      <point x="629" y="646"/>
      <point x="697" y="573"/>
      <point x="745" y="465"/>
    </contour>
    <contour>
      <point x="410" y="1248" type="move" name="U"/>
    </contour>
    <contour>
      <point x="410" y="-87" type="move" name="L"/>
    </contour>
  </outline>
</glyph>
<glyph name="four" format="1">
  <advance width="892"/>
  <unicode hex="0034"/>
  <outline>
    <contour>
      <point x="673" y="312" type="line" name="hr00"/>
      <point x="673" y="0" type="line"/>
      <point x="528" y="0" type="line"/>
      <point x="528" y="312" type="line"/>
      <point x="28" y="312" type="line"/>
      <point x="28" y="422" type="line"/>
      <point x="576" y="1206" type="line"/>
      <point x="673" y="1206" type="line"/>
      <point x="673" y="435" type="line"/>
      <point x="828" y="435" type="line"/>
      <point x="828" y="312" type="line"/>
    </contour>
    <contour>
      <point x="528" y="1022" type="line"/>
      <point x="113" y="435" type="line"/>
      <point x="528" y="435" type="line"/>
    </contour>
    <contour>
      <point x="428" y="1248" type="move" name="U"/>
    </contour>
    <contour>
      <point x="428" y="-87" type="move" name="L"/>
    </contour>
  </outline>
</glyph>
<glyph name="five" format="1">
  <advance width="1026"/>
  <unicode hex="0035"/>
  <outline>
    <contour>
      <point x="812" y="1188" type="line"/>
      <point x="404" y="1188" type="line"/>
      <point x="314" y="1005" type="line"/>
      <point x="346" y="1003"/>
      <point x="453" y="977"/>
      <point x="576" y="927"/>
      <point x="701" y="848"/>
      <point x="804" y="735"/>
      <point x="867" y="585"/>
      <point x="867" y="489" type="qcurve"/>
      <point x="867" y="404"/>
      <point x="820" y="262"/>
      <point x="737" y="148"/>
      <point x="630" y="62"/>
      <point x="511" y="5"/>
      <point x="388" y="-24"/>
      <point x="331" y="-24" type="qcurve"/>
      <point x="274" y="-24"/>
      <point x="185" y="-2"/>
      <point x="126" y="34"/>
      <point x="98" y="82"/>
      <point x="98" y="109" type="qcurve"/>
      <point x="98" y="117"/>
      <point x="103" y="141"/>
      <point x="121" y="164"/>
      <point x="152" y="181"/>
      <point x="177" y="181" type="qcurve"/>
      <point x="213" y="181"/>
      <point x="267" y="149"/>
      <point x="324" y="112"/>
      <point x="394" y="79"/>
      <point x="444" y="79" type="qcurve"/>
      <point x="503" y="79"/>
      <point x="608" y="124"/>
      <point x="689" y="205"/>
      <point x="737" y="316"/>
      <point x="737" y="382" type="qcurve"/>
      <point x="737" y="413"/>
      <point x="723" y="489"/>
      <point x="689" y="570"/>
      <point x="631" y="652"/>
      <point x="588" y="689" type="qcurve"/>
      <point x="532" y="735"/>
      <point x="415" y="789"/>
      <point x="300" y="819"/>
      <point x="191" y="829"/>
      <point x="144" y="830" type="qcurve"/>
      <point x="404" y="1357" type="line"/>
      <point x="889" y="1357" type="line"/>
    </contour>
    <contour>
      <point x="494" y="1435" type="move" name="U"/>
    </contour>
    <contour>
      <point x="494" y="-100" type="move" name="L"/>
    </contour>
  </outline>
</glyph>
<glyph name="six" format="1">
  <advance width="1026"/>
  <unicode hex="0036"/>
  <outline>
    <contour>
      <point x="946" y="458" type="curve" smooth="yes" name="hr00"/>
      <point x="946" y="217"/>
      <point x="781" y="-24"/>
      <point x="515" y="-24" type="curve" smooth="yes"/>
      <point x="264" y="-24"/>
      <point x="89" y="232"/>
      <point x="89" y="532" type="curve" smooth="yes"/>
      <point x="89" y="830"/>
      <point x="234" y="1043"/>
      <point x="369" y="1172" type="curve"/>
      <point x="542" y="1332"/>
      <point x="724" y="1387"/>
      <point x="861" y="1387" type="curve" smooth="yes"/>
      <point x="919" y="1387" type="line"/>
      <point x="919" y="1349" type="line"/>
      <point x="760" y="1341"/>
      <point x="637" y="1275"/>
      <point x="536" y="1175" type="curve" smooth="yes"/>
      <point x="470" y="1109"/>
      <point x="365" y="974"/>
      <point x="314" y="757" type="curve"/>
      <point x="410" y="824"/>
      <point x="507" y="858"/>
      <point x="604" y="858" type="curve" smooth="yes"/>
      <point x="726" y="858"/>
      <point x="946" y="755"/>
    </contour>
    <contour>
      <point x="767" y="348" type="curve" smooth="yes"/>
      <point x="767" y="559"/>
      <point x="690" y="772"/>
      <point x="506" y="772" type="curve" smooth="yes"/>
      <point x="426" y="772"/>
      <point x="356" y="720"/>
      <point x="297" y="684" type="curve"/>
      <point x="286" y="596"/>
      <point x="278" y="523"/>
      <point x="278" y="467" type="curve" smooth="yes"/>
      <point x="278" y="282"/>
      <point x="375" y="28"/>
      <point x="544" y="32" type="curve"/>
      <point x="663" y="37"/>
      <point x="767" y="144"/>
    </contour>
    <contour>
      <point x="519" y="1435" type="move" name="U"/>
    </contour>
    <contour>
      <point x="519" y="-100" type="move" name="L"/>
    </contour>
  </outline>
</glyph>
<glyph name="seven" format="1">
  <advance width="1025"/>
  <unicode hex="0037"/>
  <outline>
    <contour>
      <point x="479" y="-30" type="line" name="hr00"/>
      <point x="369" y="-30" type="line"/>
      <point x="775" y="1192" type="line"/>
      <point x="402" y="1192" type="line"/>
      <point x="319" y="1192"/>
      <point x="217" y="1160"/>
      <point x="155" y="1112"/>
      <point x="120" y="1054"/>
      <point x="105" y="1027" type="qcurve"/>
      <point x="75" y="1037" type="line"/>
      <point x="207" y="1356" type="line"/>
      <point x="931" y="1356" type="line"/>
      <point x="931" y="1320" type="line"/>
    </contour>
    <contour>
      <point x="503" y="1435" type="move" name="U"/>
    </contour>
    <contour>
      <point x="503" y="-100" type="move" name="L"/>
    </contour>
  </outline>
</glyph>
<glyph name="eight" format="1">
  <advance width="1026"/>
  <unicode hex="0038"/>
  <outline>
    <contour>
      <point x="907" y="321" type="qcurve"/>
      <point x="907" y="291"/>
      <point x="892" y="216"/>
      <point x="858" y="139"/>
      <point x="798" y="67"/>
      <point x="711" y="10"/>
      <point x="591" y="-24"/>
      <point x="512" y="-24" type="qcurve"/>
      <point x="417" y="-24"/>
      <point x="271" y="37"/>
      <point x="172" y="133"/>
      <point x="122" y="252"/>
      <point x="122" y="310" type="qcurve"/>
      <point x="122" y="374"/>
      <point x="179" y="488"/>
      <point x="262" y="582"/>
      <point x="358" y="657"/>
      <point x="396" y="682" type="qcurve"/>
      <point x="355" y="716"/>
      <point x="266" y="793"/>
      <point x="190" y="884"/>
      <point x="140" y="995"/>
      <point x="140" y="1063" type="qcurve"/>
      <point x="140" y="1138"/>
      <point x="201" y="1258"/>
      <point x="304" y="1343"/>
      <point x="439" y="1387"/>
      <point x="512" y="1387" type="qcurve"/>
      <point x="586" y="1387"/>
      <point x="698" y="1354"/>
      <point x="780" y="1302"/>
      <point x="833" y="1236"/>
      <point x="865" y="1172"/>
      <point x="877" y="1112"/>
      <point x="877" y="1092" type="qcurve"/>
      <point x="877" y="1033"/>
      <point x="822" y="931"/>
      <point x="738" y="848"/>
      <point x="641" y="781"/>
      <point x="598" y="753" type="qcurve"/>
      <point x="643" y="720"/>
      <point x="750" y="632"/>
      <point x="843" y="526"/>
      <point x="907" y="397"/>
    </contour>
    <contour>
      <point x="734" y="1104" type="qcurve"/>
      <point x="734" y="1168"/>
      <point x="696" y="1255"/>
      <point x="635" y="1305"/>
      <point x="557" y="1327"/>
      <point x="515" y="1327" type="qcurve"/>
      <point x="469" y="1327"/>
      <point x="385" y="1301"/>
      <point x="323" y="1250"/>
      <point x="286" y="1178"/>
      <point x="286" y="1130" type="qcurve"/>
      <point x="286" y="1080"/>
      <point x="321" y="998"/>
      <point x="389" y="922"/>
      <point x="489" y="842"/>
      <point x="551" y="790" type="qcurve"/>
      <point x="589" y="827"/>
      <point x="657" y="889"/>
      <point x="705" y="960"/>
      <point x="734" y="1046"/>
    </contour>
    <contour>
      <point x="766" y="241" type="qcurve"/>
      <point x="766" y="284"/>
      <point x="735" y="363"/>
      <point x="683" y="436"/>
      <point x="616" y="504"/>
      <point x="544" y="565"/>
      <point x="474" y="621"/>
      <point x="443" y="647" type="qcurve"/>
      <point x="421" y="629"/>
      <point x="365" y="573"/>
      <point x="312" y="490"/>
      <point x="276" y="382"/>
      <point x="276" y="314" type="qcurve"/>
      <point x="276" y="246"/>
      <point x="315" y="141"/>
      <point x="382" y="69"/>
      <point x="474" y="32"/>
      <point x="527" y="32" type="qcurve"/>
      <point x="575" y="32"/>
      <point x="662" y="60"/>
      <point x="727" y="113"/>
      <point x="766" y="191"/>
    </contour>
    <contour>
      <point x="515" y="1435" type="move" name="U"/>
    </contour>
    <contour>
      <point x="515" y="-100" type="move" name="L"/>
    </contour>
  </outline>
</glyph>
<glyph name="nine" format="1">
  <advance width="1026"/>
  <unicode hex="0039"/>
  <outline>
    <contour>
      <point x="936" y="827" type="qcurve" name="hr00"/>
      <point x="936" y="491"/>
      <point x="707" y="239" type="qcurve"/>
      <point x="695" y="224"/>
      <point x="643" y="172"/>
      <point x="572" y="112"/>
      <point x="478" y="51"/>
      <point x="367" y="1"/>
      <point x="238" y="-30"/>
      <point x="166" y="-30" type="qcurve"/>
      <point x="109" y="-30" type="line"/>
      <point x="109" y="8" type="line"/>
      <point x="135" y="9"/>
      <point x="221" y="20"/>
      <point x="323" y="54"/>
      <point x="431" y="116"/>
      <point x="480" y="167" type="qcurve"/>
      <point x="554" y="250"/>
      <point x="677" y="458"/>
      <point x="712" y="598" type="qcurve"/>
      <point x="635" y="545"/>
      <point x="493" y="496"/>
      <point x="427" y="496" type="qcurve"/>
      <point x="343" y="496"/>
      <point x="215" y="565"/>
      <point x="128" y="677"/>
      <point x="83" y="822"/>
      <point x="83" y="899" type="qcurve"/>
      <point x="83" y="1006"/>
      <point x="152" y="1186"/>
      <point x="268" y="1314"/>
      <point x="421" y="1387"/>
      <point x="504" y="1387" type="qcurve"/>
      <point x="574" y="1387"/>
      <point x="691" y="1340"/>
      <point x="788" y="1258"/>
      <point x="861" y="1150"/>
      <point x="911" y="1026"/>
      <point x="936" y="891"/>
    </contour>
    <contour>
      <point x="747" y="877" type="qcurve"/>
      <point x="747" y="987"/>
      <point x="697" y="1155"/>
      <point x="620" y="1266"/>
      <point x="527" y="1322"/>
      <point x="481" y="1320" type="qcurve"/>
      <point x="436" y="1319"/>
      <point x="356" y="1278"/>
      <point x="296" y="1198"/>
      <point x="260" y="1081"/>
      <point x="260" y="1004" type="qcurve"/>
      <point x="260" y="911"/>
      <point x="297" y="757"/>
      <point x="361" y="646"/>
      <point x="452" y="585"/>
      <point x="508" y="585" type="qcurve"/>
      <point x="538" y="585"/>
      <point x="606" y="601"/>
      <point x="669" y="627"/>
      <point x="719" y="658"/>
      <point x="728" y="670" type="qcurve"/>
      <point x="736" y="735"/>
      <point x="747" y="839"/>
    </contour>
    <contour>
      <point x="511" y="1435" type="move" name="U"/>
    </contour>
    <contour>
      <point x="511" y="-100" type="move" name="L"/>
    </contour>
  </outline>
</glyph>
<glyph name="colon" format="1">
  <advance width="573"/>
  <unicode hex="003A"/>
  <outline>
    <contour>
      <point x="398" y="834" type="curve"/>
      <point x="398" y="897"/>
      <point x="346" y="944"/>
      <point x="289" y="944" type="curve" smooth="yes"/>
      <point x="227" y="944"/>
      <point x="175" y="897"/>
      <point x="175" y="834" type="curve" smooth="yes"/>
      <point x="175" y="774"/>
      <point x="227" y="724"/>
      <point x="289" y="724" type="curve" smooth="yes"/>
      <point x="342" y="724"/>
      <point x="398" y="767"/>
    </contour>
    <contour>
      <point x="398" y="85" type="curve"/>
      <point x="398" y="154"/>
      <point x="335" y="195"/>
      <point x="286" y="195" type="curve" smooth="yes"/>
      <point x="237" y="195"/>
      <point x="174" y="158"/>
      <point x="174" y="85" type="curve" smooth="yes"/>
      <point x="174" y="17"/>
      <point x="229" y="-30"/>
      <point x="286" y="-30" type="curve" smooth="yes"/>
      <point x="342" y="-30"/>
      <point x="398" y="15"/>
    </contour>
  </outline>
</glyph>
<glyph name="semicolon" format="1">
  <advance width="498"/>
  <unicode hex="003B"/>
  <outline>
    <contour>
      <point x="368" y="726" type="curve"/>
      <point x="368" y="782"/>
      <point x="324" y="823"/>
      <point x="273" y="823" type="curve" smooth="yes"/>
      <point x="219" y="823"/>
      <point x="175" y="782"/>
      <point x="175" y="726" type="curve" smooth="yes"/>
      <point x="175" y="674"/>
      <point x="219" y="632"/>
      <point x="273" y="632" type="curve" smooth="yes"/>
      <point x="319" y="632"/>
      <point x="368" y="669"/>
    </contour>
    <contour>
      <point x="408" y="-9" type="curve"/>
      <point x="408" y="111"/>
      <point x="329" y="173"/>
      <point x="262" y="173" type="curve" smooth="yes"/>
      <point x="203" y="173"/>
      <point x="149" y="134"/>
      <point x="149" y="72" type="curve" smooth="yes"/>
      <point x="149" y="3"/>
      <point x="193" y="-26"/>
      <point x="242" y="-26" type="curve" smooth="yes"/>
      <point x="270" y="-26"/>
      <point x="290" y="0"/>
      <point x="318" y="0" type="curve" smooth="yes"/>
      <point x="332" y="0"/>
      <point x="336" y="-21"/>
      <point x="336" y="-34" type="curve" smooth="yes"/>
      <point x="336" y="-149"/>
      <point x="237" y="-234"/>
      <point x="149" y="-258" type="curve"/>
      <point x="149" y="-298" type="line"/>
      <point x="286" y="-251"/>
      <point x="408" y="-157"/>
    </contour>
  </outline>
</glyph>
<glyph name="less" format="1">
  <advance width="1715"/>
  <unicode hex="003C"/>
  <outline>
    <contour>
      <point x="1371" y="67" type="line"/>
      <point x="1371" y="173" type="line"/>
      <point x="453" y="514" type="line"/>
      <point x="1371" y="856" type="line"/>
      <point x="1371" y="962" type="line"/>
      <point x="344" y="568" type="line"/>
      <point x="344" y="461" type="line"/>
    </contour>
  </outline>
</glyph>
<glyph name="equal" format="1">
  <advance width="1972"/>
  <unicode hex="003D"/>
  <outline>
    <contour>
      <point x="1577" y="710" type="line"/>
      <point x="1577" y="833" type="line"/>
      <point x="396" y="833" type="line"/>
      <point x="396" y="710" type="line"/>
    </contour>
    <contour>
      <point x="1577" y="351" type="line"/>
      <point x="1577" y="474" type="line"/>
      <point x="396" y="474" type="line"/>
      <point x="396" y="351" type="line"/>
    </contour>
  </outline>
</glyph>
<glyph name="greater" format="1">
  <advance width="1715"/>
  <unicode hex="003E"/>
  <outline>
    <contour>
      <point x="1371" y="461" type="line"/>
      <point x="1371" y="568" type="line"/>
      <point x="344" y="962" type="line"/>
      <point x="344" y="856" type="line"/>
      <point x="1261" y="514" type="line"/>
      <point x="344" y="173" type="line"/>
      <point x="344" y="67" type="line"/>
    </contour>
  </outline>
</glyph>
<glyph name="question" format="1">
  <advance width="792"/>
  <unicode hex="003F"/>
  <outline>
    <contour>
      <point x="720" y="933" type="curve"/>
      <point x="720" y="1104"/>
      <point x="583" y="1208"/>
      <point x="394" y="1208" type="curve" smooth="yes"/>
      <point x="191" y="1208"/>
      <point x="80" y="1087"/>
      <point x="80" y="957" type="curve" smooth="yes"/>
      <point x="80" y="844"/>
      <point x="152" y="820"/>
      <point x="177" y="820" type="curve" smooth="yes"/>
      <point x="208" y="820"/>
      <point x="247" y="846"/>
      <point x="247" y="895" type="curve" smooth="yes"/>
      <point x="247" y="934"/>
      <point x="191" y="996"/>
      <point x="191" y="1044" type="curve" smooth="yes"/>
      <point x="191" y="1096"/>
      <point x="245" y="1159"/>
      <point x="357" y="1159" type="curve" smooth="yes"/>
      <point x="448" y="1159"/>
      <point x="559" y="1094"/>
      <point x="559" y="920" type="curve" smooth="yes"/>
      <point x="559" y="828"/>
      <point x="512" y="720"/>
      <point x="477" y="659" type="curve" smooth="yes"/>
      <point x="399" y="532"/>
      <point x="365" y="417"/>
      <point x="358" y="278" type="curve"/>
      <point x="396" y="278" type="line"/>
      <point x="403" y="440"/>
      <point x="461" y="505"/>
      <point x="585" y="645" type="curve" smooth="yes"/>
      <point x="638" y="705"/>
      <point x="720" y="800"/>
    </contour>
    <contour>
      <point x="479" y="74" type="curve"/>
      <point x="479" y="132"/>
      <point x="432" y="171"/>
      <point x="385" y="171" type="curve" smooth="yes"/>
      <point x="332" y="171"/>
      <point x="284" y="130"/>
      <point x="284" y="74" type="curve" smooth="yes"/>
      <point x="284" y="11"/>
      <point x="334" y="-24"/>
      <point x="385" y="-24" type="curve" smooth="yes"/>
      <point x="429" y="-24"/>
      <point x="479" y="10"/>
    </contour>
  </outline>
</glyph>
<glyph name="at" format="1">
  <advance width="1643"/>
  <unicode hex="0040"/>
  <outline>
    <contour>
      <point x="1598" y="149" type="curve"/>
      <point x="1548" y="149" type="line"/>
      <point x="1480" y="-7"/>
      <point x="1289" y="-331"/>
      <point x="849" y="-331" type="curve" smooth="yes"/>
      <point x="386" y="-331"/>
      <point x="167" y="13"/>
      <point x="167" y="364" type="curve" smooth="yes"/>
      <point x="167" y="853"/>
      <point x="511" y="1193"/>
      <point x="913" y="1193" type="curve" smooth="yes"/>
      <point x="1222" y="1193"/>
      <point x="1476" y="993"/>
      <point x="1476" y="658" type="curve" smooth="yes"/>
      <point x="1476" y="300"/>
      <point x="1247" y="89"/>
      <point x="1109" y="89" type="curve" smooth="yes"/>
      <point x="1055" y="89"/>
      <point x="1042" y="137"/>
      <point x="1042" y="154" type="curve" smooth="yes"/>
      <point x="1042" y="208"/>
      <point x="1087" y="355"/>
      <point x="1125" y="487" type="curve" smooth="yes"/>
      <point x="1224" y="835" type="line"/>
      <point x="1088" y="814" type="line"/>
      <point x="1061" y="719" type="line"/>
      <point x="1053" y="760"/>
      <point x="1021" y="840"/>
      <point x="910" y="840" type="curve" smooth="yes"/>
      <point x="713" y="840"/>
      <point x="432" y="512"/>
      <point x="432" y="228" type="curve" smooth="yes"/>
      <point x="432" y="103"/>
      <point x="507" y="28"/>
      <point x="588" y="28" type="curve" smooth="yes"/>
      <point x="722" y="28"/>
      <point x="846" y="171"/>
      <point x="931" y="275" type="curve"/>
      <point x="907" y="134"/>
      <point x="899" y="28"/>
      <point x="1049" y="28" type="curve" smooth="yes"/>
      <point x="1319" y="28"/>
      <point x="1529" y="298"/>
      <point x="1529" y="641" type="curve" smooth="yes"/>
      <point x="1529" y="1031"/>
      <point x="1247" y="1238"/>
      <point x="907" y="1238" type="curve" smooth="yes"/>
      <point x="528" y="1238"/>
      <point x="84" y="948"/>
      <point x="84" y="388" type="curve" smooth="yes"/>
      <point x="84" y="24"/>
      <point x="338" y="-386"/>
      <point x="844" y="-386" type="curve" smooth="yes"/>
      <point x="1325" y="-386"/>
      <point x="1553" y="-13"/>
    </contour>
    <contour>
      <point x="980" y="448" type="curve"/>
      <point x="921" y="295"/>
      <point x="784" y="132"/>
      <point x="669" y="132" type="curve" smooth="yes"/>
      <point x="626" y="132"/>
      <point x="569" y="171"/>
      <point x="569" y="256" type="curve" smooth="yes"/>
      <point x="569" y="405"/>
      <point x="749" y="799"/>
      <point x="921" y="799" type="curve" smooth="yes"/>
      <point x="1031" y="799"/>
      <point x="1068" y="667"/>
    </contour>
  </outline>
</glyph>
<glyph name="A" format="1">
  <advance width="1473"/>
  <unicode hex="0041"/>
  <outline>
    <contour>
      <point x="922" y="0" type="line" name="hr00"/>
      <point x="922" y="38" type="line"/>
      <point x="1112" y="41"/>
      <point x="1064" y="151"/>
      <point x="1020" y="260" type="curve"/>
      <point x="938" y="455" type="line"/>
      <point x="412" y="455" type="line"/>
      <point x="320" y="239" type="line"/>
      <point x="269" y="116"/>
      <point x="255" y="54"/>
      <point x="444" y="38" type="curve"/>
      <point x="444" y="0" type="line"/>
      <point x="15" y="0" type="line"/>
      <point x="15" y="38" type="line"/>
      <point x="131" y="46"/>
      <point x="176" y="122"/>
      <point x="241" y="270" type="curve"/>
      <point x="718" y="1389" type="line"/>
      <point x="753" y="1389" type="line"/>
      <point x="1225" y="260" type="line"/>
      <point x="1306" y="69"/>
      <point x="1343" y="46"/>
      <point x="1457" y="38" type="curve"/>
      <point x="1457" y="-3" type="line"/>
    </contour>
    <contour>
      <point x="681" y="1079" type="line"/>
      <point x="444" y="528" type="line"/>
      <point x="911" y="528" type="line"/>
    </contour>
    <contour>
      <point x="735" y="1435" type="move" name="U"/>
    </contour>
    <contour>
      <point x="744" y="-112" type="move" name="L"/>
    </contour>
  </outline>
</glyph>
<glyph name="B" format="1">
  <advance width="1332"/>
  <unicode hex="0042"/>
  <outline>
    <contour>
      <point x="1254" y="371" type="qcurve"/>
      <point x="1254" y="335"/>
      <point x="1236" y="261"/>
      <point x="1202" y="189"/>
      <point x="1150" y="124"/>
      <point x="1117" y="98" type="qcurve"/>
      <point x="1085" y="73"/>
      <point x="1004" y="36"/>
      <point x="897" y="12"/>
      <point x="761" y="0"/>
      <point x="674" y="0" type="qcurve"/>
      <point x="36" y="0" type="line"/>
      <point x="36" y="38" type="line"/>
      <point x="85" y="38" type="line"/>
      <point x="169" y="38"/>
      <point x="207" y="92" type="qcurve"/>
      <point x="217" y="109"/>
      <point x="229" y="183"/>
      <point x="229" y="241" type="qcurve"/>
      <point x="229" y="1117" type="line"/>
      <point x="229" y="1243"/>
      <point x="201" y="1277" type="qcurve"/>
      <point x="181" y="1298"/>
      <point x="125" y="1320"/>
      <point x="85" y="1320" type="qcurve"/>
      <point x="36" y="1320" type="line"/>
      <point x="36" y="1356" type="line"/>
      <point x="621" y="1356" type="line"/>
      <point x="741" y="1356"/>
      <point x="918" y="1325"/>
      <point x="1045" y="1271"/>
      <point x="1127" y="1199"/>
      <point x="1174" y="1119"/>
      <point x="1192" y="1034"/>
      <point x="1192" y="993" type="qcurve"/>
      <point x="1192" y="944"/>
      <point x="1161" y="852"/>
      <point x="1100" y="774"/>
      <point x="1008" y="713"/>
      <point x="946" y="694" type="qcurve"/>
      <point x="1026" y="679"/>
      <point x="1142" y="617"/>
      <point x="1218" y="533"/>
      <point x="1254" y="429"/>
    </contour>
    <contour>
      <point x="982" y="1003" type="qcurve"/>
      <point x="982" y="1061"/>
      <point x="936" y="1165"/>
      <point x="841" y="1243"/>
      <point x="699" y="1289"/>
      <point x="603" y="1289" type="qcurve"/>
      <point x="552" y="1289"/>
      <point x="462" y="1280"/>
      <point x="422" y="1269" type="qcurve"/>
      <point x="422" y="747" type="line"/>
      <point x="461" y="738"/>
      <point x="553" y="733"/>
      <point x="613" y="733" type="qcurve"/>
      <point x="712" y="733"/>
      <point x="852" y="770"/>
      <point x="941" y="839"/>
      <point x="982" y="939"/>
    </contour>
    <contour>
      <point x="1023" y="355" type="qcurve" name="hr01"/>
      <point x="1023" y="423"/>
      <point x="968" y="536"/>
      <point x="861" y="618"/>
      <point x="703" y="664"/>
      <point x="600" y="664" type="qcurve"/>
      <point x="536" y="664"/>
      <point x="450" y="660"/>
      <point x="422" y="654" type="qcurve"/>
      <point x="422" y="98" type="line"/>
      <point x="481" y="85"/>
      <point x="595" y="71"/>
      <point x="653" y="71" type="qcurve"/>
      <point x="743" y="71"/>
      <point x="881" y="113"/>
      <point x="975" y="189"/>
      <point x="1023" y="293"/>
    </contour>
    <contour>
      <point x="645" y="1435" type="move" name="U"/>
    </contour>
    <contour>
      <point x="645" y="-100" type="move" name="L"/>
    </contour>
  </outline>
</glyph>
<glyph name="C" format="1">
  <advance width="1368"/>
  <unicode hex="0043"/>
  <outline>
    <contour>
      <point x="1295" y="318" type="line" name="hr00"/>
      <point x="1245" y="229"/>
      <point x="1129" y="98"/>
      <point x="991" y="11"/>
      <point x="829" y="-32"/>
      <point x="733" y="-32" type="qcurve"/>
      <point x="629" y="-32"/>
      <point x="451" y="19"/>
      <point x="304" y="110"/>
      <point x="191" y="238"/>
      <point x="113" y="391"/>
      <point x="73" y="566"/>
      <point x="73" y="658" type="qcurve"/>
      <point x="73" y="806"/>
      <point x="172" y="1071"/>
      <point x="353" y="1271"/>
      <point x="609" y="1388"/>
      <point x="765" y="1388" type="qcurve"/>
      <point x="842" y="1388"/>
      <point x="959" y="1358"/>
      <point x="1044" y="1323"/>
      <point x="1100" y="1293"/>
      <point x="1115" y="1293" type="qcurve"/>
      <point x="1142" y="1293"/>
      <point x="1187" y="1340"/>
      <point x="1198" y="1388" type="qcurve"/>
      <point x="1234" y="1388" type="line"/>
      <point x="1266" y="927" type="line"/>
      <point x="1234" y="927" type="line"/>
      <point x="1203" y="1031"/>
      <point x="1113" y="1179"/>
      <point x="998" y="1273"/>
      <point x="860" y="1317"/>
      <point x="781" y="1317" type="qcurve"/>
      <point x="676" y="1317"/>
      <point x="500" y="1238"/>
      <point x="373" y="1074"/>
      <point x="301" y="826"/>
      <point x="301" y="656" type="qcurve"/>
      <point x="301" y="511"/>
      <point x="374" y="287"/>
      <point x="508" y="135"/>
      <point x="695" y="57"/>
      <point x="810" y="57" type="qcurve"/>
      <point x="877" y="57"/>
      <point x="991" y="82"/>
      <point x="1099" y="145"/>
      <point x="1206" y="254"/>
      <point x="1266" y="339" type="qcurve"/>
    </contour>
    <contour>
      <point x="740" y="1435" type="move" name="U"/>
    </contour>
    <contour>
      <point x="740" y="-100" type="move" name="L"/>
    </contour>
    <contour>
      <point x="684" y="0" type="move" name="H"/>
    </contour>
  </outline>
</glyph>
<glyph name="D" format="1">
  <advance width="1481"/>
  <unicode hex="0044"/>
  <outline>
    <contour>
      <point x="1402" y="687" type="qcurve" name="hr00"/>
      <point x="1402" y="543"/>
      <point x="1312" y="293"/>
      <point x="1126" y="107"/>
      <point x="839" y="0"/>
      <point x="643" y="0" type="qcurve"/>
      <point x="36" y="0" type="line"/>
      <point x="36" y="38" type="line"/>
      <point x="87" y="38" type="line"/>
      <point x="130" y="38"/>
      <point x="191" y="64"/>
      <point x="207" y="92" type="qcurve"/>
      <point x="217" y="109"/>
      <point x="229" y="183"/>
      <point x="229" y="241" type="qcurve"/>
      <point x="229" y="1118" type="line"/>
      <point x="229" y="1243"/>
      <point x="204" y="1278" type="qcurve"/>
      <point x="182" y="1298"/>
      <point x="125" y="1320"/>
      <point x="87" y="1320" type="qcurve"/>
      <point x="36" y="1320" type="line"/>
      <point x="36" y="1357" type="line"/>
      <point x="588" y="1357" type="line"/>
      <point x="700" y="1357"/>
      <point x="881" y="1339"/>
      <point x="1027" y="1299"/>
      <point x="1144" y="1239"/>
      <point x="1193" y="1197" type="qcurve"/>
      <point x="1240" y="1155"/>
      <point x="1317" y="1044"/>
      <point x="1372" y="914"/>
      <point x="1402" y="766"/>
    </contour>
    <contour>
      <point x="1175" y="676" type="qcurve"/>
      <point x="1175" y="818"/>
      <point x="1094" y="1042"/>
      <point x="949" y="1197"/>
      <point x="747" y="1281"/>
      <point x="627" y="1281" type="qcurve"/>
      <point x="582" y="1281"/>
      <point x="481" y="1268"/>
      <point x="422" y="1251" type="qcurve"/>
      <point x="422" y="98" type="line"/>
      <point x="485" y="85"/>
      <point x="591" y="69"/>
      <point x="635" y="69" type="qcurve"/>
      <point x="750" y="68"/>
      <point x="948" y="151"/>
      <point x="1092" y="308"/>
      <point x="1175" y="535"/>
    </contour>
    <contour>
      <point x="719" y="1435" type="move" name="U"/>
    </contour>
    <contour>
      <point x="719" y="-100" type="move" name="L"/>
    </contour>
  </outline>
</glyph>
<glyph name="E" format="1">
  <advance width="1088"/>
  <unicode hex="0045"/>
  <outline>
    <contour>
      <point x="947" y="0" type="line" name="hr00"/>
      <point x="37" y="0" type="line"/>
      <point x="37" y="33" type="line"/>
      <point x="78" y="33" type="line"/>
      <point x="86" y="33"/>
      <point x="110" y="36"/>
      <point x="137" y="42"/>
      <point x="163" y="52"/>
      <point x="171" y="60" type="qcurve"/>
      <point x="180" y="68"/>
      <point x="193" y="87"/>
      <point x="202" y="120"/>
      <point x="206" y="171"/>
      <point x="206" y="210" type="qcurve"/>
      <point x="206" y="975" type="line"/>
      <point x="206" y="1033"/>
      <point x="194" y="1101"/>
      <point x="184" y="1113" type="qcurve"/>
      <point x="152" y="1148"/>
      <point x="78" y="1148" type="qcurve"/>
      <point x="37" y="1148" type="line"/>
      <point x="37" y="1180" type="line"/>
      <point x="947" y="1180" type="line"/>
      <point x="960" y="923" type="line"/>
      <point x="926" y="923" type="line"/>
      <point x="920" y="948"/>
      <point x="910" y="996"/>
      <point x="893" y="1040"/>
      <point x="867" y="1075"/>
      <point x="821" y="1101"/>
      <point x="751" y="1116"/>
      <point x="699" y="1116" type="qcurve"/>
      <point x="371" y="1116" type="line"/>
      <point x="371" y="650" type="line"/>
      <point x="632" y="650" type="line"/>
      <point x="692" y="650"/>
      <point x="760" y="669"/>
      <point x="797" y="711"/>
      <point x="812" y="775"/>
      <point x="818" y="820" type="qcurve"/>
      <point x="851" y="820" type="line"/>
      <point x="851" y="410" type="line"/>
      <point x="818" y="410" type="line"/>
      <point x="812" y="456"/>
      <point x="796" y="522"/>
      <point x="760" y="565"/>
      <point x="692" y="585"/>
      <point x="632" y="585" type="qcurve"/>
      <point x="371" y="585" type="line"/>
      <point x="371" y="195" type="line"/>
      <point x="371" y="167"/>
      <point x="371" y="143" type="qcurve"/>
      <point x="371" y="119"/>
      <point x="388" y="84"/>
      <point x="430" y="64"/>
      <point x="472" y="64" type="qcurve"/>
      <point x="671" y="64" type="line"/>
      <point x="719" y="64"/>
      <point x="792" y="71"/>
      <point x="850" y="90"/>
      <point x="896" y="124"/>
      <point x="940" y="176"/>
      <point x="986" y="248"/>
      <point x="1014" y="297" type="qcurve"/>
      <point x="1049" y="297" type="line"/>
    </contour>
    <contour>
      <point x="543" y="1248" type="move" name="U"/>
    </contour>
    <contour>
      <point x="543" y="-87" type="move" name="L"/>
    </contour>
  </outline>
</glyph>
<glyph name="F" format="1">
  <advance width="1139"/>
  <unicode hex="0046"/>
  <outline>
    <contour>
      <point x="1021" y="1061" type="line" name="hr00"/>
      <point x="1003" y="1123"/>
      <point x="960" y="1208"/>
      <point x="893" y="1260"/>
      <point x="794" y="1283"/>
      <point x="720" y="1283" type="qcurve"/>
      <point x="420" y="1283" type="line"/>
      <point x="420" y="751" type="line"/>
      <point x="666" y="751" type="line"/>
      <point x="710" y="751"/>
      <point x="771" y="769"/>
      <point x="812" y="811"/>
      <point x="837" y="882"/>
      <point x="844" y="934" type="qcurve"/>
      <point x="881" y="934" type="line"/>
      <point x="881" y="475" type="line"/>
      <point x="844" y="475" type="line"/>
      <point x="844" y="523"/>
      <point x="827" y="595"/>
      <point x="786" y="642"/>
      <point x="717" y="666"/>
      <point x="666" y="666" type="qcurve"/>
      <point x="420" y="666" type="line"/>
      <point x="420" y="241" type="line"/>
      <point x="420" y="175"/>
      <point x="427" y="104"/>
      <point x="442" y="89" type="qcurve"/>
      <point x="462" y="63"/>
      <point x="531" y="38"/>
      <point x="566" y="38" type="qcurve"/>
      <point x="615" y="38" type="line"/>
      <point x="615" y="0" type="line"/>
      <point x="34" y="0" type="line"/>
      <point x="34" y="38" type="line"/>
      <point x="83" y="38" type="line"/>
      <point x="163" y="38"/>
      <point x="203" y="87" type="qcurve"/>
      <point x="227" y="119"/>
      <point x="227" y="241" type="qcurve"/>
      <point x="227" y="1117" type="line"/>
      <point x="227" y="1154"/>
      <point x="224" y="1207"/>
      <point x="217" y="1244"/>
      <point x="206" y="1268"/>
      <point x="199" y="1275" type="qcurve"/>
      <point x="178" y="1296"/>
      <point x="115" y="1320"/>
      <point x="83" y="1320" type="qcurve"/>
      <point x="34" y="1320" type="line"/>
      <point x="34" y="1356" type="line"/>
      <point x="1042" y="1356" type="line"/>
      <point x="1057" y="1061" type="line"/>
    </contour>
    <contour>
      <point x="545" y="1435" type="move" name="U"/>
    </contour>
    <contour>
      <point x="545" y="-100" type="move" name="L"/>
    </contour>
  </outline>
</glyph>
<glyph name="G" format="1">
  <advance width="1480"/>
  <unicode hex="0047"/>
  <outline>
    <contour>
      <point x="1427" y="704" type="line" name="hr00"/>
      <point x="1386" y="704"/>
      <point x="1334" y="677"/>
      <point x="1320" y="651" type="qcurve"/>
      <point x="1309" y="633"/>
      <point x="1299" y="559"/>
      <point x="1299" y="504" type="qcurve"/>
      <point x="1299" y="90" type="line"/>
      <point x="1186" y="25"/>
      <point x="950" y="-32"/>
      <point x="822" y="-32" type="qcurve"/>
      <point x="645" y="-32"/>
      <point x="367" y="75"/>
      <point x="173" y="261"/>
      <point x="71" y="513"/>
      <point x="71" y="658" type="qcurve"/>
      <point x="71" y="741"/>
      <point x="112" y="914"/>
      <point x="194" y="1076"/>
      <point x="315" y="1219"/>
      <point x="475" y="1326"/>
      <point x="673" y="1388"/>
      <point x="790" y="1388" type="qcurve"/>
      <point x="875" y="1388"/>
      <point x="1002" y="1361"/>
      <point x="1094" y="1328"/>
      <point x="1154" y="1301"/>
      <point x="1173" y="1301" type="qcurve"/>
      <point x="1179" y="1301"/>
      <point x="1194" y="1308"/>
      <point x="1208" y="1328"/>
      <point x="1219" y="1361"/>
      <point x="1222" y="1388" type="qcurve"/>
      <point x="1260" y="1388" type="line"/>
      <point x="1293" y="960" type="line"/>
      <point x="1260" y="960" type="line"/>
      <point x="1227" y="1057"/>
      <point x="1136" y="1193"/>
      <point x="1021" y="1279"/>
      <point x="886" y="1318"/>
      <point x="810" y="1318" type="qcurve"/>
      <point x="687" y="1318"/>
      <point x="497" y="1224"/>
      <point x="368" y="1058"/>
      <point x="302" y="833"/>
      <point x="301" y="702" type="qcurve"/>
      <point x="300" y="605"/>
      <point x="336" y="431"/>
      <point x="402" y="284"/>
      <point x="497" y="165"/>
      <point x="613" y="82"/>
      <point x="749" y="38"/>
      <point x="824" y="38" type="qcurve"/>
      <point x="896" y="38"/>
      <point x="1037" y="72"/>
      <point x="1104" y="113" type="qcurve"/>
      <point x="1104" y="504" type="line"/>
      <point x="1104" y="568"/>
      <point x="1090" y="645"/>
      <point x="1051" y="687"/>
      <point x="982" y="702"/>
      <point x="927" y="704" type="qcurve"/>
      <point x="927" y="739" type="line"/>
      <point x="1450" y="739" type="line"/>
      <point x="1450" y="704" type="line"/>
    </contour>
    <contour>
      <point x="760" y="1435" type="move" name="U"/>
    </contour>
    <contour>
      <point x="760" y="-100" type="move" name="L"/>
    </contour>
  </outline>
</glyph>
<glyph name="H" format="1">
  <advance width="1480"/>
  <unicode hex="0048"/>
  <outline>
    <contour>
      <point x="857" y="0" type="line" name="hr00"/>
      <point x="857" y="38" type="line"/>
      <point x="907" y="38" type="line"/>
      <point x="990" y="38"/>
      <point x="1027" y="87" type="qcurve"/>
      <point x="1038" y="102"/>
      <point x="1053" y="178"/>
      <point x="1053" y="241" type="qcurve"/>
      <point x="1053" y="654" type="line"/>
      <point x="420" y="654" type="line"/>
      <point x="420" y="241" type="line"/>
      <point x="420" y="172"/>
      <point x="432" y="102"/>
      <point x="446" y="85" type="qcurve"/>
      <point x="463" y="64"/>
      <point x="533" y="38"/>
      <point x="568" y="38" type="qcurve"/>
      <point x="617" y="38" type="line"/>
      <point x="617" y="0" type="line"/>
      <point x="36" y="0" type="line"/>
      <point x="36" y="38" type="line"/>
      <point x="85" y="38" type="line"/>
      <point x="165" y="38"/>
      <point x="205" y="87" type="qcurve"/>
      <point x="229" y="119"/>
      <point x="229" y="241" type="qcurve"/>
      <point x="229" y="1117" type="line"/>
      <point x="229" y="1153"/>
      <point x="226" y="1204"/>
      <point x="220" y="1240"/>
      <point x="209" y="1265"/>
      <point x="201" y="1275" type="qcurve"/>
      <point x="194" y="1284"/>
      <point x="167" y="1300"/>
      <point x="134" y="1313"/>
      <point x="100" y="1320"/>
      <point x="85" y="1320" type="qcurve"/>
      <point x="36" y="1320" type="line"/>
      <point x="36" y="1356" type="line"/>
      <point x="617" y="1356" type="line"/>
      <point x="617" y="1320" type="line"/>
      <point x="568" y="1320" type="line"/>
      <point x="534" y="1320"/>
      <point x="472" y="1301"/>
      <point x="451" y="1277" type="qcurve"/>
      <point x="444" y="1269"/>
      <point x="432" y="1246"/>
      <point x="424" y="1209"/>
      <point x="420" y="1156"/>
      <point x="420" y="1117" type="qcurve"/>
      <point x="420" y="728" type="line"/>
      <point x="1053" y="728" type="line"/>
      <point x="1053" y="1117" type="line"/>
      <point x="1053" y="1191"/>
      <point x="1037" y="1263"/>
      <point x="1023" y="1277" type="qcurve"/>
      <point x="1003" y="1297"/>
      <point x="941" y="1320"/>
      <point x="907" y="1320" type="qcurve"/>
      <point x="857" y="1320" type="line"/>
      <point x="857" y="1356" type="line"/>
      <point x="1439" y="1356" type="line"/>
      <point x="1439" y="1320" type="line"/>
      <point x="1390" y="1320" type="line"/>
      <point x="1360" y="1320"/>
      <point x="1294" y="1298"/>
      <point x="1273" y="1277" type="qcurve"/>
      <point x="1262" y="1265"/>
      <point x="1250" y="1242"/>
      <point x="1244" y="1208"/>
      <point x="1243" y="1157"/>
      <point x="1243" y="1117" type="qcurve"/>
      <point x="1243" y="241" type="line"/>
      <point x="1243" y="208"/>
      <point x="1244" y="160"/>
      <point x="1249" y="124"/>
      <point x="1259" y="98"/>
      <point x="1267" y="87" type="qcurve"/>
      <point x="1285" y="61"/>
      <point x="1355" y="38"/>
      <point x="1390" y="38" type="qcurve"/>
      <point x="1439" y="38" type="line"/>
      <point x="1439" y="0" type="line"/>
    </contour>
    <contour>
      <point x="737" y="1435" type="move" name="U"/>
    </contour>
    <contour>
      <point x="737" y="-100" type="move" name="L"/>
    </contour>
  </outline>
</glyph>
<glyph name="I" format="1">
  <advance width="682"/>
  <unicode hex="0049"/>
  <outline>
    <contour>
      <point x="51" y="0" type="line" name="hr00"/>
      <point x="51" y="38" type="line"/>
      <point x="100" y="38" type="line" smooth="yes"/>
      <point x="157" y="38"/>
      <point x="193" y="52"/>
      <point x="220" y="87" type="curve" smooth="yes"/>
      <point x="236" y="106"/>
      <point x="244" y="157"/>
      <point x="244" y="241" type="curve" smooth="yes"/>
      <point x="244" y="1118" type="line" smooth="yes"/>
      <point x="244" y="1211"/>
      <point x="243" y="1243"/>
      <point x="222" y="1270" type="curve" smooth="yes"/>
      <point x="198" y="1302"/>
      <point x="147" y="1320"/>
      <point x="100" y="1320" type="curve" smooth="yes"/>
      <point x="51" y="1320" type="line"/>
      <point x="51" y="1357" type="line"/>
      <point x="632" y="1357" type="line"/>
      <point x="632" y="1320" type="line"/>
      <point x="583" y="1320" type="line" smooth="yes"/>
      <point x="530" y="1320"/>
      <point x="490" y="1304"/>
      <point x="463" y="1272" type="curve"/>
      <point x="448" y="1249"/>
      <point x="438" y="1199"/>
      <point x="438" y="1118" type="curve" smooth="yes"/>
      <point x="438" y="241" type="line" smooth="yes"/>
      <point x="438" y="153"/>
      <point x="446" y="109"/>
      <point x="461" y="85" type="curve" smooth="yes"/>
      <point x="474" y="64"/>
      <point x="537" y="38"/>
      <point x="583" y="38" type="curve" smooth="yes"/>
      <point x="632" y="38" type="line"/>
      <point x="632" y="0" type="line"/>
    </contour>
    <contour>
      <point x="342" y="1435" type="move" name="U"/>
    </contour>
    <contour>
      <point x="342" y="-100" type="move" name="L"/>
    </contour>
  </outline>
</glyph>
<glyph name="J" format="1">
  <advance width="798"/>
  <unicode hex="004A"/>
  <outline>
    <contour>
      <point x="735" y="1320" type="line"/>
      <point x="693" y="1320"/>
      <point x="636" y="1295"/>
      <point x="615" y="1271" type="qcurve"/>
      <point x="591" y="1236"/>
      <point x="591" y="1117" type="qcurve"/>
      <point x="591" y="453" type="line"/>
      <point x="591" y="349"/>
      <point x="557" y="197"/>
      <point x="501" y="89"/>
      <point x="428" y="21"/>
      <point x="351" y="-18"/>
      <point x="275" y="-32"/>
      <point x="244" y="-32" type="qcurve"/>
      <point x="194" y="-32"/>
      <point x="119" y="-6"/>
      <point x="68" y="38"/>
      <point x="43" y="93"/>
      <point x="43" y="122" type="qcurve"/>
      <point x="43" y="149"/>
      <point x="60" y="189"/>
      <point x="88" y="215"/>
      <point x="125" y="227"/>
      <point x="144" y="227" type="qcurve"/>
      <point x="174" y="227"/>
      <point x="214" y="199"/>
      <point x="240" y="157"/>
      <point x="259" y="109"/>
      <point x="279" y="67"/>
      <point x="305" y="39"/>
      <point x="325" y="39" type="qcurve"/>
      <point x="338" y="39"/>
      <point x="364" y="55"/>
      <point x="386" y="91"/>
      <point x="400" y="150"/>
      <point x="400" y="192" type="qcurve"/>
      <point x="400" y="1117" type="line"/>
      <point x="400" y="1177"/>
      <point x="393" y="1246"/>
      <point x="380" y="1266" type="qcurve"/>
      <point x="374" y="1276"/>
      <point x="348" y="1296"/>
      <point x="313" y="1311"/>
      <point x="272" y="1320"/>
      <point x="252" y="1320" type="qcurve"/>
      <point x="205" y="1320" type="line"/>
      <point x="205" y="1356" type="line"/>
      <point x="784" y="1356" type="line"/>
      <point x="784" y="1320" type="line"/>
    </contour>
    <contour>
      <point x="495" y="1435" type="move" name="U"/>
    </contour>
    <contour>
      <point x="413" y="-100" type="move" name="L"/>
    </contour>
  </outline>
</glyph>
<glyph name="K" format="1">
  <advance width="1288"/>
  <unicode hex="004B"/>
  <outline>
    <contour>
      <point x="741" y="0" type="line" name="hr00"/>
      <point x="741" y="33" type="line"/>
      <point x="792" y="33"/>
      <point x="834" y="64"/>
      <point x="836" y="87" type="qcurve"/>
      <point x="840" y="105"/>
      <point x="810" y="147"/>
      <point x="772" y="185" type="qcurve"/>
      <point x="417" y="539" type="line"/>
      <point x="365" y="487" type="line"/>
      <point x="365" y="210" type="line"/>
      <point x="365" y="181"/>
      <point x="367" y="139"/>
      <point x="371" y="108"/>
      <point x="379" y="85"/>
      <point x="386" y="76" type="qcurve"/>
      <point x="401" y="55"/>
      <point x="460" y="33"/>
      <point x="492" y="33" type="qcurve"/>
      <point x="533" y="33" type="line"/>
      <point x="533" y="0" type="line"/>
      <point x="31" y="0" type="line"/>
      <point x="31" y="33" type="line"/>
      <point x="72" y="33" type="line"/>
      <point x="144" y="33"/>
      <point x="178" y="76" type="qcurve"/>
      <point x="197" y="101"/>
      <point x="197" y="210" type="qcurve"/>
      <point x="197" y="972" type="line"/>
      <point x="197" y="1032"/>
      <point x="186" y="1097"/>
      <point x="175" y="1111" type="qcurve"/>
      <point x="170" y="1117"/>
      <point x="147" y="1130"/>
      <point x="118" y="1141"/>
      <point x="86" y="1148"/>
      <point x="72" y="1148" type="qcurve"/>
      <point x="31" y="1148" type="line"/>
      <point x="31" y="1180" type="line"/>
      <point x="533" y="1180" type="line"/>
      <point x="533" y="1148" type="line"/>
      <point x="492" y="1148" type="line"/>
      <point x="466" y="1148"/>
      <point x="412" y="1133"/>
      <point x="394" y="1114" type="qcurve"/>
      <point x="387" y="1108"/>
      <point x="377" y="1089"/>
      <point x="369" y="1058"/>
      <point x="365" y="1009"/>
      <point x="365" y="972" type="qcurve"/>
      <point x="365" y="602" type="line"/>
      <point x="375" y="610"/>
      <point x="433" y="664"/>
      <point x="485" y="712" type="qcurve"/>
      <point x="615" y="832"/>
      <point x="770" y="998"/>
      <point x="797" y="1037" type="qcurve"/>
      <point x="820" y="1070"/>
      <point x="820" y="1100" type="qcurve"/>
      <point x="820" y="1117"/>
      <point x="785" y="1148"/>
      <point x="741" y="1148" type="qcurve"/>
      <point x="713" y="1148" type="line"/>
      <point x="713" y="1180" type="line"/>
      <point x="1148" y="1180" type="line"/>
      <point x="1148" y="1148" type="line"/>
      <point x="1130" y="1148"/>
      <point x="1097" y="1145"/>
      <point x="1063" y="1134"/>
      <point x="1025" y="1116"/>
      <point x="1001" y="1101" type="qcurve"/>
      <point x="982" y="1089"/>
      <point x="955" y="1072"/>
      <point x="929" y="1050"/>
      <point x="896" y="1019"/>
      <point x="845" y="967"/>
      <point x="770" y="892"/>
      <point x="713" y="835" type="qcurve"/>
      <point x="533" y="655" type="line"/>
      <point x="968" y="221" type="line"/>
      <point x="1075" y="114"/>
      <point x="1152" y="76" type="qcurve"/>
      <point x="1190" y="56"/>
      <point x="1264" y="37"/>
      <point x="1302" y="33" type="qcurve"/>
      <point x="1302" y="0" type="line"/>
    </contour>
    <contour>
      <point x="666" y="1248" type="move" name="U"/>
    </contour>
    <contour>
      <point x="666" y="-87" type="move" name="L"/>
    </contour>
  </outline>
</glyph>
<glyph name="L" format="1">
  <advance width="1251"/>
  <unicode hex="004C"/>
  <outline>
    <contour>
      <point x="1092" y="0" type="line" name="hr00"/>
      <point x="38" y="0" type="line"/>
      <point x="38" y="38" type="line"/>
      <point x="156" y="38"/>
      <point x="237" y="53"/>
      <point x="237" y="207" type="curve" smooth="yes"/>
      <point x="237" y="1150" type="line" smooth="yes"/>
      <point x="237" y="1303"/>
      <point x="156" y="1319"/>
      <point x="38" y="1319" type="curve"/>
      <point x="38" y="1357" type="line"/>
      <point x="627" y="1357" type="line"/>
      <point x="627" y="1319" type="line"/>
      <point x="509" y="1319"/>
      <point x="427" y="1303"/>
      <point x="427" y="1150" type="curve" smooth="yes"/>
      <point x="427" y="256" type="line" smooth="yes"/>
      <point x="427" y="102"/>
      <point x="479" y="87"/>
      <point x="598" y="87" type="curve" smooth="yes"/>
      <point x="735" y="87" type="line" smooth="yes"/>
      <point x="898" y="87"/>
      <point x="969" y="92"/>
      <point x="1023" y="146" type="curve"/>
      <point x="1093" y="203"/>
      <point x="1127" y="255"/>
      <point x="1175" y="374" type="curve"/>
      <point x="1211" y="369" type="line"/>
    </contour>
    <contour>
      <point x="624" y="1435" type="move" name="U"/>
    </contour>
    <contour>
      <point x="624" y="-100" type="move" name="L"/>
    </contour>
  </outline>
</glyph>
<glyph name="M" format="1">
  <advance width="1824"/>
  <unicode hex="004D"/>
  <outline>
    <contour>
      <point x="1203" y="0" type="line" name="hr00"/>
      <point x="1203" y="38" type="line"/>
      <point x="1250" y="38" type="line" smooth="yes"/>
      <point x="1313" y="38"/>
      <point x="1349" y="53"/>
      <point x="1374" y="90" type="curve" smooth="yes"/>
      <point x="1389" y="111"/>
      <point x="1396" y="160"/>
      <point x="1396" y="237" type="curve" smooth="yes"/>
      <point x="1396" y="1142" type="line"/>
      <point x="872" y="0" type="line"/>
      <point x="837" y="0" type="line"/>
      <point x="314" y="1142" type="line"/>
      <point x="314" y="237" type="line" smooth="yes"/>
      <point x="314" y="152"/>
      <point x="324" y="99"/>
      <point x="343" y="79" type="curve"/>
      <point x="364" y="52"/>
      <point x="403" y="38"/>
      <point x="459" y="38" type="curve" smooth="yes"/>
      <point x="506" y="38" type="line"/>
      <point x="506" y="0" type="line"/>
      <point x="36" y="0" type="line"/>
      <point x="36" y="38" type="line"/>
      <point x="83" y="38" type="line" smooth="yes"/>
      <point x="140" y="38"/>
      <point x="177" y="53"/>
      <point x="205" y="90" type="curve"/>
      <point x="217" y="111"/>
      <point x="224" y="157"/>
      <point x="224" y="237" type="curve" smooth="yes"/>
      <point x="224" y="1121" type="line" smooth="yes"/>
      <point x="224" y="1208"/>
      <point x="217" y="1258"/>
      <point x="181" y="1283" type="curve"/>
      <point x="152" y="1307"/>
      <point x="117" y="1320"/>
      <point x="36" y="1320" type="curve"/>
      <point x="36" y="1357" type="line"/>
      <point x="419" y="1357" type="line"/>
      <point x="911" y="296" type="line"/>
      <point x="1396" y="1357" type="line"/>
      <point x="1780" y="1357" type="line"/>
      <point x="1780" y="1320" type="line"/>
      <point x="1733" y="1320" type="line" smooth="yes"/>
      <point x="1676" y="1320"/>
      <point x="1635" y="1303"/>
      <point x="1609" y="1270" type="curve"/>
      <point x="1594" y="1245"/>
      <point x="1588" y="1200"/>
      <point x="1588" y="1121" type="curve" smooth="yes"/>
      <point x="1588" y="237" type="line" smooth="yes"/>
      <point x="1588" y="154"/>
      <point x="1598" y="101"/>
      <point x="1617" y="79" type="curve" smooth="yes"/>
      <point x="1640" y="52"/>
      <point x="1678" y="38"/>
      <point x="1733" y="38" type="curve" smooth="yes"/>
      <point x="1780" y="38" type="line"/>
      <point x="1780" y="0" type="line"/>
    </contour>
    <contour>
      <point x="907" y="1435" type="move" name="U"/>
    </contour>
    <contour>
      <point x="907" y="-100" type="move" name="L"/>
    </contour>
  </outline>
</glyph>
<glyph name="N" format="1">
  <advance width="1288"/>
  <unicode hex="004E"/>
  <outline>
    <contour>
      <point x="1221" y="1148" type="line" name="hr00"/>
      <point x="1183" y="1148"/>
      <point x="1129" y="1127"/>
      <point x="1114" y="1104" type="qcurve"/>
      <point x="1096" y="1074"/>
      <point x="1096" y="975" type="qcurve"/>
      <point x="1096" y="-19" type="line"/>
      <point x="1065" y="-19" type="line"/>
      <point x="284" y="931" type="line"/>
      <point x="284" y="206" type="line"/>
      <point x="284" y="97"/>
      <point x="309" y="69" type="qcurve"/>
      <point x="341" y="33"/>
      <point x="412" y="33" type="qcurve"/>
      <point x="453" y="33" type="line"/>
      <point x="453" y="0" type="line"/>
      <point x="41" y="0" type="line"/>
      <point x="41" y="33" type="line"/>
      <point x="82" y="33" type="line"/>
      <point x="121" y="33"/>
      <point x="174" y="54"/>
      <point x="189" y="78" type="qcurve"/>
      <point x="199" y="92"/>
      <point x="210" y="154"/>
      <point x="210" y="206" type="qcurve"/>
      <point x="210" y="1026" type="line"/>
      <point x="201" y="1035"/>
      <point x="176" y="1076"/>
      <point x="131" y="1117"/>
      <point x="63" y="1148"/>
      <point x="10" y="1148" type="qcurve"/>
      <point x="10" y="1180" type="line"/>
      <point x="298" y="1180" type="line"/>
      <point x="1019" y="295" type="line"/>
      <point x="1019" y="975" type="line"/>
      <point x="1019" y="1087"/>
      <point x="994" y="1111" type="qcurve"/>
      <point x="962" y="1148"/>
      <point x="892" y="1148" type="qcurve"/>
      <point x="853" y="1148" type="line"/>
      <point x="853" y="1180" type="line"/>
      <point x="1261" y="1180" type="line"/>
      <point x="1261" y="1148" type="line"/>
    </contour>
    <contour>
      <point x="636" y="1248" type="move" name="U"/>
    </contour>
    <contour>
      <point x="636" y="-87" type="move" name="L"/>
    </contour>
  </outline>
</glyph>
<glyph name="O" format="1">
  <advance width="1481"/>
  <unicode hex="004F"/>
  <outline>
    <contour>
      <point x="1400" y="687" type="qcurve" name="hr00"/>
      <point x="1400" y="584"/>
      <point x="1354" y="397"/>
      <point x="1268" y="238"/>
      <point x="1149" y="109"/>
      <point x="1000" y="17"/>
      <point x="828" y="-32"/>
      <point x="734" y="-32" type="qcurve"/>
      <point x="596" y="-32"/>
      <point x="354" y="71"/>
      <point x="174" y="259"/>
      <point x="71" y="522"/>
      <point x="71" y="682" type="qcurve"/>
      <point x="71" y="835"/>
      <point x="175" y="1094"/>
      <point x="358" y="1282"/>
      <point x="606" y="1389"/>
      <point x="751" y="1389" type="qcurve"/>
      <point x="841" y="1389"/>
      <point x="1005" y="1341"/>
      <point x="1150" y="1252"/>
      <point x="1267" y="1127"/>
      <point x="1352" y="971"/>
      <point x="1400" y="789"/>
    </contour>
    <contour>
      <point x="1174" y="660" type="qcurve"/>
      <point x="1174" y="815"/>
      <point x="1120" y="1059"/>
      <point x="1010" y="1227"/>
      <point x="843" y="1317"/>
      <point x="729" y="1318" type="qcurve"/>
      <point x="627" y="1318"/>
      <point x="468" y="1230"/>
      <point x="358" y="1067"/>
      <point x="301" y="835"/>
      <point x="301" y="689" type="qcurve"/>
      <point x="301" y="544"/>
      <point x="358" y="306"/>
      <point x="466" y="135"/>
      <point x="627" y="40"/>
      <point x="731" y="39" type="qcurve"/>
      <point x="828" y="39"/>
      <point x="990" y="113"/>
      <point x="1107" y="266"/>
      <point x="1173" y="500"/>
    </contour>
    <contour>
      <point x="735" y="1435" type="move" name="U"/>
    </contour>
    <contour>
      <point x="735" y="-100" type="move" name="L"/>
    </contour>
  </outline>
</glyph>
<glyph name="P" format="1">
  <advance width="1139"/>
  <unicode hex="0050"/>
  <outline>
    <contour>
      <point x="1068" y="982" type="qcurve" name="hr00"/>
      <point x="1068" y="904"/>
      <point x="1020" y="767"/>
      <point x="909" y="665"/>
      <point x="727" y="606"/>
      <point x="593" y="607" type="qcurve"/>
      <point x="574" y="607"/>
      <point x="559" y="607" type="qcurve"/>
      <point x="544" y="607"/>
      <point x="508" y="608"/>
      <point x="459" y="613"/>
      <point x="420" y="617" type="qcurve"/>
      <point x="420" y="241" type="line"/>
      <point x="420" y="177"/>
      <point x="432" y="97"/>
      <point x="449" y="83" type="qcurve"/>
      <point x="487" y="38"/>
      <point x="564" y="38" type="qcurve"/>
      <point x="615" y="38" type="line"/>
      <point x="615" y="0" type="line"/>
      <point x="36" y="0" type="line"/>
      <point x="36" y="38" type="line"/>
      <point x="85" y="38" type="line"/>
      <point x="127" y="38"/>
      <point x="189" y="64"/>
      <point x="207" y="92" type="qcurve"/>
      <point x="215" y="108"/>
      <point x="227" y="181"/>
      <point x="227" y="241" type="qcurve"/>
      <point x="227" y="1117" type="line"/>
      <point x="227" y="1242"/>
      <point x="201" y="1277" type="qcurve"/>
      <point x="181" y="1298"/>
      <point x="125" y="1320"/>
      <point x="85" y="1320" type="qcurve"/>
      <point x="36" y="1320" type="line"/>
      <point x="36" y="1356" type="line"/>
      <point x="530" y="1356" type="line"/>
      <point x="582" y="1356"/>
      <point x="688" y="1350"/>
      <point x="787" y="1331"/>
      <point x="877" y="1298"/>
      <point x="912" y="1271" type="qcurve"/>
      <point x="945" y="1247"/>
      <point x="1002" y="1190"/>
      <point x="1044" y="1120"/>
      <point x="1068" y="1035"/>
    </contour>
    <contour>
      <point x="839" y="961" type="qcurve"/>
      <point x="840" y="1023"/>
      <point x="804" y="1138"/>
      <point x="732" y="1225"/>
      <point x="623" y="1277"/>
      <point x="551" y="1277" type="qcurve"/>
      <point x="527" y="1277"/>
      <point x="461" y="1266"/>
      <point x="420" y="1258" type="qcurve"/>
      <point x="420" y="684" type="line"/>
      <point x="472" y="676"/>
      <point x="554" y="672"/>
      <point x="583" y="672" type="qcurve"/>
      <point x="635" y="672"/>
      <point x="728" y="713"/>
      <point x="797" y="789"/>
      <point x="838" y="895"/>
    </contour>
    <contour>
      <point x="552" y="1435" type="move" name="U"/>
    </contour>
    <contour>
      <point x="552" y="-100" type="move" name="L"/>
    </contour>
  </outline>
</glyph>
<glyph name="Q" format="1">
  <advance width="1481"/>
  <unicode hex="0051"/>
  <outline>
    <contour>
      <point x="1402" y="678" type="qcurve" name="hr00"/>
      <point x="1402" y="554"/>
      <point x="1329" y="332"/>
      <point x="1199" y="152"/>
      <point x="1015" y="21"/>
      <point x="904" y="-13" type="qcurve"/>
      <point x="953" y="-100"/>
      <point x="1061" y="-228"/>
      <point x="1181" y="-315"/>
      <point x="1317" y="-363"/>
      <point x="1395" y="-369" type="qcurve"/>
      <point x="1395" y="-402" type="line"/>
      <point x="1274" y="-397"/>
      <point x="1030" y="-328"/>
      <point x="811" y="-221"/>
      <point x="623" y="-85"/>
      <point x="558" y="-13" type="qcurve"/>
      <point x="423" y="34"/>
      <point x="238" y="181"/>
      <point x="122" y="362"/>
      <point x="71" y="572"/>
      <point x="71" y="681" type="qcurve"/>
      <point x="71" y="782"/>
      <point x="118" y="967"/>
      <point x="205" y="1125"/>
      <point x="328" y="1251"/>
      <point x="478" y="1341"/>
      <point x="652" y="1389"/>
      <point x="747" y="1389" type="qcurve"/>
      <point x="882" y="1389"/>
      <point x="1121" y="1283"/>
      <point x="1298" y="1095"/>
      <point x="1402" y="834"/>
    </contour>
    <contour>
      <point x="1174" y="653" type="qcurve"/>
      <point x="1174" y="804"/>
      <point x="1117" y="1049"/>
      <point x="1005" y="1220"/>
      <point x="841" y="1313"/>
      <point x="734" y="1313" type="qcurve"/>
      <point x="634" y="1313"/>
      <point x="473" y="1232"/>
      <point x="361" y="1072"/>
      <point x="301" y="835"/>
      <point x="301" y="681" type="qcurve"/>
      <point x="301" y="537"/>
      <point x="358" y="301"/>
      <point x="467" y="132"/>
      <point x="628" y="38"/>
      <point x="734" y="38" type="qcurve"/>
      <point x="838" y="37"/>
      <point x="1003" y="121"/>
      <point x="1114" y="281"/>
      <point x="1174" y="509"/>
    </contour>
    <contour>
      <point x="736" y="1435" type="move" name="U"/>
    </contour>
    <contour>
      <point x="736" y="-270" type="move" name="L"/>
    </contour>
  </outline>
</glyph>
<glyph name="R" format="1">
  <advance width="1368"/>
  <unicode hex="0052"/>
  <outline>
    <contour>
      <point x="1023" y="0" type="line" name="hr00"/>
      <point x="565" y="635" type="line"/>
      <point x="537" y="634"/>
      <point x="497" y="630"/>
      <point x="481" y="630" type="qcurve"/>
      <point x="466" y="630"/>
      <point x="437" y="631"/>
      <point x="420" y="635" type="qcurve"/>
      <point x="420" y="241" type="line"/>
      <point x="420" y="112"/>
      <point x="450" y="83" type="qcurve"/>
      <point x="488" y="38"/>
      <point x="565" y="38" type="qcurve"/>
      <point x="618" y="38" type="line"/>
      <point x="618" y="0" type="line"/>
      <point x="36" y="0" type="line"/>
      <point x="36" y="38" type="line"/>
      <point x="87" y="38" type="line"/>
      <point x="175" y="38"/>
      <point x="209" y="92" type="qcurve"/>
      <point x="229" y="124"/>
      <point x="229" y="241" type="qcurve"/>
      <point x="229" y="1118" type="line"/>
      <point x="229" y="1243"/>
      <point x="204" y="1278" type="qcurve"/>
      <point x="182" y="1298"/>
      <point x="125" y="1320"/>
      <point x="87" y="1320" type="qcurve"/>
      <point x="36" y="1320" type="line"/>
      <point x="36" y="1357" type="line"/>
      <point x="528" y="1357" type="line"/>
      <point x="637" y="1357"/>
      <point x="798" y="1342"/>
      <point x="850" y="1325" type="qcurve"/>
      <point x="903" y="1308"/>
      <point x="991" y="1249"/>
      <point x="1058" y="1168"/>
      <point x="1095" y="1068"/>
      <point x="1095" y="1011" type="qcurve"/>
      <point x="1095" y="948"/>
      <point x="1055" y="836"/>
      <point x="972" y="746"/>
      <point x="846" y="680"/>
      <point x="761" y="660" type="qcurve"/>
      <point x="1038" y="270" type="line"/>
      <point x="1084" y="206"/>
      <point x="1163" y="121"/>
      <point x="1243" y="69"/>
      <point x="1331" y="44"/>
      <point x="1387" y="38" type="qcurve"/>
      <point x="1387" y="0" type="line"/>
    </contour>
    <contour>
      <point x="869" y="994" type="qcurve"/>
      <point x="869" y="1058"/>
      <point x="828" y="1163"/>
      <point x="752" y="1237"/>
      <point x="644" y="1281"/>
      <point x="577" y="1281" type="qcurve"/>
      <point x="551" y="1281"/>
      <point x="473" y="1273"/>
      <point x="420" y="1265" type="qcurve"/>
      <point x="420" y="698" type="line"/>
      <point x="477" y="698" type="line"/>
      <point x="577" y="698"/>
      <point x="724" y="743"/>
      <point x="821" y="821"/>
      <point x="869" y="929"/>
    </contour>
    <contour>
      <point x="612" y="1435" type="move" name="U"/>
    </contour>
    <contour>
      <point x="712" y="-100" type="move" name="L"/>
    </contour>
  </outline>
</glyph>
<glyph name="S" format="1">
  <advance width="991"/>
  <unicode hex="0053"/>
  <outline>
    <contour>
      <point x="897" y="301" type="qcurve" name="hr00"/>
      <point x="897" y="234"/>
      <point x="842" y="114"/>
      <point x="743" y="24"/>
      <point x="606" y="-28"/>
      <point x="525" y="-28" type="qcurve"/>
      <point x="465" y="-28"/>
      <point x="365" y="-7"/>
      <point x="287" y="19"/>
      <point x="228" y="40"/>
      <point x="207" y="40" type="qcurve"/>
      <point x="186" y="40"/>
      <point x="160" y="10"/>
      <point x="154" y="-28" type="qcurve"/>
      <point x="123" y="-28" type="line"/>
      <point x="123" y="378" type="line"/>
      <point x="154" y="378" type="line"/>
      <point x="165" y="286"/>
      <point x="231" y="158"/>
      <point x="325" y="77"/>
      <point x="443" y="41"/>
      <point x="505" y="41" type="qcurve"/>
      <point x="559" y="41"/>
      <point x="647" y="72"/>
      <point x="708" y="125"/>
      <point x="741" y="195"/>
      <point x="741" y="234" type="qcurve"/>
      <point x="741" y="278"/>
      <point x="711" y="344"/>
      <point x="643" y="405"/>
      <point x="534" y="472"/>
      <point x="457" y="516" type="qcurve"/>
      <point x="351" y="575"/>
      <point x="217" y="668"/>
      <point x="141" y="754"/>
      <point x="113" y="842"/>
      <point x="113" y="897" type="qcurve"/>
      <point x="113" y="960"/>
      <point x="161" y="1072"/>
      <point x="251" y="1157"/>
      <point x="378" y="1208"/>
      <point x="457" y="1208" type="qcurve"/>
      <point x="508" y="1208"/>
      <point x="592" y="1187"/>
      <point x="659" y="1161"/>
      <point x="710" y="1141"/>
      <point x="729" y="1141" type="qcurve"/>
      <point x="749" y="1141"/>
      <point x="776" y="1170"/>
      <point x="786" y="1208" type="qcurve"/>
      <point x="818" y="1208" type="line"/>
      <point x="818" y="799" type="line"/>
      <point x="786" y="799" type="line"/>
      <point x="777" y="882"/>
      <point x="719" y="1009"/>
      <point x="632" y="1095"/>
      <point x="520" y="1139"/>
      <point x="458" y="1139" type="qcurve"/>
      <point x="415" y="1139"/>
      <point x="339" y="1109"/>
      <point x="284" y="1060"/>
      <point x="251" y="994"/>
      <point x="251" y="957" type="qcurve"/>
      <point x="251" y="922"/>
      <point x="277" y="864"/>
      <point x="343" y="802"/>
      <point x="457" y="731"/>
      <point x="544" y="684" type="qcurve"/>
      <point x="628" y="639"/>
      <point x="739" y="570"/>
      <point x="770" y="546" type="qcurve"/>
      <point x="830" y="502"/>
      <point x="897" y="374"/>
    </contour>
    <contour>
      <point x="505" y="1248" type="move" name="U"/>
    </contour>
    <contour>
      <point x="505" y="-87" type="move" name="L"/>
    </contour>
  </outline>
</glyph>
<glyph name="T" format="1">
  <advance width="1247"/>
  <unicode hex="0054"/>
  <outline>
    <contour>
      <point x="1157" y="1038" type="line" name="hr00"/>
      <point x="1153" y="1075"/>
      <point x="1141" y="1128"/>
      <point x="1125" y="1167"/>
      <point x="1106" y="1194"/>
      <point x="1094" y="1206" type="qcurve"/>
      <point x="1062" y="1240"/>
      <point x="977" y="1273"/>
      <point x="909" y="1273" type="qcurve"/>
      <point x="717" y="1273" type="line"/>
      <point x="717" y="237" type="line"/>
      <point x="717" y="173"/>
      <point x="732" y="95"/>
      <point x="745" y="79" type="qcurve"/>
      <point x="780" y="38"/>
      <point x="861" y="38" type="qcurve"/>
      <point x="909" y="38" type="line"/>
      <point x="909" y="0" type="line"/>
      <point x="333" y="0" type="line"/>
      <point x="333" y="38" type="line"/>
      <point x="382" y="38" type="line"/>
      <point x="426" y="38"/>
      <point x="484" y="62"/>
      <point x="504" y="90" type="qcurve"/>
      <point x="514" y="106"/>
      <point x="525" y="177"/>
      <point x="525" y="237" type="qcurve"/>
      <point x="525" y="1273" type="line"/>
      <point x="363" y="1273" type="line"/>
      <point x="322" y="1273"/>
      <point x="265" y="1269"/>
      <point x="224" y="1259"/>
      <point x="193" y="1243"/>
      <point x="179" y="1230" type="qcurve"/>
      <point x="106" y="1176"/>
      <point x="94" y="1038" type="qcurve"/>
      <point x="49" y="1038" type="line"/>
      <point x="64" y="1356" type="line"/>
      <point x="1189" y="1356" type="line"/>
      <point x="1200" y="1038" type="line"/>
    </contour>
    <contour>
      <point x="624" y="1435" type="move" name="U"/>
    </contour>
    <contour>
      <point x="624" y="-100" type="move" name="L"/>
    </contour>
  </outline>
</glyph>
<glyph name="U" format="1">
  <advance width="1481"/>
  <unicode hex="0055"/>
  <outline>
    <contour>
      <point x="1408" y="1320" type="line" name="hr00"/>
      <point x="1366" y="1320"/>
      <point x="1309" y="1287"/>
      <point x="1286" y="1251" type="qcurve"/>
      <point x="1274" y="1237"/>
      <point x="1265" y="1167"/>
      <point x="1265" y="1111" type="qcurve"/>
      <point x="1265" y="558" type="line"/>
      <point x="1265" y="489"/>
      <point x="1255" y="361"/>
      <point x="1227" y="250"/>
      <point x="1181" y="156"/>
      <point x="1145" y="118" type="qcurve"/>
      <point x="1109" y="79"/>
      <point x="1028" y="23"/>
      <point x="933" y="-14"/>
      <point x="814" y="-32"/>
      <point x="739" y="-32" type="qcurve"/>
      <point x="600" y="-32"/>
      <point x="413" y="30"/>
      <point x="296" y="131"/>
      <point x="235" y="261"/>
      <point x="209" y="398"/>
      <point x="207" y="532"/>
      <point x="207" y="585" type="qcurve"/>
      <point x="207" y="1118" type="line"/>
      <point x="207" y="1181"/>
      <point x="191" y="1262"/>
      <point x="174" y="1281" type="qcurve"/>
      <point x="158" y="1303"/>
      <point x="102" y="1320"/>
      <point x="61" y="1320" type="qcurve"/>
      <point x="30" y="1320" type="line"/>
      <point x="30" y="1357" type="line"/>
      <point x="577" y="1357" type="line"/>
      <point x="577" y="1320" type="line"/>
      <point x="527" y="1320" type="line"/>
      <point x="485" y="1320"/>
      <point x="443" y="1295"/>
      <point x="425" y="1267" type="qcurve"/>
      <point x="414" y="1248"/>
      <point x="400" y="1174"/>
      <point x="400" y="1118" type="qcurve"/>
      <point x="400" y="526" type="line"/>
      <point x="400" y="481"/>
      <point x="404" y="376"/>
      <point x="425" y="273"/>
      <point x="469" y="174"/>
      <point x="547" y="98"/>
      <point x="667" y="53"/>
      <point x="753" y="53" type="qcurve"/>
      <point x="814" y="53"/>
      <point x="918" y="78"/>
      <point x="999" y="116"/>
      <point x="1060" y="158"/>
      <point x="1079" y="175" type="qcurve"/>
      <point x="1104" y="199"/>
      <point x="1138" y="266"/>
      <point x="1159" y="342"/>
      <point x="1170" y="420"/>
      <point x="1174" y="490"/>
      <point x="1174" y="520" type="qcurve"/>
      <point x="1174" y="550"/>
      <point x="1174" y="568" type="qcurve"/>
      <point x="1174" y="1118" type="line"/>
      <point x="1174" y="1181"/>
      <point x="1160" y="1260"/>
      <point x="1145" y="1278" type="qcurve"/>
      <point x="1105" y="1320"/>
      <point x="1029" y="1320" type="qcurve"/>
      <point x="979" y="1320" type="line"/>
      <point x="979" y="1357" type="line"/>
      <point x="1459" y="1357" type="line"/>
      <point x="1459" y="1320" type="line"/>
    </contour>
    <contour>
      <point x="744" y="1435" type="move" name="U"/>
    </contour>
    <contour>
      <point x="744" y="-100" type="move" name="L"/>
    </contour>
  </outline>
</glyph>
<glyph name="V" format="1">
  <advance width="1481"/>
  <unicode hex="0056"/>
  <outline>
    <contour>
      <point x="1455" y="1320" type="line" name="hr00"/>
      <point x="1420" y="1316"/>
      <point x="1364" y="1294"/>
      <point x="1347" y="1275" type="qcurve"/>
      <point x="1295" y="1227"/>
      <point x="1251" y="1126" type="qcurve"/>
      <point x="780" y="-32" type="line"/>
      <point x="742" y="-32" type="line"/>
      <point x="235" y="1140" type="line"/>
      <point x="217" y="1183"/>
      <point x="191" y="1233"/>
      <point x="171" y="1259"/>
      <point x="155" y="1273"/>
      <point x="146" y="1280" type="qcurve"/>
      <point x="123" y="1297"/>
      <point x="66" y="1317"/>
      <point x="17" y="1320" type="qcurve"/>
      <point x="17" y="1357" type="line"/>
      <point x="573" y="1357" type="line"/>
      <point x="573" y="1320" type="line"/>
      <point x="512" y="1316"/>
      <point x="447" y="1293"/>
      <point x="435" y="1272" type="qcurve"/>
      <point x="416" y="1245"/>
      <point x="434" y="1150"/>
      <point x="467" y="1073" type="qcurve"/>
      <point x="814" y="276" type="line"/>
      <point x="1135" y="1065" type="line"/>
      <point x="1164" y="1140"/>
      <point x="1188" y="1232"/>
      <point x="1172" y="1258" type="qcurve"/>
      <point x="1166" y="1267"/>
      <point x="1150" y="1283"/>
      <point x="1121" y="1299"/>
      <point x="1074" y="1314"/>
      <point x="1037" y="1320" type="qcurve"/>
      <point x="1037" y="1357" type="line"/>
      <point x="1455" y="1357" type="line"/>
    </contour>
    <contour>
      <point x="735" y="1435" type="move" name="U"/>
    </contour>
    <contour>
      <point x="735" y="-100" type="move" name="L"/>
    </contour>
  </outline>
</glyph>
<glyph name="W" format="1">
  <advance width="1935"/>
  <unicode hex="0057"/>
  <outline>
    <contour>
      <point x="1919" y="1320" type="line" name="hr00"/>
      <point x="1896" y="1320"/>
      <point x="1855" y="1313"/>
      <point x="1819" y="1294"/>
      <point x="1786" y="1258"/>
      <point x="1771" y="1230" type="qcurve"/>
      <point x="1762" y="1213"/>
      <point x="1727" y="1130"/>
      <point x="1705" y="1065" type="qcurve"/>
      <point x="1328" y="-32" type="line"/>
      <point x="1288" y="-32" type="line"/>
      <point x="981" y="835" type="line"/>
      <point x="673" y="-32" type="line"/>
      <point x="635" y="-32" type="line"/>
      <point x="233" y="1097" type="line"/>
      <point x="213" y="1152"/>
      <point x="189" y="1219"/>
      <point x="172" y="1255"/>
      <point x="159" y="1272"/>
      <point x="149" y="1278" type="qcurve"/>
      <point x="132" y="1301"/>
      <point x="74" y="1320"/>
      <point x="28" y="1320" type="qcurve"/>
      <point x="28" y="1357" type="line"/>
      <point x="528" y="1357" type="line"/>
      <point x="528" y="1320" type="line"/>
      <point x="504" y="1320" type="line"/>
      <point x="431" y="1320"/>
      <point x="408" y="1275" type="qcurve"/>
      <point x="404" y="1266"/>
      <point x="398" y="1243"/>
      <point x="404" y="1203"/>
      <point x="423" y="1135"/>
      <point x="443" y="1079" type="qcurve"/>
      <point x="707" y="316" type="line"/>
      <point x="934" y="964" type="line"/>
      <point x="912" y="1038"/>
      <point x="885" y="1104" type="qcurve"/>
      <point x="874" y="1132"/>
      <point x="850" y="1188"/>
      <point x="823" y="1237"/>
      <point x="797" y="1276"/>
      <point x="782" y="1288" type="qcurve"/>
      <point x="762" y="1304"/>
      <point x="715" y="1320"/>
      <point x="673" y="1320" type="qcurve"/>
      <point x="673" y="1357" type="line"/>
      <point x="1201" y="1357" type="line"/>
      <point x="1201" y="1320" type="line"/>
      <point x="1166" y="1320" type="line"/>
      <point x="1058" y="1320"/>
      <point x="1058" y="1233" type="qcurve"/>
      <point x="1058" y="1205"/>
      <point x="1078" y="1119"/>
      <point x="1101" y="1056" type="qcurve"/>
      <point x="1363" y="316" type="line"/>
      <point x="1620" y="1065" type="line"/>
      <point x="1635" y="1110"/>
      <point x="1657" y="1178"/>
      <point x="1665" y="1227"/>
      <point x="1659" y="1264"/>
      <point x="1649" y="1278" type="qcurve"/>
      <point x="1630" y="1304"/>
      <point x="1562" y="1320"/>
      <point x="1515" y="1320" type="qcurve"/>
      <point x="1515" y="1357" type="line"/>
      <point x="1919" y="1357" type="line"/>
    </contour>
    <contour>
      <point x="974" y="1435" type="move" name="U"/>
    </contour>
    <contour>
      <point x="974" y="-100" type="move" name="L"/>
    </contour>
  </outline>
</glyph>
<glyph name="X" format="1">
  <advance width="1288"/>
  <unicode hex="0058"/>
  <outline>
    <contour>
      <point x="760" y="0" type="line" name="hr00"/>
      <point x="760" y="33" type="line"/>
      <point x="804" y="33"/>
      <point x="852" y="47"/>
      <point x="864" y="65" type="qcurve"/>
      <point x="873" y="78"/>
      <point x="880" y="101"/>
      <point x="871" y="132"/>
      <point x="844" y="178"/>
      <point x="820" y="216" type="qcurve"/>
      <point x="620" y="520" type="line"/>
      <point x="371" y="203" type="line"/>
      <point x="354" y="180"/>
      <point x="333" y="151"/>
      <point x="323" y="129"/>
      <point x="319" y="110"/>
      <point x="319" y="100" type="qcurve"/>
      <point x="319" y="86"/>
      <point x="329" y="63"/>
      <point x="354" y="45"/>
      <point x="398" y="34"/>
      <point x="432" y="33" type="qcurve"/>
      <point x="432" y="0" type="line"/>
      <point x="11" y="0" type="line"/>
      <point x="11" y="33" type="line"/>
      <point x="50" y="34"/>
      <point x="129" y="67"/>
      <point x="204" y="121"/>
      <point x="273" y="191"/>
      <point x="303" y="228" type="qcurve"/>
      <point x="583" y="581" type="line"/>
      <point x="350" y="923" type="line"/>
      <point x="304" y="990"/>
      <point x="228" y="1075"/>
      <point x="156" y="1125"/>
      <point x="81" y="1146"/>
      <point x="37" y="1148" type="qcurve"/>
      <point x="37" y="1180" type="line"/>
      <point x="583" y="1180" type="line"/>
      <point x="583" y="1148" type="line"/>
      <point x="515" y="1146"/>
      <point x="487" y="1125" type="qcurve"/>
      <point x="474" y="1114"/>
      <point x="460" y="1092"/>
      <point x="462" y="1061"/>
      <point x="482" y="1019"/>
      <point x="502" y="988" type="qcurve"/>
      <point x="684" y="717" type="line"/>
      <point x="893" y="983" type="line"/>
      <point x="931" y="1030"/>
      <point x="955" y="1092"/>
      <point x="938" y="1114" type="qcurve"/>
      <point x="932" y="1123"/>
      <point x="917" y="1135"/>
      <point x="892" y="1143"/>
      <point x="852" y="1148"/>
      <point x="820" y="1148" type="qcurve"/>
      <point x="820" y="1180" type="line"/>
      <point x="1240" y="1180" type="line"/>
      <point x="1240" y="1148" type="line"/>
      <point x="1192" y="1146"/>
      <point x="1122" y="1121"/>
      <point x="1062" y="1073"/>
      <point x="1002" y="1002"/>
      <point x="964" y="954" type="qcurve"/>
      <point x="726" y="655" type="line"/>
      <point x="980" y="277" type="line"/>
      <point x="1016" y="224"/>
      <point x="1071" y="148"/>
      <point x="1117" y="95"/>
      <point x="1157" y="62"/>
      <point x="1197" y="43"/>
      <point x="1240" y="35"/>
      <point x="1265" y="33" type="qcurve"/>
      <point x="1265" y="0" type="line"/>
    </contour>
    <contour>
      <point x="638" y="1248" type="move" name="U"/>
    </contour>
    <contour>
      <point x="638" y="-87" type="move" name="L"/>
    </contour>
  </outline>
</glyph>
<glyph name="Y" format="1">
  <advance width="1288"/>
  <unicode hex="0059"/>
  <outline>
    <contour>
      <point x="1240" y="1148" type="line" name="hr00"/>
      <point x="1229" y="1148"/>
      <point x="1195" y="1140"/>
      <point x="1155" y="1121"/>
      <point x="1113" y="1093"/>
      <point x="1094" y="1072" type="qcurve"/>
      <point x="1076" y="1052"/>
      <point x="1034" y="991"/>
      <point x="1007" y="948" type="qcurve"/>
      <point x="720" y="501" type="line"/>
      <point x="720" y="206" type="line"/>
      <point x="720" y="95"/>
      <point x="746" y="69" type="qcurve"/>
      <point x="776" y="33"/>
      <point x="851" y="33" type="qcurve"/>
      <point x="888" y="33" type="line"/>
      <point x="888" y="0" type="line"/>
      <point x="388" y="0" type="line"/>
      <point x="388" y="33" type="line"/>
      <point x="429" y="33" type="line"/>
      <point x="466" y="33"/>
      <point x="517" y="54"/>
      <point x="535" y="78" type="qcurve"/>
      <point x="543" y="92"/>
      <point x="552" y="154"/>
      <point x="552" y="206" type="qcurve"/>
      <point x="552" y="485" type="line"/>
      <point x="230" y="979" type="line"/>
      <point x="201" y="1021"/>
      <point x="160" y="1081"/>
      <point x="136" y="1101" type="qcurve"/>
      <point x="113" y="1118"/>
      <point x="50" y="1148"/>
      <point x="15" y="1148" type="qcurve"/>
      <point x="15" y="1180" type="line"/>
      <point x="522" y="1180" type="line"/>
      <point x="522" y="1148" type="line"/>
      <point x="496" y="1148" type="line"/>
      <point x="484" y="1148"/>
      <point x="446" y="1142"/>
      <point x="412" y="1126"/>
      <point x="386" y="1095"/>
      <point x="386" y="1072" type="qcurve"/>
      <point x="386" y="1057"/>
      <point x="412" y="1000"/>
      <point x="438" y="957" type="qcurve"/>
      <point x="684" y="578" type="line"/>
      <point x="918" y="941" type="line"/>
      <point x="937" y="971"/>
      <point x="962" y="1019"/>
      <point x="974" y="1058"/>
      <point x="967" y="1092"/>
      <point x="955" y="1108" type="qcurve"/>
      <point x="945" y="1125"/>
      <point x="900" y="1148"/>
      <point x="851" y="1148" type="qcurve"/>
      <point x="851" y="1180" type="line"/>
      <point x="1261" y="1180" type="line"/>
      <point x="1261" y="1148" type="line"/>
    </contour>
    <contour>
      <point x="638" y="1248" type="move" name="U"/>
    </contour>
    <contour>
      <point x="638" y="-87" type="move" name="L"/>
    </contour>
  </outline>
</glyph>
<glyph name="Z" format="1">
  <advance width="1251"/>
  <unicode hex="005A"/>
  <outline>
    <contour>
      <point x="1133" y="0" type="line" name="hr00"/>
      <point x="28" y="0" type="line"/>
      <point x="28" y="38" type="line"/>
      <point x="896" y="1278" type="line"/>
      <point x="463" y="1278" type="line"/>
      <point x="385" y="1278"/>
      <point x="296" y="1255"/>
      <point x="266" y="1228" type="qcurve"/>
      <point x="253" y="1217"/>
      <point x="231" y="1184"/>
      <point x="212" y="1136"/>
      <point x="194" y="1067"/>
      <point x="186" y="1018" type="qcurve"/>
      <point x="148" y="1018" type="line"/>
      <point x="175" y="1357" type="line"/>
      <point x="1180" y="1357" type="line"/>
      <point x="289" y="83" type="line"/>
      <point x="844" y="83" type="line"/>
      <point x="908" y="83"/>
      <point x="1004" y="109"/>
      <point x="1038" y="138" type="qcurve"/>
      <point x="1074" y="166"/>
      <point x="1135" y="278"/>
      <point x="1164" y="366" type="qcurve"/>
      <point x="1195" y="359" type="line"/>
    </contour>
    <contour>
      <point x="612" y="1435" type="move" name="U"/>
    </contour>
    <contour>
      <point x="612" y="-100" type="move" name="L"/>
    </contour>
  </outline>
</glyph>
<glyph name="bracketleft" format="1">
  <advance width="593"/>
  <unicode hex="005B"/>
  <outline>
    <contour>
      <point x="528" y="-353" type="line"/>
      <point x="528" y="-284" type="line"/>
      <point x="275" y="-284" type="line"/>
      <point x="275" y="1141" type="line"/>
      <point x="528" y="1141" type="line"/>
      <point x="528" y="1208" type="line"/>
      <point x="144" y="1208" type="line"/>
      <point x="144" y="-353" type="line"/>
    </contour>
  </outline>
</glyph>
<glyph name="backslash" format="1">
  <advance width="570"/>
  <unicode hex="005C"/>
  <outline>
    <contour>
      <point x="577" y="-30" type="line"/>
      <point x="89" y="1424" type="line"/>
      <point x="2" y="1424" type="line"/>
      <point x="496" y="-30" type="line"/>
    </contour>
  </outline>
</glyph>
<glyph name="bracketright" format="1">
  <advance width="682"/>
  <unicode hex="005D"/>
  <outline>
    <contour>
      <point x="517" y="-408" type="line"/>
      <point x="517" y="1388" type="line"/>
      <point x="77" y="1388" type="line"/>
      <point x="77" y="1311" type="line"/>
      <point x="367" y="1311" type="line"/>
      <point x="367" y="-327" type="line"/>
      <point x="77" y="-327" type="line"/>
      <point x="77" y="-408" type="line"/>
    </contour>
  </outline>
</glyph>
<glyph name="asciicircum" format="1">
  <advance width="559"/>
  <unicode hex="005E"/>
  <outline>
    <contour>
      <point x="498" y="907" type="line"/>
      <point x="279" y="1093" type="line"/>
      <point x="62" y="907" type="line"/>
      <point x="0" y="907" type="line"/>
      <point x="224" y="1206" type="line"/>
      <point x="336" y="1206" type="line"/>
      <point x="559" y="907" type="line"/>
    </contour>
    <contour>
      <point x="279" y="1196" type="move" name="U"/>
    </contour>
  </outline>
</glyph>
<glyph name="underscore" format="1">
  <advance width="643"/>
  <unicode hex="005F"/>
  <outline>
    <contour>
      <point x="643" y="-295" type="line"/>
      <point x="643" y="-186" type="line"/>
      <point x="0" y="-186" type="line"/>
      <point x="0" y="-295" type="line"/>
    </contour>
  </outline>
</glyph>
<glyph name="grave" format="1">
  <advance width="611"/>
  <unicode hex="0060"/>
  <outline>
    <contour>
      <point x="406" y="907" type="line"/>
      <point x="159" y="1155" type="line" smooth="yes"/>
      <point x="127" y="1188"/>
      <point x="85" y="1214"/>
      <point x="56" y="1214" type="curve" smooth="yes"/>
      <point x="21" y="1214"/>
      <point x="0" y="1188"/>
      <point x="0" y="1147" type="curve" smooth="yes"/>
      <point x="0" y="1116"/>
      <point x="48" y="1088"/>
      <point x="77" y="1070" type="curve" smooth="yes"/>
      <point x="334" y="907" type="line"/>
    </contour>
    <contour>
      <point x="203" y="1196" type="move" name="U"/>
    </contour>
  </outline>
</glyph>
<glyph name="a" format="1">
  <advance width="911"/>
  <unicode hex="0061"/>
  <outline>
    <contour>
      <point x="910" y="132" type="line"/>
      <point x="797" y="-17"/>
      <point x="690" y="-17" type="qcurve"/>
      <point x="668" y="-17"/>
      <point x="629" y="-3"/>
      <point x="600" y="31"/>
      <point x="583" y="89"/>
      <point x="583" y="132" type="qcurve"/>
      <point x="523" y="85"/>
      <point x="444" y="26"/>
      <point x="383" y="-6"/>
      <point x="328" y="-17"/>
      <point x="292" y="-17" type="qcurve"/>
      <point x="243" y="-17"/>
      <point x="163" y="16"/>
      <point x="105" y="77"/>
      <point x="74" y="164"/>
      <point x="74" y="217" type="qcurve"/>
      <point x="74" y="268"/>
      <point x="110" y="360"/>
      <point x="220" y="453"/>
      <point x="420" y="551"/>
      <point x="583" y="607" type="qcurve"/>
      <point x="583" y="645" type="line"/>
      <point x="583" y="712"/>
      <point x="562" y="802"/>
      <point x="520" y="858"/>
      <point x="457" y="883"/>
      <point x="412" y="883" type="qcurve"/>
      <point x="350" y="883"/>
      <point x="277" y="819"/>
      <point x="274" y="772" type="qcurve"/>
      <point x="276" y="712" type="line"/>
      <point x="278" y="668"/>
      <point x="231" y="618"/>
      <point x="193" y="618" type="qcurve"/>
      <point x="153" y="618"/>
      <point x="109" y="668"/>
      <point x="109" y="713" type="qcurve"/>
      <point x="109" y="767"/>
      <point x="164" y="852"/>
      <point x="258" y="912"/>
      <point x="378" y="943"/>
      <point x="444" y="943" type="qcurve"/>
      <point x="543" y="943"/>
      <point x="665" y="899"/>
      <point x="730" y="819"/>
      <point x="751" y="703"/>
      <point x="751" y="630" type="qcurve"/>
      <point x="751" y="319" type="line"/>
      <point x="751" y="254"/>
      <point x="756" y="172"/>
      <point x="757" y="158" type="qcurve"/>
      <point x="761" y="131"/>
      <point x="781" y="109"/>
      <point x="800" y="109" type="qcurve"/>
      <point x="810" y="109"/>
      <point x="826" y="114"/>
      <point x="848" y="130"/>
      <point x="881" y="162"/>
      <point x="910" y="190" type="qcurve"/>
    </contour>
    <contour>
      <point x="583" y="549" type="line"/>
      <point x="467" y="504"/>
      <point x="332" y="428"/>
      <point x="262" y="360"/>
      <point x="243" y="297"/>
      <point x="243" y="264" type="qcurve"/>
      <point x="243" y="228"/>
      <point x="266" y="168"/>
      <point x="302" y="123"/>
      <point x="353" y="97"/>
      <point x="382" y="97" type="qcurve"/>
      <point x="421" y="94"/>
      <point x="520" y="146"/>
      <point x="583" y="197" type="qcurve"/>
    </contour>
    <contour>
      <point x="445" y="1000" type="move" name="U"/>
    </contour>
    <contour>
      <point x="445" y="-100" type="move" name="L"/>
    </contour>
  </outline>
</glyph>
<glyph name="b" format="1">
  <advance width="1025"/>
  <unicode hex="0062"/>
  <outline>
    <contour>
      <point x="954" y="495" type="qcurve" name="hr00"/>
      <point x="954" y="382"/>
      <point x="877" y="189"/>
      <point x="747" y="49"/>
      <point x="576" y="-30"/>
      <point x="481" y="-30" type="qcurve"/>
      <point x="402" y="-30"/>
      <point x="237" y="28"/>
      <point x="148" y="89" type="qcurve"/>
      <point x="148" y="1037" type="line"/>
      <point x="148" y="1114"/>
      <point x="145" y="1204"/>
      <point x="137" y="1252"/>
      <point x="125" y="1272"/>
      <point x="116" y="1279" type="qcurve"/>
      <point x="100" y="1293"/>
      <point x="53" y="1292"/>
      <point x="6" y="1277" type="qcurve"/>
      <point x="-8" y="1313" type="line"/>
      <point x="269" y="1423" type="line"/>
      <point x="316" y="1423" type="line"/>
      <point x="316" y="758" type="line"/>
      <point x="448" y="942"/>
      <point x="603" y="942" type="qcurve"/>
      <point x="673" y="942"/>
      <point x="800" y="881"/>
      <point x="897" y="766"/>
      <point x="954" y="600"/>
    </contour>
    <contour>
      <point x="781" y="438" type="qcurve"/>
      <point x="781" y="524"/>
      <point x="739" y="660"/>
      <point x="669" y="754"/>
      <point x="575" y="803"/>
      <point x="523" y="803" type="qcurve"/>
      <point x="505" y="803"/>
      <point x="463" y="796"/>
      <point x="414" y="774"/>
      <point x="354" y="731"/>
      <point x="316" y="696" type="qcurve"/>
      <point x="316" y="146" type="line"/>
      <point x="364" y="97"/>
      <point x="474" y="45"/>
      <point x="532" y="45" type="qcurve"/>
      <point x="577" y="45"/>
      <point x="666" y="94"/>
      <point x="737" y="193"/>
      <point x="781" y="340"/>
    </contour>
    <contour>
      <point x="540" y="1435" type="move" name="U"/>
    </contour>
    <contour>
      <point x="540" y="-100" type="move" name="L"/>
    </contour>
  </outline>
</glyph>
<glyph name="c" format="1">
  <advance width="910"/>
  <unicode hex="0063"/>
  <outline>
    <contour>
      <point x="841" y="348" type="line"/>
      <point x="828" y="265"/>
      <point x="756" y="126"/>
      <point x="653" y="26"/>
      <point x="527" y="-30"/>
      <point x="459" y="-30" type="qcurve"/>
      <point x="378" y="-30"/>
      <point x="236" y="39"/>
      <point x="130" y="166"/>
      <point x="69" y="346"/>
      <point x="69" y="457" type="qcurve"/>
      <point x="69" y="566"/>
      <point x="139" y="745"/>
      <point x="258" y="872"/>
      <point x="417" y="942"/>
      <point x="506" y="942" type="qcurve"/>
      <point x="643" y="942"/>
      <point x="729" y="871" type="qcurve"/>
      <point x="772" y="836"/>
      <point x="818" y="762"/>
      <point x="818" y="724" type="qcurve"/>
      <point x="818" y="689"/>
      <point x="771" y="639"/>
      <point x="724" y="639" type="qcurve"/>
      <point x="709" y="639"/>
      <point x="673" y="645"/>
      <point x="640" y="668"/>
      <point x="616" y="715"/>
      <point x="613" y="756" type="qcurve"/>
      <point x="608" y="810"/>
      <point x="543" y="877"/>
      <point x="474" y="877" type="qcurve"/>
      <point x="417" y="877"/>
      <point x="327" y="826"/>
      <point x="265" y="737"/>
      <point x="233" y="615"/>
      <point x="233" y="544" type="qcurve"/>
      <point x="233" y="463"/>
      <point x="272" y="313"/>
      <point x="348" y="198"/>
      <point x="458" y="130"/>
      <point x="530" y="130" type="qcurve"/>
      <point x="572" y="130"/>
      <point x="649" y="149"/>
      <point x="719" y="201"/>
      <point x="784" y="292"/>
      <point x="814" y="363" type="qcurve"/>
    </contour>
    <contour>
      <point x="480" y="1000" type="move" name="U"/>
    </contour>
    <contour>
      <point x="480" y="-100" type="move" name="L"/>
    </contour>
    <contour>
      <point x="455" y="0" type="move" name="H"/>
    </contour>
  </outline>
</glyph>
<glyph name="d" format="1">
  <advance width="1025"/>
  <unicode hex="0064"/>
  <outline>
    <contour>
      <point x="756" y="-30" type="line" name="hr00"/>
      <point x="711" y="-30" type="line"/>
      <point x="711" y="102" type="line"/>
      <point x="650" y="38"/>
      <point x="524" y="-30"/>
      <point x="444" y="-30" type="qcurve"/>
      <point x="368" y="-30"/>
      <point x="231" y="38"/>
      <point x="128" y="158"/>
      <point x="67" y="323"/>
      <point x="67" y="420" type="qcurve"/>
      <point x="67" y="479"/>
      <point x="93" y="603"/>
      <point x="145" y="719"/>
      <point x="221" y="822"/>
      <point x="319" y="899"/>
      <point x="441" y="944"/>
      <point x="512" y="944" type="qcurve"/>
      <point x="572" y="944"/>
      <point x="671" y="907"/>
      <point x="711" y="867" type="qcurve"/>
      <point x="711" y="1037" type="line"/>
      <point x="711" y="1113"/>
      <point x="708" y="1201"/>
      <point x="701" y="1250"/>
      <point x="689" y="1270"/>
      <point x="680" y="1279" type="qcurve"/>
      <point x="663" y="1296"/>
      <point x="612" y="1291"/>
      <point x="572" y="1277" type="qcurve"/>
      <point x="558" y="1313" type="line"/>
      <point x="833" y="1423" type="line"/>
      <point x="879" y="1423" type="line"/>
      <point x="879" y="363" type="line"/>
      <point x="879" y="289"/>
      <point x="881" y="200"/>
      <point x="887" y="148"/>
      <point x="899" y="124"/>
      <point x="910" y="116" type="qcurve"/>
      <point x="928" y="101"/>
      <point x="981" y="105"/>
      <point x="1021" y="120" type="qcurve"/>
      <point x="1033" y="85" type="line"/>
    </contour>
    <contour>
      <point x="711" y="647" type="line"/>
      <point x="711" y="685"/>
      <point x="682" y="767"/>
      <point x="628" y="836"/>
      <point x="550" y="882"/>
      <point x="500" y="883" type="qcurve"/>
      <point x="449" y="885"/>
      <point x="359" y="832"/>
      <point x="292" y="732"/>
      <point x="252" y="588"/>
      <point x="252" y="500" type="qcurve"/>
      <point x="252" y="389"/>
      <point x="304" y="231"/>
      <point x="386" y="131"/>
      <point x="486" y="84"/>
      <point x="534" y="83" type="qcurve"/>
      <point x="582" y="83"/>
      <point x="668" y="128"/>
      <point x="711" y="173" type="qcurve"/>
    </contour>
    <contour>
      <point x="547" y="1435" type="move" name="U"/>
    </contour>
    <contour>
      <point x="550" y="-100" type="move" name="L"/>
    </contour>
  </outline>
</glyph>
<glyph name="e" format="1">
  <advance width="911"/>
  <unicode hex="0065"/>
  <outline>
    <contour>
      <point x="852" y="335" type="line" name="hr00"/>
      <point x="843" y="268"/>
      <point x="781" y="137"/>
      <point x="684" y="34"/>
      <point x="554" y="-30"/>
      <point x="475" y="-30" type="qcurve"/>
      <point x="394" y="-30"/>
      <point x="248" y="37"/>
      <point x="139" y="162"/>
      <point x="75" y="339"/>
      <point x="75" y="448" type="qcurve"/>
      <point x="75" y="565"/>
      <point x="138" y="749"/>
      <point x="251" y="876"/>
      <point x="407" y="944"/>
      <point x="500" y="944" type="qcurve"/>
      <point x="576" y="944"/>
      <point x="705" y="894"/>
      <point x="799" y="797"/>
      <point x="852" y="659"/>
      <point x="852" y="573" type="qcurve"/>
      <point x="217" y="573" type="line"/>
      <point x="217" y="470"/>
      <point x="271" y="308"/>
      <point x="363" y="197"/>
      <point x="484" y="137"/>
      <point x="551" y="136" type="qcurve"/>
      <point x="597" y="135"/>
      <point x="674" y="156"/>
      <point x="739" y="207"/>
      <point x="797" y="292"/>
      <point x="820" y="355" type="qcurve"/>
    </contour>
    <contour>
      <point x="643" y="628" type="line"/>
      <point x="643" y="704"/>
      <point x="599" y="799"/>
      <point x="537" y="853"/>
      <point x="469" y="874"/>
      <point x="444" y="874" type="qcurve"/>
      <point x="404" y="874"/>
      <point x="327" y="842"/>
      <point x="266" y="780"/>
      <point x="223" y="688"/>
      <point x="217" y="628" type="qcurve"/>
    </contour>
    <contour>
      <point x="485" y="1000" type="move" name="U"/>
    </contour>
    <contour>
      <point x="485" y="-100" type="move" name="L"/>
    </contour>
  </outline>
</glyph>
<glyph name="f" format="1">
  <advance width="593"/>
  <unicode hex="0066"/>
  <outline>
    <contour>
      <point x="775" y="1088" type="qcurve"/>
      <point x="775" y="1077"/>
      <point x="765" y="1052"/>
      <point x="746" y="1030"/>
      <point x="719" y="1016"/>
      <point x="705" y="1016" type="qcurve"/>
      <point x="682" y="1015"/>
      <point x="650" y="1039"/>
      <point x="621" y="1074"/>
      <point x="594" y="1114"/>
      <point x="561" y="1149"/>
      <point x="518" y="1173"/>
      <point x="487" y="1173" type="qcurve"/>
      <point x="445" y="1173"/>
      <point x="398" y="1136"/>
      <point x="373" y="1059"/>
      <point x="367" y="939"/>
      <point x="367" y="854" type="qcurve"/>
      <point x="367" y="797" type="line"/>
      <point x="572" y="797" type="line"/>
      <point x="572" y="734" type="line"/>
      <point x="367" y="734" type="line"/>
      <point x="367" y="211" type="line"/>
      <point x="367" y="156"/>
      <point x="378" y="84"/>
      <point x="392" y="70" type="qcurve"/>
      <point x="421" y="33"/>
      <point x="478" y="33" type="qcurve"/>
      <point x="550" y="33" type="line"/>
      <point x="550" y="0" type="line"/>
      <point x="70" y="0" type="line"/>
      <point x="70" y="33" type="line"/>
      <point x="106" y="33" type="line"/>
      <point x="127" y="33"/>
      <point x="165" y="43"/>
      <point x="185" y="60" type="qcurve"/>
      <point x="196" y="70"/>
      <point x="210" y="90"/>
      <point x="217" y="124"/>
      <point x="221" y="173"/>
      <point x="221" y="211" type="qcurve"/>
      <point x="221" y="734" type="line"/>
      <point x="65" y="734" type="line"/>
      <point x="65" y="797" type="line"/>
      <point x="221" y="797" type="line"/>
      <point x="221" y="851" type="line"/>
      <point x="221" y="941"/>
      <point x="263" y="1068"/>
      <point x="328" y="1154"/>
      <point x="407" y="1205"/>
      <point x="482" y="1231"/>
      <point x="542" y="1238"/>
      <point x="556" y="1238" type="qcurve" name="hr01"/>
      <point x="594" y="1238"/>
      <point x="672" y="1214"/>
      <point x="735" y="1173"/>
      <point x="775" y="1119"/>
    </contour>
    <contour>
      <point x="496" y="1196" type="move" name="U"/>
    </contour>
    <contour>
      <point x="294" y="-87" type="move" name="L"/>
    </contour>
  </outline>
</glyph>
<glyph name="g" format="1">
  <advance width="1026"/>
  <unicode hex="0067"/>
  <outline>
    <contour>
      <point x="988" y="835" type="qcurve"/>
      <point x="988" y="830"/>
      <point x="983" y="804"/>
      <point x="979" y="797" type="qcurve"/>
      <point x="974" y="792"/>
      <point x="957" y="789"/>
      <point x="946" y="789" type="qcurve"/>
      <point x="935" y="788"/>
      <point x="922" y="789" type="qcurve"/>
      <point x="805" y="789" type="line"/>
      <point x="831" y="753"/>
      <point x="859" y="662"/>
      <point x="859" y="605" type="qcurve"/>
      <point x="860" y="543"/>
      <point x="812" y="430"/>
      <point x="720" y="345"/>
      <point x="585" y="296"/>
      <point x="499" y="296" type="qcurve"/>
      <point x="465" y="296"/>
      <point x="394" y="305"/>
      <point x="359" y="316" type="qcurve"/>
      <point x="339" y="301"/>
      <point x="304" y="261"/>
      <point x="283" y="220"/>
      <point x="284" y="181"/>
      <point x="299" y="167" type="qcurve"/>
      <point x="305" y="161"/>
      <point x="322" y="153"/>
      <point x="352" y="146"/>
      <point x="400" y="141"/>
      <point x="475" y="138"/>
      <point x="582" y="135"/>
      <point x="657" y="132" type="qcurve"/>
      <point x="674" y="132"/>
      <point x="735" y="129"/>
      <point x="807" y="116"/>
      <point x="880" y="89"/>
      <point x="940" y="43"/>
      <point x="976" y="-32"/>
      <point x="976" y="-85" type="qcurve"/>
      <point x="976" y="-154"/>
      <point x="898" y="-283"/>
      <point x="760" y="-384"/>
      <point x="574" y="-444"/>
      <point x="463" y="-444" type="qcurve"/>
      <point x="388" y="-444"/>
      <point x="243" y="-411"/>
      <point x="130" y="-357"/>
      <point x="61" y="-288"/>
      <point x="61" y="-252" type="qcurve"/>
      <point x="61" y="-232"/>
      <point x="78" y="-186"/>
      <point x="120" y="-126"/>
      <point x="190" y="-46"/>
      <point x="244" y="8" type="qcurve"/>
      <point x="198" y="37"/>
      <point x="149" y="83"/>
      <point x="149" y="118" type="qcurve"/>
      <point x="149" y="136"/>
      <point x="161" y="175"/>
      <point x="195" y="225"/>
      <point x="258" y="291"/>
      <point x="310" y="335" type="qcurve"/>
      <point x="266" y="354"/>
      <point x="201" y="415"/>
      <point x="158" y="489"/>
      <point x="136" y="572"/>
      <point x="136" y="613" type="qcurve"/>
      <point x="136" y="677"/>
      <point x="186" y="797"/>
      <point x="279" y="888"/>
      <point x="415" y="943"/>
      <point x="500" y="943" type="qcurve"/>
      <point x="559" y="943"/>
      <point x="643" y="920"/>
      <point x="714" y="896"/>
      <point x="787" y="874"/>
      <point x="834" y="874" type="qcurve"/>
      <point x="865" y="874"/>
      <point x="905" y="876"/>
      <point x="935" y="879"/>
      <point x="948" y="879" type="qcurve"/>
      <point x="960" y="879"/>
      <point x="974" y="875" type="qcurve"/>
      <point x="988" y="873"/>
    </contour>
    <contour>
      <point x="682" y="580" type="qcurve"/>
      <point x="682" y="650"/>
      <point x="655" y="766"/>
      <point x="604" y="850"/>
      <point x="530" y="896"/>
      <point x="483" y="896" type="qcurve"/>
      <point x="447" y="896"/>
      <point x="384" y="868"/>
      <point x="337" y="810"/>
      <point x="310" y="720"/>
      <point x="310" y="657" type="qcurve"/>
      <point x="310" y="589"/>
      <point x="337" y="474"/>
      <point x="389" y="391"/>
      <point x="462" y="345"/>
      <point x="511" y="345" type="qcurve"/>
      <point x="546" y="345"/>
      <point x="609" y="373"/>
      <point x="657" y="429"/>
      <point x="682" y="517"/>
    </contour>
    <contour>
      <point x="904" y="-122" type="qcurve"/>
      <point x="904" y="-98"/>
      <point x="882" y="-63"/>
      <point x="826" y="-40"/>
      <point x="727" y="-26"/>
      <point x="647" y="-22" type="qcurve"/>
      <point x="535" y="-17"/>
      <point x="360" y="-9"/>
      <point x="299" y="0" type="qcurve"/>
      <point x="256" y="-51"/>
      <point x="205" y="-129"/>
      <point x="205" y="-175" type="qcurve"/>
      <point x="205" y="-207"/>
      <point x="255" y="-260"/>
      <point x="347" y="-299"/>
      <point x="474" y="-321"/>
      <point x="551" y="-321" type="qcurve"/>
      <point x="642" y="-321"/>
      <point x="774" y="-286"/>
      <point x="860" y="-229"/>
      <point x="904" y="-158"/>
    </contour>
    <contour>
      <point x="511" y="1000" type="move" name="U"/>
    </contour>
    <contour>
      <point x="524" y="-500" type="move" name="L"/>
    </contour>
  </outline>
</glyph>
<glyph name="h" format="1">
  <advance width="1026"/>
  <unicode hex="0068"/>
  <outline>
    <contour>
      <point x="562" y="0" type="line" name="hr00"/>
      <point x="562" y="38" type="line"/>
      <point x="678" y="38"/>
      <point x="710" y="64"/>
      <point x="710" y="189" type="curve" smooth="yes"/>
      <point x="710" y="530" type="line" smooth="yes"/>
      <point x="710" y="650"/>
      <point x="721" y="822"/>
      <point x="562" y="822" type="curve" smooth="yes"/>
      <point x="500" y="822"/>
      <point x="435" y="805"/>
      <point x="335" y="690" type="curve"/>
      <point x="335" y="189" type="line" smooth="yes"/>
      <point x="335" y="64"/>
      <point x="350" y="38"/>
      <point x="481" y="38" type="curve"/>
      <point x="481" y="0" type="line"/>
      <point x="28" y="0" type="line"/>
      <point x="28" y="38" type="line"/>
      <point x="150" y="38"/>
      <point x="167" y="76"/>
      <point x="167" y="189" type="curve" smooth="yes"/>
      <point x="167" y="1156" type="line" smooth="yes"/>
      <point x="167" y="1251"/>
      <point x="155" y="1294"/>
      <point x="100" y="1294" type="curve" smooth="yes"/>
      <point x="83" y="1294"/>
      <point x="56" y="1290"/>
      <point x="28" y="1278" type="curve"/>
      <point x="11" y="1313" type="line"/>
      <point x="289" y="1424" type="line"/>
      <point x="335" y="1424" type="line"/>
      <point x="335" y="753" type="line"/>
      <point x="442" y="913"/>
      <point x="544" y="943"/>
      <point x="639" y="943" type="curve" smooth="yes"/>
      <point x="871" y="943"/>
      <point x="877" y="709"/>
      <point x="877" y="530" type="curve" smooth="yes"/>
      <point x="877" y="189" type="line" smooth="yes"/>
      <point x="877" y="70"/>
      <point x="894" y="38"/>
      <point x="1015" y="38" type="curve"/>
      <point x="1015" y="0" type="line"/>
    </contour>
    <contour>
      <point x="513" y="1435" type="move" name="U"/>
    </contour>
    <contour>
      <point x="513" y="-100" type="move" name="L"/>
    </contour>
  </outline>
</glyph>
<glyph name="i" format="1">
  <advance width="570"/>
  <unicode hex="0069"/>
  <outline>
    <contour>
      <point x="402" y="1228" type="qcurve"/>
      <point x="402" y="1186"/>
      <point x="345" y="1126"/>
      <point x="301" y="1126" type="qcurve"/>
      <point x="258" y="1126"/>
      <point x="199" y="1183"/>
      <point x="199" y="1228" type="qcurve"/>
      <point x="199" y="1250"/>
      <point x="215" y="1288"/>
      <point x="243" y="1313"/>
      <point x="281" y="1328"/>
      <point x="301" y="1328" type="qcurve"/>
      <point x="322" y="1328"/>
      <point x="359" y="1312"/>
      <point x="386" y="1286"/>
      <point x="402" y="1250"/>
    </contour>
    <contour>
      <point x="77" y="0" type="line"/>
      <point x="77" y="38" type="line"/>
      <point x="120" y="38"/>
      <point x="175" y="49"/>
      <point x="206" y="83"/>
      <point x="217" y="143"/>
      <point x="217" y="189" type="qcurve"/>
      <point x="217" y="678" type="line"/>
      <point x="217" y="744"/>
      <point x="189" y="812"/>
      <point x="148" y="812" type="qcurve"/>
      <point x="135" y="812"/>
      <point x="100" y="804"/>
      <point x="77" y="797" type="qcurve"/>
      <point x="64" y="833" type="line"/>
      <point x="342" y="943" type="line"/>
      <point x="384" y="943" type="line" name="hr01"/>
      <point x="384" y="189" type="line"/>
      <point x="384" y="143"/>
      <point x="397" y="83"/>
      <point x="427" y="49"/>
      <point x="482" y="38"/>
      <point x="526" y="38" type="qcurve"/>
      <point x="526" y="0" type="line"/>
    </contour>
    <contour>
      <point x="294" y="1000" type="move" name="U"/>
    </contour>
    <contour>
      <point x="300" y="-100" type="move" name="L"/>
    </contour>
  </outline>
</glyph>
<glyph name="j" format="1">
  <advance width="570"/>
  <unicode hex="006A"/>
  <outline>
    <contour>
      <point x="400" y="1228" type="qcurve"/>
      <point x="400" y="1207"/>
      <point x="385" y="1170"/>
      <point x="357" y="1142"/>
      <point x="320" y="1125"/>
      <point x="297" y="1125" type="qcurve"/>
      <point x="253" y="1125"/>
      <point x="195" y="1183"/>
      <point x="195" y="1228" type="qcurve"/>
      <point x="195" y="1249"/>
      <point x="212" y="1286"/>
      <point x="240" y="1314"/>
      <point x="277" y="1330"/>
      <point x="297" y="1330" type="qcurve"/>
      <point x="316" y="1330"/>
      <point x="353" y="1314"/>
      <point x="382" y="1286"/>
      <point x="400" y="1249"/>
    </contour>
    <contour>
      <point x="384" y="19" type="line"/>
      <point x="384" y="-100"/>
      <point x="330" y="-274"/>
      <point x="233" y="-388"/>
      <point x="100" y="-444"/>
      <point x="22" y="-444" type="qcurve"/>
      <point x="-26" y="-444"/>
      <point x="-94" y="-424"/>
      <point x="-136" y="-394"/>
      <point x="-157" y="-358"/>
      <point x="-158" y="-343" type="qcurve"/>
      <point x="-158" y="-306"/>
      <point x="-109" y="-256"/>
      <point x="-75" y="-256" type="qcurve"/>
      <point x="-40" y="-256"/>
      <point x="11" y="-287"/>
      <point x="43" y="-320" type="qcurve"/>
      <point x="89" y="-363"/>
      <point x="124" y="-363" type="qcurve"/>
      <point x="160" y="-363"/>
      <point x="198" y="-314"/>
      <point x="215" y="-236"/>
      <point x="217" y="-141"/>
      <point x="217" y="-94" type="qcurve"/>
      <point x="217" y="558" type="line"/>
      <point x="217" y="623"/>
      <point x="214" y="709"/>
      <point x="207" y="764"/>
      <point x="196" y="792"/>
      <point x="188" y="798" type="qcurve"/>
      <point x="168" y="813"/>
      <point x="118" y="811"/>
      <point x="75" y="796" type="qcurve"/>
      <point x="64" y="832" type="line"/>
      <point x="341" y="942" type="line"/>
      <point x="384" y="942" type="line"/>
    </contour>
    <contour>
      <point x="300" y="1000" type="move" name="U"/>
    </contour>
    <contour>
      <point x="121" y="-500" type="move" name="L"/>
    </contour>
  </outline>
</glyph>
<glyph name="k" format="1">
  <advance width="1025"/>
  <unicode hex="006B"/>
  <outline>
    <contour>
      <point x="591" y="0" type="line" name="hr00"/>
      <point x="591" y="38" type="line"/>
      <point x="620" y="38"/>
      <point x="648" y="47"/>
      <point x="653" y="61" type="qcurve"/>
      <point x="656" y="69"/>
      <point x="656" y="77" type="qcurve"/>
      <point x="656" y="86"/>
      <point x="649" y="106"/>
      <point x="632" y="133"/>
      <point x="617" y="152" type="qcurve"/>
      <point x="337" y="506" type="line"/>
      <point x="337" y="207" type="line"/>
      <point x="337" y="174"/>
      <point x="339" y="130"/>
      <point x="344" y="99"/>
      <point x="352" y="79"/>
      <point x="359" y="71" type="qcurve"/>
      <point x="368" y="61"/>
      <point x="385" y="48"/>
      <point x="411" y="40"/>
      <point x="451" y="38"/>
      <point x="483" y="38" type="qcurve"/>
      <point x="483" y="0" type="line"/>
      <point x="13" y="0" type="line"/>
      <point x="13" y="38" type="line"/>
      <point x="61" y="38"/>
      <point x="123" y="49"/>
      <point x="140" y="67" type="qcurve"/>
      <point x="154" y="82"/>
      <point x="166" y="146"/>
      <point x="166" y="201" type="qcurve"/>
      <point x="166" y="1035" type="line"/>
      <point x="166" y="1114"/>
      <point x="164" y="1204"/>
      <point x="158" y="1253"/>
      <point x="147" y="1272"/>
      <point x="138" y="1279" type="qcurve"/>
      <point x="132" y="1284"/>
      <point x="116" y="1292"/>
      <point x="92" y="1294"/>
      <point x="58" y="1287"/>
      <point x="34" y="1277" type="qcurve"/>
      <point x="13" y="1313" type="line"/>
      <point x="290" y="1423" type="line"/>
      <point x="337" y="1423" type="line"/>
      <point x="337" y="528" type="line"/>
      <point x="568" y="724" type="line"/>
      <point x="600" y="751"/>
      <point x="638" y="786"/>
      <point x="657" y="810"/>
      <point x="662" y="826"/>
      <point x="662" y="833" type="qcurve"/>
      <point x="662" y="854"/>
      <point x="630" y="882"/>
      <point x="591" y="885" type="qcurve"/>
      <point x="591" y="916" type="line"/>
      <point x="989" y="916" type="line"/>
      <point x="989" y="885" type="line"/>
      <point x="907" y="882"/>
      <point x="854" y="859" type="qcurve"/>
      <point x="827" y="848"/>
      <point x="768" y="808"/>
      <point x="733" y="777" type="qcurve"/>
      <point x="493" y="562" type="line"/>
      <point x="733" y="262" type="line"/>
      <point x="772" y="213"/>
      <point x="825" y="148"/>
      <point x="862" y="107"/>
      <point x="888" y="83"/>
      <point x="910" y="67"/>
      <point x="933" y="55"/>
      <point x="950" y="45" type="qcurve"/>
      <point x="960" y="40"/>
      <point x="1004" y="38"/>
      <point x="1037" y="38" type="qcurve"/>
      <point x="1037" y="0" type="line"/>
    </contour>
    <contour>
      <point x="525" y="1435" type="move" name="U"/>
    </contour>
    <contour>
      <point x="525" y="-100" type="move" name="L"/>
    </contour>
  </outline>
</glyph>
<glyph name="l" format="1">
  <advance width="570"/>
  <unicode hex="006C"/>
  <outline>
    <contour>
      <point x="77" y="0" type="line" name="hr00"/>
      <point x="77" y="38" type="line"/>
      <point x="123" y="38"/>
      <point x="167" y="48"/>
      <point x="183" y="69" type="qcurve"/>
      <point x="189" y="77"/>
      <point x="199" y="98"/>
      <point x="207" y="130"/>
      <point x="211" y="175"/>
      <point x="211" y="207" type="qcurve"/>
      <point x="211" y="1038" type="line"/>
      <point x="211" y="1116"/>
      <point x="208" y="1206"/>
      <point x="201" y="1254"/>
      <point x="191" y="1272"/>
      <point x="183" y="1279" type="qcurve"/>
      <point x="174" y="1285"/>
      <point x="154" y="1292"/>
      <point x="142" y="1292" type="qcurve"/>
      <point x="130" y="1292"/>
      <point x="98" y="1285"/>
      <point x="77" y="1277" type="qcurve"/>
      <point x="59" y="1313" type="line"/>
      <point x="335" y="1423" type="line"/>
      <point x="378" y="1423" type="line"/>
      <point x="378" y="207" type="line"/>
      <point x="378" y="177"/>
      <point x="381" y="134"/>
      <point x="387" y="103"/>
      <point x="397" y="82"/>
      <point x="404" y="73" type="qcurve"/>
      <point x="411" y="64"/>
      <point x="429" y="51"/>
      <point x="456" y="42"/>
      <point x="497" y="38"/>
      <point x="526" y="38" type="qcurve"/>
      <point x="526" y="0" type="line"/>
    </contour>
    <contour>
      <point x="292" y="1475" type="move" name="U"/>
    </contour>
    <contour>
      <point x="292" y="-100" type="move" name="L"/>
    </contour>
  </outline>
</glyph>
<glyph name="m" format="1">
  <advance width="1596"/>
  <unicode hex="006D"/>
  <outline>
    <contour>
      <point x="1135" y="0" type="line" name="hr00"/>
      <point x="1135" y="38" type="line"/>
      <point x="1189" y="38"/>
      <point x="1248" y="56"/>
      <point x="1275" y="97"/>
      <point x="1281" y="161"/>
      <point x="1281" y="207" type="qcurve"/>
      <point x="1281" y="604" type="line"/>
      <point x="1281" y="666"/>
      <point x="1264" y="750"/>
      <point x="1226" y="802"/>
      <point x="1168" y="825"/>
      <point x="1130" y="825" type="qcurve"/>
      <point x="1109" y="825"/>
      <point x="1056" y="813"/>
      <point x="997" y="785"/>
      <point x="930" y="737"/>
      <point x="894" y="700" type="qcurve"/>
      <point x="894" y="207" type="line"/>
      <point x="894" y="158"/>
      <point x="900" y="93"/>
      <point x="929" y="54"/>
      <point x="989" y="38"/>
      <point x="1041" y="38" type="qcurve"/>
      <point x="1041" y="0" type="line"/>
      <point x="576" y="0" type="line"/>
      <point x="576" y="38" type="line"/>
      <point x="635" y="38"/>
      <point x="697" y="57"/>
      <point x="723" y="100"/>
      <point x="727" y="164"/>
      <point x="727" y="207" type="qcurve"/>
      <point x="727" y="604" type="line"/>
      <point x="727" y="665"/>
      <point x="704" y="750"/>
      <point x="665" y="803"/>
      <point x="606" y="827"/>
      <point x="570" y="827" type="qcurve"/>
      <point x="535" y="827"/>
      <point x="467" y="804"/>
      <point x="408" y="767"/>
      <point x="356" y="722"/>
      <point x="335" y="700" type="qcurve"/>
      <point x="335" y="207" type="line"/>
      <point x="335" y="149"/>
      <point x="348" y="82"/>
      <point x="381" y="48"/>
      <point x="439" y="38"/>
      <point x="483" y="38" type="qcurve"/>
      <point x="483" y="0" type="line"/>
      <point x="30" y="0" type="line"/>
      <point x="30" y="38" type="line"/>
      <point x="74" y="38"/>
      <point x="126" y="51"/>
      <point x="158" y="87"/>
      <point x="167" y="153"/>
      <point x="167" y="207" type="qcurve"/>
      <point x="167" y="558" type="line"/>
      <point x="167" y="635"/>
      <point x="166" y="743"/>
      <point x="143" y="804"/>
      <point x="86" y="816"/>
      <point x="30" y="797" type="qcurve"/>
      <point x="13" y="833" type="line"/>
      <point x="292" y="943" type="line"/>
      <point x="335" y="943" type="line"/>
      <point x="335" y="750" type="line"/>
      <point x="391" y="810"/>
      <point x="478" y="885"/>
      <point x="553" y="927"/>
      <point x="620" y="943"/>
      <point x="653" y="943" type="qcurve"/>
      <point x="695" y="943"/>
      <point x="768" y="920"/>
      <point x="829" y="873"/>
      <point x="874" y="799"/>
      <point x="885" y="750" type="qcurve"/>
      <point x="936" y="808"/>
      <point x="1020" y="882"/>
      <point x="1097" y="927"/>
      <point x="1168" y="943"/>
      <point x="1206" y="943" type="qcurve"/>
      <point x="1263" y="943"/>
      <point x="1351" y="906"/>
      <point x="1414" y="826"/>
      <point x="1449" y="697"/>
      <point x="1449" y="604" type="qcurve"/>
      <point x="1449" y="207" type="line"/>
      <point x="1449" y="155"/>
      <point x="1460" y="89"/>
      <point x="1493" y="51"/>
      <point x="1546" y="38"/>
      <point x="1588" y="38" type="qcurve"/>
      <point x="1588" y="0" type="line"/>
    </contour>
    <contour>
      <point x="800" y="1000" type="move" name="U"/>
    </contour>
    <contour>
      <point x="800" y="-100" type="move" name="L"/>
    </contour>
  </outline>
</glyph>
<glyph name="n" format="1">
  <advance width="1025"/>
  <unicode hex="006E"/>
  <outline>
    <contour>
      <point x="562" y="0" type="line" name="hr00"/>
      <point x="562" y="38" type="line"/>
      <point x="613" y="38"/>
      <point x="672" y="51"/>
      <point x="703" y="88"/>
      <point x="711" y="154"/>
      <point x="711" y="207" type="qcurve"/>
      <point x="711" y="581" type="line"/>
      <point x="711" y="643"/>
      <point x="697" y="734"/>
      <point x="663" y="792"/>
      <point x="609" y="820"/>
      <point x="568" y="820" type="qcurve"/>
      <point x="510" y="820"/>
      <point x="391" y="756"/>
      <point x="331" y="690" type="qcurve"/>
      <point x="331" y="207" type="line"/>
      <point x="331" y="153"/>
      <point x="340" y="87"/>
      <point x="372" y="51"/>
      <point x="431" y="38"/>
      <point x="481" y="38" type="qcurve"/>
      <point x="481" y="0" type="line"/>
      <point x="26" y="0" type="line"/>
      <point x="26" y="38" type="line"/>
      <point x="69" y="38"/>
      <point x="123" y="51"/>
      <point x="153" y="89"/>
      <point x="164" y="155"/>
      <point x="164" y="207" type="qcurve"/>
      <point x="164" y="548" type="line"/>
      <point x="164" y="630"/>
      <point x="160" y="724"/>
      <point x="153" y="774"/>
      <point x="142" y="792"/>
      <point x="134" y="798" type="qcurve"/>
      <point x="101" y="827"/>
      <point x="26" y="796" type="qcurve"/>
      <point x="10" y="832" type="line"/>
      <point x="290" y="942" type="line"/>
      <point x="331" y="942" type="line"/>
      <point x="331" y="751" type="line"/>
      <point x="494" y="942"/>
      <point x="639" y="942" type="qcurve"/>
      <point x="706" y="942"/>
      <point x="798" y="893"/>
      <point x="854" y="803"/>
      <point x="879" y="677"/>
      <point x="879" y="600" type="qcurve"/>
      <point x="879" y="207" type="line"/>
      <point x="879" y="156"/>
      <point x="889" y="90"/>
      <point x="919" y="53"/>
      <point x="975" y="38"/>
      <point x="1021" y="38" type="qcurve"/>
      <point x="1021" y="0" type="line"/>
    </contour>
    <contour>
      <point x="515" y="1000" type="move" name="U"/>
    </contour>
    <contour>
      <point x="515" y="-100" type="move" name="L"/>
    </contour>
  </outline>
</glyph>
<glyph name="o" format="1">
  <advance width="1025"/>
  <unicode hex="006F"/>
  <outline>
    <contour>
      <point x="954" y="475" type="qcurve" name="hr00"/>
      <point x="954" y="416"/>
      <point x="929" y="295"/>
      <point x="879" y="183"/>
      <point x="803" y="85"/>
      <point x="703" y="12"/>
      <point x="577" y="-30"/>
      <point x="502" y="-30" type="qcurve"/>
      <point x="406" y="-30"/>
      <point x="247" y="48"/>
      <point x="132" y="180"/>
      <point x="69" y="354"/>
      <point x="69" y="449" type="qcurve"/>
      <point x="69" y="542"/>
      <point x="130" y="719"/>
      <point x="245" y="857"/>
      <point x="409" y="942"/>
      <point x="512" y="942" type="qcurve"/>
      <point x="611" y="942"/>
      <point x="773" y="870"/>
      <point x="890" y="744"/>
      <point x="954" y="573"/>
    </contour>
    <contour>
      <point x="767" y="398" type="qcurve"/>
      <point x="767" y="500"/>
      <point x="727" y="676"/>
      <point x="653" y="805"/>
      <point x="547" y="879"/>
      <point x="481" y="879" type="qcurve"/>
      <point x="442" y="879"/>
      <point x="361" y="845"/>
      <point x="295" y="765"/>
      <point x="254" y="632"/>
      <point x="254" y="532" type="qcurve"/>
      <point x="254" y="434"/>
      <point x="295" y="256"/>
      <point x="371" y="122"/>
      <point x="478" y="43"/>
      <point x="544" y="43" type="qcurve"/>
      <point x="594" y="43"/>
      <point x="676" y="80"/>
      <point x="734" y="164"/>
      <point x="767" y="300"/>
    </contour>
    <contour>
      <point x="511" y="1000" type="move" name="U"/>
    </contour>
    <contour>
      <point x="511" y="-100" type="move" name="L"/>
    </contour>
  </outline>
</glyph>
<glyph name="p" format="1">
  <advance width="1026"/>
  <unicode hex="0070"/>
  <outline>
    <contour>
      <point x="957" y="493" type="qcurve"/>
      <point x="957" y="385"/>
      <point x="896" y="195"/>
      <point x="784" y="52"/>
      <point x="630" y="-30"/>
      <point x="536" y="-30" type="qcurve"/>
      <point x="514" y="-30"/>
      <point x="465" y="-26"/>
      <point x="411" y="-9"/>
      <point x="350" y="24"/>
      <point x="319" y="53" type="qcurve"/>
      <point x="319" y="-224" type="line"/>
      <point x="319" y="-278"/>
      <point x="325" y="-346"/>
      <point x="356" y="-385"/>
      <point x="420" y="-400"/>
      <point x="474" y="-402" type="qcurve"/>
      <point x="474" y="-440" type="line"/>
      <point x="-12" y="-440" type="line"/>
      <point x="-12" y="-402" type="line"/>
      <point x="44" y="-400"/>
      <point x="108" y="-386"/>
      <point x="140" y="-347"/>
      <point x="148" y="-277"/>
      <point x="148" y="-220" type="qcurve"/>
      <point x="148" y="647" type="line"/>
      <point x="148" y="685"/>
      <point x="147" y="735"/>
      <point x="141" y="767"/>
      <point x="126" y="788"/>
      <point x="115" y="797" type="qcurve"/>
      <point x="99" y="807"/>
      <point x="49" y="811"/>
      <point x="6" y="792" type="qcurve"/>
      <point x="-6" y="827" type="line"/>
      <point x="281" y="941" type="line"/>
      <point x="319" y="941" type="line"/>
      <point x="319" y="727" type="line"/>
      <point x="353" y="787"/>
      <point x="423" y="869"/>
      <point x="496" y="920"/>
      <point x="572" y="943"/>
      <point x="613" y="943" type="qcurve"/>
      <point x="689" y="943"/>
      <point x="815" y="874"/>
      <point x="906" y="752"/>
      <point x="957" y="589"/>
    </contour>
    <contour>
      <point x="797" y="398" type="qcurve"/>
      <point x="797" y="509"/>
      <point x="754" y="669"/>
      <point x="682" y="772"/>
      <point x="586" y="820"/>
      <point x="532" y="820" type="qcurve"/>
      <point x="503" y="820"/>
      <point x="451" y="797"/>
      <point x="401" y="757"/>
      <point x="350" y="700"/>
      <point x="319" y="666" type="qcurve"/>
      <point x="319" y="323" type="line"/>
      <point x="319" y="216"/>
      <point x="327" y="177" type="qcurve"/>
      <point x="335" y="151"/>
      <point x="366" y="99"/>
      <point x="419" y="57"/>
      <point x="489" y="32"/>
      <point x="532" y="32" type="qcurve"/>
      <point x="591" y="32"/>
      <point x="689" y="83"/>
      <point x="758" y="177"/>
      <point x="797" y="313"/>
    </contour>
    <contour>
      <point x="473" y="1000" type="move" name="U"/>
    </contour>
    <contour>
      <point x="473" y="-500" type="move" name="L"/>
    </contour>
  </outline>
</glyph>
<glyph name="q" format="1">
  <advance width="892"/>
  <unicode hex="0071"/>
  <outline>
    <contour>
      <point x="489" y="-383" type="line" name="hr00"/>
      <point x="489" y="-350" type="line"/>
      <point x="527" y="-350"/>
      <point x="577" y="-342"/>
      <point x="606" y="-312"/>
      <point x="619" y="-256"/>
      <point x="619" y="-206" type="qcurve"/>
      <point x="619" y="139" type="line"/>
      <point x="580" y="92"/>
      <point x="513" y="30"/>
      <point x="452" y="-10"/>
      <point x="390" y="-26"/>
      <point x="357" y="-26" type="qcurve"/>
      <point x="302" y="-26"/>
      <point x="196" y="26"/>
      <point x="110" y="126"/>
      <point x="58" y="271"/>
      <point x="58" y="364" type="qcurve"/>
      <point x="58" y="464"/>
      <point x="121" y="631"/>
      <point x="232" y="752"/>
      <point x="383" y="820"/>
      <point x="470" y="820" type="qcurve"/>
      <point x="519" y="820"/>
      <point x="604" y="796"/>
      <point x="634" y="765" type="qcurve"/>
      <point x="660" y="778"/>
      <point x="712" y="804"/>
      <point x="734" y="820" type="qcurve"/>
      <point x="765" y="820" type="line"/>
      <point x="765" y="-206" type="line"/>
      <point x="765" y="-251"/>
      <point x="775" y="-308"/>
      <point x="804" y="-339"/>
      <point x="855" y="-350"/>
      <point x="895" y="-350" type="qcurve"/>
      <point x="895" y="-383" type="line"/>
    </contour>
    <contour>
      <point x="619" y="568" type="line"/>
      <point x="619" y="611"/>
      <point x="597" y="681"/>
      <point x="553" y="732"/>
      <point x="486" y="760"/>
      <point x="442" y="760" type="qcurve"/>
      <point x="394" y="760"/>
      <point x="308" y="719"/>
      <point x="244" y="636"/>
      <point x="206" y="512"/>
      <point x="206" y="427" type="qcurve"/>
      <point x="206" y="345"/>
      <point x="245" y="221"/>
      <point x="312" y="139"/>
      <point x="400" y="98"/>
      <point x="448" y="98" type="qcurve"/>
      <point x="476" y="98"/>
      <point x="521" y="110"/>
      <point x="561" y="134"/>
      <point x="599" y="169"/>
      <point x="619" y="191" type="qcurve"/>
    </contour>
    <contour>
      <point x="477" y="870" type="move" name="U"/>
    </contour>
    <contour>
      <point x="477" y="-435" type="move" name="L"/>
    </contour>
  </outline>
</glyph>
<glyph name="r" format="1">
  <advance width="703"/>
  <unicode hex="0072"/>
  <outline>
    <contour>
      <point x="698" y="833" type="qcurve" name="hr00"/>
      <point x="698" y="814"/>
      <point x="684" y="781"/>
      <point x="659" y="756"/>
      <point x="627" y="739"/>
      <point x="607" y="739" type="qcurve"/>
      <point x="582" y="739"/>
      <point x="543" y="761"/>
      <point x="512" y="789"/>
      <point x="481" y="811"/>
      <point x="466" y="811" type="qcurve"/>
      <point x="440" y="811"/>
      <point x="369" y="727"/>
      <point x="331" y="654" type="qcurve"/>
      <point x="331" y="213" type="line"/>
      <point x="331" y="170"/>
      <point x="345" y="103"/>
      <point x="381" y="60"/>
      <point x="444" y="38"/>
      <point x="493" y="38" type="qcurve"/>
      <point x="493" y="0" type="line"/>
      <point x="17" y="0" type="line"/>
      <point x="17" y="38" type="line"/>
      <point x="60" y="38"/>
      <point x="117" y="47"/>
      <point x="149" y="80"/>
      <point x="164" y="149"/>
      <point x="164" y="207" type="qcurve"/>
      <point x="164" y="562" type="line"/>
      <point x="164" y="635"/>
      <point x="161" y="720"/>
      <point x="154" y="767"/>
      <point x="143" y="789"/>
      <point x="135" y="798" type="qcurve"/>
      <point x="112" y="811"/>
      <point x="59" y="814"/>
      <point x="17" y="797" type="qcurve"/>
      <point x="8" y="833" type="line"/>
      <point x="292" y="943" type="line"/>
      <point x="331" y="943" type="line"/>
      <point x="331" y="737" type="line"/>
      <point x="445" y="943"/>
      <point x="568" y="943" type="qcurve"/>
      <point x="596" y="943"/>
      <point x="643" y="927"/>
      <point x="678" y="897"/>
      <point x="698" y="857"/>
    </contour>
    <contour>
      <point x="353" y="1000" type="move" name="U"/>
    </contour>
    <contour>
      <point x="353" y="-100" type="move" name="L"/>
    </contour>
  </outline>
</glyph>
<glyph name="s" format="1">
  <advance width="798"/>
  <unicode hex="0073"/>
  <outline>
    <contour>
      <point x="727" y="231" type="qcurve"/>
      <point x="727" y="179"/>
      <point x="676" y="84"/>
      <point x="592" y="11"/>
      <point x="481" y="-30"/>
      <point x="420" y="-30" type="qcurve"/>
      <point x="383" y="-30"/>
      <point x="314" y="-13"/>
      <point x="251" y="9"/>
      <point x="197" y="29"/>
      <point x="174" y="32" type="qcurve"/>
      <point x="162" y="32"/>
      <point x="144" y="0"/>
      <point x="138" y="-13" type="qcurve"/>
      <point x="105" y="-13" type="line"/>
      <point x="105" y="314" type="line"/>
      <point x="138" y="314" type="line"/>
      <point x="151" y="244"/>
      <point x="206" y="139"/>
      <point x="281" y="68"/>
      <point x="371" y="32"/>
      <point x="420" y="32" type="qcurve"/>
      <point x="458" y="32"/>
      <point x="515" y="54"/>
      <point x="555" y="91"/>
      <point x="577" y="140"/>
      <point x="577" y="167" type="qcurve"/>
      <point x="578" y="201"/>
      <point x="561" y="258"/>
      <point x="512" y="313"/>
      <point x="420" y="374"/>
      <point x="345" y="412" type="qcurve"/>
      <point x="273" y="450"/>
      <point x="177" y="516"/>
      <point x="122" y="584"/>
      <point x="100" y="657"/>
      <point x="100" y="698" type="qcurve"/>
      <point x="100" y="750"/>
      <point x="139" y="838"/>
      <point x="215" y="904"/>
      <point x="327" y="943"/>
      <point x="398" y="943" type="qcurve"/>
      <point x="429" y="943"/>
      <point x="490" y="931"/>
      <point x="544" y="919"/>
      <point x="586" y="907"/>
      <point x="598" y="907" type="qcurve"/>
      <point x="612" y="907"/>
      <point x="631" y="919"/>
      <point x="643" y="943" type="qcurve"/>
      <point x="676" y="943" type="line"/>
      <point x="676" y="630" type="line"/>
      <point x="643" y="630" type="line"/>
      <point x="626" y="704"/>
      <point x="575" y="803"/>
      <point x="513" y="860"/>
      <point x="438" y="885"/>
      <point x="396" y="885" type="qcurve"/>
      <point x="304" y="885"/>
      <point x="218" y="819"/>
      <point x="217" y="766" type="qcurve"/>
      <point x="216" y="738"/>
      <point x="227" y="688"/>
      <point x="260" y="641"/>
      <point x="320" y="597"/>
      <point x="367" y="574" type="qcurve"/>
      <point x="515" y="504" type="line"/>
      <point x="620" y="457"/>
      <point x="727" y="319"/>
    </contour>
    <contour>
      <point x="413" y="1000" type="move" name="U"/>
    </contour>
    <contour>
      <point x="413" y="-100" type="move" name="L"/>
    </contour>
  </outline>
</glyph>
<glyph name="t" format="1">
  <advance width="570"/>
  <unicode hex="0074"/>
  <outline>
    <contour>
      <point x="573" y="167" type="line" name="hr00"/>
      <point x="531" y="33"/>
      <point x="422" y="-30"/>
      <point x="343" y="-30" type="curve" smooth="yes"/>
      <point x="256" y="-30"/>
      <point x="162" y="8"/>
      <point x="162" y="213" type="curve" smooth="yes"/>
      <point x="162" y="849" type="line"/>
      <point x="15" y="849" type="line"/>
      <point x="15" y="880" type="line"/>
      <point x="70" y="900"/>
      <point x="134" y="954"/>
      <point x="186" y="1015" type="curve"/>
      <point x="222" y="1062"/>
      <point x="242" y="1086"/>
      <point x="299" y="1219" type="curve"/>
      <point x="329" y="1219" type="line"/>
      <point x="329" y="917" type="line"/>
      <point x="544" y="917" type="line"/>
      <point x="544" y="849" type="line"/>
      <point x="329" y="849" type="line"/>
      <point x="329" y="237" type="line" smooth="yes"/>
      <point x="329" y="118"/>
      <point x="369" y="88"/>
      <point x="420" y="85" type="curve" smooth="yes"/>
      <point x="471" y="82"/>
      <point x="508" y="115"/>
      <point x="532" y="167" type="curve"/>
    </contour>
    <contour>
      <point x="285" y="1298" type="move" name="U"/>
    </contour>
    <contour>
      <point x="293" y="-100" type="move" name="L"/>
    </contour>
  </outline>
</glyph>
<glyph name="u" format="1">
  <advance width="892"/>
  <unicode hex="0075"/>
  <outline>
    <contour>
      <point x="652" y="-26" type="line" name="hr00"/>
      <point x="612" y="-26" type="line"/>
      <point x="612" y="144" type="line"/>
      <point x="562" y="91"/>
      <point x="486" y="25"/>
      <point x="425" y="-12"/>
      <point x="371" y="-26"/>
      <point x="342" y="-26" type="qcurve"/>
      <point x="296" y="-26"/>
      <point x="229" y="3"/>
      <point x="183" y="50"/>
      <point x="155" y="113"/>
      <point x="140" y="182"/>
      <point x="136" y="253"/>
      <point x="136" y="284" type="qcurve"/>
      <point x="136" y="641" type="line"/>
      <point x="136" y="680"/>
      <point x="122" y="729"/>
      <point x="90" y="755"/>
      <point x="37" y="765"/>
      <point x="0" y="765" type="qcurve"/>
      <point x="0" y="797" type="line"/>
      <point x="281" y="797" type="line"/>
      <point x="281" y="264" type="line"/>
      <point x="281" y="230"/>
      <point x="290" y="164"/>
      <point x="318" y="113"/>
      <point x="371" y="82"/>
      <point x="413" y="82" type="qcurve"/>
      <point x="431" y="82"/>
      <point x="472" y="92"/>
      <point x="521" y="118"/>
      <point x="579" y="162"/>
      <point x="612" y="195" type="qcurve"/>
      <point x="612" y="648" type="line"/>
      <point x="612" y="685"/>
      <point x="598" y="729"/>
      <point x="566" y="754"/>
      <point x="518" y="764"/>
      <point x="484" y="765" type="qcurve"/>
      <point x="484" y="797" type="line"/>
      <point x="758" y="797" type="line"/>
      <point x="758" y="211" type="line"/>
      <point x="758" y="176"/>
      <point x="764" y="130"/>
      <point x="777" y="102"/>
      <point x="798" y="91"/>
      <point x="812" y="91" type="qcurve"/>
      <point x="824" y="91"/>
      <point x="862" y="97"/>
      <point x="881" y="104" type="qcurve"/>
      <point x="893" y="74" type="line"/>
    </contour>
    <contour>
      <point x="446" y="870" type="move" name="U"/>
    </contour>
    <contour>
      <point x="446" y="-87" type="move" name="L"/>
    </contour>
  </outline>
</glyph>
<glyph name="v" format="1">
  <advance width="1026"/>
  <unicode hex="0076"/>
  <outline>
    <contour>
      <point x="1009" y="880" type="line" name="hr00"/>
      <point x="972" y="876"/>
      <point x="950" y="871"/>
      <point x="934" y="859" type="curve"/>
      <point x="911" y="838"/>
      <point x="892" y="807"/>
      <point x="872" y="758" type="curve" smooth="yes"/>
      <point x="546" y="-30" type="line"/>
      <point x="504" y="-30" type="line"/>
      <point x="175" y="747" type="line"/>
      <point x="151" y="815"/>
      <point x="120" y="839"/>
      <point x="85" y="864" type="curve"/>
      <point x="73" y="869"/>
      <point x="52" y="872"/>
      <point x="15" y="880" type="curve"/>
      <point x="15" y="917" type="line"/>
      <point x="450" y="917" type="line"/>
      <point x="450" y="880" type="line"/>
      <point x="420" y="880" type="line" smooth="yes"/>
      <point x="395" y="880"/>
      <point x="372" y="877"/>
      <point x="361" y="861" type="curve"/>
      <point x="336" y="834"/>
      <point x="330" y="792"/>
      <point x="361" y="727" type="curve"/>
      <point x="574" y="220" type="line"/>
      <point x="789" y="747" type="line" smooth="yes"/>
      <point x="812" y="803"/>
      <point x="820" y="833"/>
      <point x="805" y="857" type="curve" smooth="yes"/>
      <point x="799" y="866"/>
      <point x="779" y="880"/>
      <point x="707" y="880" type="curve"/>
      <point x="707" y="917" type="line"/>
      <point x="1009" y="917" type="line"/>
    </contour>
    <contour>
      <point x="512" y="1000" type="move" name="U"/>
    </contour>
    <contour>
      <point x="512" y="-100" type="move" name="L"/>
    </contour>
  </outline>
</glyph>
<glyph name="w" format="1">
  <advance width="1288"/>
  <unicode hex="0077"/>
  <outline>
    <contour>
      <point x="1273" y="765" type="line" name="hr00"/>
      <point x="1195" y="754"/>
      <point x="1159" y="664" type="qcurve"/>
      <point x="893" y="-26" type="line"/>
      <point x="857" y="-26" type="line"/>
      <point x="658" y="485" type="line"/>
      <point x="427" y="-26" type="line"/>
      <point x="394" y="-26" type="line"/>
      <point x="137" y="645" type="line"/>
      <point x="124" y="677"/>
      <point x="100" y="719"/>
      <point x="87" y="730" type="qcurve"/>
      <point x="77" y="742"/>
      <point x="37" y="760"/>
      <point x="10" y="765" type="qcurve"/>
      <point x="10" y="797" type="line"/>
      <point x="346" y="797" type="line"/>
      <point x="346" y="765" type="line"/>
      <point x="300" y="762"/>
      <point x="284" y="749" type="qcurve"/>
      <point x="270" y="734"/>
      <point x="269" y="686"/>
      <point x="284" y="645" type="qcurve"/>
      <point x="457" y="187" type="line"/>
      <point x="628" y="561" type="line"/>
      <point x="583" y="679" type="line"/>
      <point x="562" y="731"/>
      <point x="528" y="751" type="qcurve"/>
      <point x="508" y="762"/>
      <point x="457" y="765" type="qcurve"/>
      <point x="457" y="797" type="line"/>
      <point x="836" y="797" type="line"/>
      <point x="836" y="765" type="line"/>
      <point x="804" y="763"/>
      <point x="760" y="754"/>
      <point x="747" y="745" type="qcurve"/>
      <point x="742" y="739"/>
      <point x="733" y="721"/>
      <point x="729" y="699"/>
      <point x="732" y="674"/>
      <point x="738" y="664" type="qcurve"/>
      <point x="920" y="206" type="line"/>
      <point x="1085" y="645" type="line"/>
      <point x="1104" y="693"/>
      <point x="1104" y="720" type="qcurve"/>
      <point x="1104" y="726"/>
      <point x="1099" y="740"/>
      <point x="1081" y="755"/>
      <point x="1048" y="765"/>
      <point x="1021" y="765" type="qcurve"/>
      <point x="1021" y="797" type="line"/>
      <point x="1273" y="797" type="line"/>
    </contour>
    <contour>
      <point x="641" y="870" type="move" name="U"/>
    </contour>
    <contour>
      <point x="641" y="-87" type="move" name="L"/>
    </contour>
  </outline>
</glyph>
<glyph name="x" format="1">
  <advance width="1026"/>
  <unicode hex="0078"/>
  <outline>
    <contour>
      <point x="568" y="0" type="line" name="hr00"/>
      <point x="568" y="38" type="line"/>
      <point x="606" y="38"/>
      <point x="645" y="57"/>
      <point x="660" y="86"/>
      <point x="655" y="116"/>
      <point x="650" y="126" type="qcurve"/>
      <point x="459" y="406" type="line"/>
      <point x="260" y="140" type="line"/>
      <point x="250" y="126"/>
      <point x="243" y="93"/>
      <point x="256" y="61"/>
      <point x="297" y="39"/>
      <point x="335" y="38" type="qcurve"/>
      <point x="335" y="0" type="line"/>
      <point x="36" y="0" type="line"/>
      <point x="36" y="38" type="line"/>
      <point x="56" y="39"/>
      <point x="91" y="55"/>
      <point x="132" y="93"/>
      <point x="186" y="158"/>
      <point x="224" y="209" type="qcurve"/>
      <point x="419" y="466" type="line"/>
      <point x="244" y="718" type="line"/>
      <point x="207" y="773"/>
      <point x="154" y="835"/>
      <point x="108" y="868"/>
      <point x="61" y="879"/>
      <point x="28" y="880" type="qcurve"/>
      <point x="28" y="917" type="line"/>
      <point x="459" y="917" type="line"/>
      <point x="459" y="880" type="line"/>
      <point x="429" y="881"/>
      <point x="397" y="866"/>
      <point x="381" y="842"/>
      <point x="383" y="815"/>
      <point x="389" y="806" type="qcurve"/>
      <point x="520" y="601" type="line"/>
      <point x="654" y="798" type="line"/>
      <point x="662" y="810"/>
      <point x="667" y="837"/>
      <point x="657" y="862"/>
      <point x="623" y="880"/>
      <point x="593" y="880" type="qcurve"/>
      <point x="593" y="917" type="line"/>
      <point x="904" y="917" type="line"/>
      <point x="904" y="880" type="line"/>
      <point x="873" y="879"/>
      <point x="822" y="859"/>
      <point x="773" y="820"/>
      <point x="719" y="754"/>
      <point x="682" y="705" type="qcurve"/>
      <point x="558" y="536" type="line"/>
      <point x="787" y="209" type="line"/>
      <point x="807" y="179"/>
      <point x="835" y="143"/>
      <point x="859" y="112"/>
      <point x="873" y="98" type="qcurve"/>
      <point x="907" y="64" type="line"/>
      <point x="915" y="54"/>
      <point x="972" y="39"/>
      <point x="1002" y="38" type="qcurve"/>
      <point x="1002" y="0" type="line"/>
    </contour>
    <contour>
      <point x="514" y="1000" type="move" name="U"/>
    </contour>
    <contour>
      <point x="514" y="-100" type="move" name="L"/>
    </contour>
  </outline>
</glyph>
<glyph name="y" format="1">
  <advance width="1025"/>
  <unicode hex="0079"/>
  <outline>
    <contour>
      <point x="1013" y="879" type="line" name="hr00"/>
      <point x="991" y="878"/>
      <point x="957" y="868"/>
      <point x="926" y="839"/>
      <point x="896" y="786"/>
      <point x="877" y="741" type="qcurve"/>
      <point x="504" y="-173" type="line"/>
      <point x="478" y="-238"/>
      <point x="407" y="-339"/>
      <point x="326" y="-408"/>
      <point x="238" y="-444"/>
      <point x="195" y="-444" type="qcurve"/>
      <point x="165" y="-444"/>
      <point x="115" y="-426"/>
      <point x="79" y="-395"/>
      <point x="59" y="-353"/>
      <point x="59" y="-329" type="qcurve"/>
      <point x="59" y="-289"/>
      <point x="111" y="-239"/>
      <point x="162" y="-239" type="qcurve"/>
      <point x="178" y="-239"/>
      <point x="221" y="-250"/>
      <point x="263" y="-263"/>
      <point x="295" y="-274"/>
      <point x="301" y="-274" type="qcurve"/>
      <point x="317" y="-274"/>
      <point x="351" y="-259"/>
      <point x="386" y="-224"/>
      <point x="422" y="-166"/>
      <point x="440" y="-122" type="qcurve"/>
      <point x="504" y="38" type="line"/>
      <point x="175" y="728" type="line"/>
      <point x="166" y="746"/>
      <point x="141" y="795"/>
      <point x="103" y="841"/>
      <point x="49" y="876"/>
      <point x="12" y="879" type="qcurve"/>
      <point x="12" y="916" type="line"/>
      <point x="440" y="916" type="line"/>
      <point x="440" y="879" type="line"/>
      <point x="418" y="879" type="line"/>
      <point x="381" y="879"/>
      <point x="327" y="845"/>
      <point x="327" y="812" type="qcurve"/>
      <point x="327" y="791"/>
      <point x="344" y="739"/>
      <point x="361" y="704" type="qcurve"/>
      <point x="583" y="243" type="line"/>
      <point x="788" y="749" type="line"/>
      <point x="803" y="777"/>
      <point x="812" y="840"/>
      <point x="800" y="857" type="qcurve"/>
      <point x="797" y="861"/>
      <point x="789" y="869"/>
      <point x="771" y="875"/>
      <point x="740" y="879"/>
      <point x="715" y="879" type="qcurve"/>
      <point x="715" y="916" type="line"/>
      <point x="1013" y="916" type="line"/>
    </contour>
    <contour>
      <point x="550" y="1000" type="move" name="U"/>
    </contour>
    <contour>
      <point x="513" y="-500" type="move" name="L"/>
    </contour>
  </outline>
</glyph>
<glyph name="z" format="1">
  <advance width="911"/>
  <unicode hex="007A"/>
  <outline>
    <contour>
      <point x="262" y="67" type="line" name="hr00"/>
      <point x="598" y="67" type="line"/>
      <point x="701" y="67"/>
      <point x="737" y="85" type="qcurve"/>
      <point x="754" y="93"/>
      <point x="781" y="109"/>
      <point x="802" y="146"/>
      <point x="820" y="217"/>
      <point x="827" y="281" type="qcurve"/>
      <point x="861" y="281" type="line"/>
      <point x="850" y="0" type="line"/>
      <point x="41" y="0" type="line"/>
      <point x="41" y="38" type="line"/>
      <point x="651" y="849" type="line"/>
      <point x="348" y="849" type="line"/>
      <point x="301" y="849"/>
      <point x="238" y="839"/>
      <point x="220" y="834" type="qcurve"/>
      <point x="191" y="820"/>
      <point x="149" y="744"/>
      <point x="141" y="662" type="qcurve"/>
      <point x="102" y="662" type="line"/>
      <point x="109" y="917" type="line"/>
      <point x="877" y="917" type="line"/>
      <point x="877" y="880" type="line"/>
    </contour>
    <contour>
      <point x="459" y="1000" type="move" name="U"/>
    </contour>
    <contour>
      <point x="459" y="-100" type="move" name="L"/>
    </contour>
  </outline>
</glyph>
<glyph name="bar" format="1">
  <advance width="660"/>
  <unicode hex="007C"/>
  <outline>
    <contour>
      <point x="381" y="-508" type="line"/>
      <point x="381" y="1570" type="line"/>
      <point x="281" y="1570" type="line"/>
      <point x="281" y="-508" type="line"/>
    </contour>
  </outline>
</glyph>
<glyph name="braceright" format="1">
  <advance width="853"/>
  <unicode hex="007D"/>
  <outline>
    <contour>
      <point x="662" y="450" type="line"/>
      <point x="579" y="459"/>
      <point x="463" y="526"/>
      <point x="463" y="636" type="curve" smooth="yes"/>
      <point x="463" y="717"/>
      <point x="502" y="818"/>
      <point x="502" y="916" type="curve" smooth="yes"/>
      <point x="502" y="1083"/>
      <point x="340" y="1221"/>
      <point x="178" y="1238" type="curve"/>
      <point x="178" y="1208" type="line"/>
      <point x="293" y="1178"/>
      <point x="371" y="1104"/>
      <point x="371" y="977" type="curve" smooth="yes"/>
      <point x="371" y="895"/>
      <point x="334" y="820"/>
      <point x="334" y="736" type="curve" smooth="yes"/>
      <point x="334" y="581"/>
      <point x="435" y="477"/>
      <point x="572" y="427" type="curve"/>
      <point x="434" y="378"/>
      <point x="334" y="271"/>
      <point x="334" y="115" type="curve" smooth="yes"/>
      <point x="334" y="33"/>
      <point x="371" y="-41"/>
      <point x="371" y="-123" type="curve" smooth="yes"/>
      <point x="371" y="-251"/>
      <point x="293" y="-324"/>
      <point x="178" y="-353" type="curve"/>
      <point x="178" y="-385" type="line"/>
      <point x="345" y="-367"/>
      <point x="502" y="-224"/>
      <point x="502" y="-50" type="curve" smooth="yes"/>
      <point x="502" y="43"/>
      <point x="463" y="137"/>
      <point x="463" y="214" type="curve" smooth="yes"/>
      <point x="463" y="325"/>
      <point x="578" y="394"/>
      <point x="662" y="405" type="curve"/>
    </contour>
  </outline>
</glyph>
<glyph name="asciitilde" format="1">
  <advance width="970"/>
  <unicode hex="007E"/>
  <outline>
    <contour>
      <point x="887" y="613" type="line"/>
      <point x="853" y="545"/>
      <point x="782" y="459"/>
      <point x="700" y="459" type="curve" smooth="yes"/>
      <point x="604" y="459"/>
      <point x="405" y="592"/>
      <point x="281" y="592" type="curve" smooth="yes"/>
      <point x="154" y="592"/>
      <point x="89" y="485"/>
      <point x="34" y="386" type="curve"/>
      <point x="82" y="323" type="line"/>
      <point x="125" y="394"/>
      <point x="177" y="487"/>
      <point x="273" y="487" type="curve" smooth="yes"/>
      <point x="398" y="487"/>
      <point x="554" y="358"/>
      <point x="691" y="358" type="curve" smooth="yes"/>
      <point x="806" y="358"/>
      <point x="887" y="455"/>
      <point x="936" y="548" type="curve"/>
    </contour>
  </outline>
</glyph>
<glyph name="exclamdown" format="1">
  <advance width="593"/>
  <unicode hex="00A1"/>
  <outline>
    <contour>
      <point x="394" y="749" type="curve"/>
      <point x="394" y="820"/>
      <point x="336" y="849"/>
      <point x="297" y="849" type="curve" smooth="yes"/>
      <point x="245" y="849"/>
      <point x="201" y="805"/>
      <point x="201" y="749" type="curve" smooth="yes"/>
      <point x="201" y="691"/>
      <point x="252" y="655"/>
      <point x="297" y="655" type="curve" smooth="yes"/>
      <point x="342" y="655"/>
      <point x="394" y="687"/>
    </contour>
    <contour>
      <point x="396" y="-262" type="curve"/>
      <point x="396" y="-249"/>
      <point x="394" y="-237"/>
      <point x="390" y="-195" type="curve" smooth="yes"/>
      <point x="314" y="511" type="line"/>
      <point x="279" y="511" type="line"/>
      <point x="201" y="-195" type="line" smooth="yes"/>
      <point x="197" y="-219"/>
      <point x="197" y="-240"/>
      <point x="197" y="-254" type="curve" smooth="yes"/>
      <point x="197" y="-350"/>
      <point x="252" y="-385"/>
      <point x="295" y="-385" type="curve" smooth="yes"/>
      <point x="351" y="-385"/>
      <point x="396" y="-340"/>
    </contour>
  </outline>
</glyph>
<glyph name="cent" format="1">
  <advance width="1025"/>
  <unicode hex="00A2"/>
  <outline>
    <contour>
      <point x="899" y="348" type="line"/>
      <point x="886" y="265"/>
      <point x="813" y="126"/>
      <point x="710" y="26"/>
      <point x="584" y="-30"/>
      <point x="517" y="-30" type="qcurve"/>
      <point x="479" y="-30"/>
      <point x="409" y="-14"/>
      <point x="376" y="0" type="qcurve"/>
      <point x="365" y="-33"/>
      <point x="346" y="-87"/>
      <point x="322" y="-155"/>
      <point x="309" y="-190" type="qcurve"/>
      <point x="241" y="-378" type="line"/>
      <point x="169" y="-378" type="line"/>
      <point x="320" y="32" type="line"/>
      <point x="277" y="62"/>
      <point x="205" y="146"/>
      <point x="154" y="254"/>
      <point x="126" y="383"/>
      <point x="126" y="457" type="qcurve"/>
      <point x="126" y="566"/>
      <point x="196" y="745"/>
      <point x="315" y="872"/>
      <point x="474" y="942"/>
      <point x="564" y="942" type="qcurve"/>
      <point x="586" y="942"/>
      <point x="627" y="939"/>
      <point x="647" y="934" type="qcurve"/>
      <point x="788" y="1326" type="line"/>
      <point x="859" y="1326" type="line"/>
      <point x="711" y="916" type="line"/>
      <point x="753" y="899"/>
      <point x="786" y="871" type="qcurve"/>
      <point x="875" y="802"/>
      <point x="875" y="724" type="qcurve"/>
      <point x="875" y="689"/>
      <point x="829" y="639"/>
      <point x="781" y="639" type="qcurve"/>
      <point x="766" y="639"/>
      <point x="730" y="645"/>
      <point x="697" y="668"/>
      <point x="673" y="715"/>
      <point x="670" y="756" type="qcurve"/>
      <point x="670" y="775"/>
      <point x="664" y="788" type="qcurve"/>
      <point x="442" y="175" type="line"/>
      <point x="473" y="155"/>
      <point x="545" y="130"/>
      <point x="587" y="130" type="qcurve"/>
      <point x="629" y="130"/>
      <point x="706" y="149"/>
      <point x="776" y="201"/>
      <point x="841" y="292"/>
      <point x="871" y="363" type="qcurve"/>
    </contour>
    <contour>
      <point x="290" y="544" type="qcurve"/>
      <point x="290" y="452"/>
      <point x="339" y="284"/>
      <point x="388" y="227" type="qcurve"/>
      <point x="389" y="227"/>
      <point x="409" y="281"/>
      <point x="442" y="370"/>
      <point x="483" y="483"/>
      <point x="526" y="600"/>
      <point x="567" y="713"/>
      <point x="598" y="802"/>
      <point x="617" y="856" type="qcurve"/>
      <point x="600" y="866"/>
      <point x="559" y="877"/>
      <point x="530" y="877" type="qcurve"/>
      <point x="473" y="877"/>
      <point x="384" y="826"/>
      <point x="322" y="737"/>
      <point x="290" y="615"/>
    </contour>
  </outline>
</glyph>
<glyph name="sterling" format="1">
  <advance width="892"/>
  <unicode hex="00A3"/>
  <outline>
    <contour>
      <point x="851" y="264" type="curve"/>
      <point x="818" y="273" type="line"/>
      <point x="805" y="223"/>
      <point x="773" y="132"/>
      <point x="634" y="132" type="curve" smooth="yes"/>
      <point x="552" y="132"/>
      <point x="465" y="167"/>
      <point x="351" y="204" type="curve"/>
      <point x="418" y="379"/>
      <point x="405" y="533"/>
      <point x="405" y="574" type="curve"/>
      <point x="630" y="574" type="line"/>
      <point x="630" y="657" type="line"/>
      <point x="405" y="657" type="line"/>
      <point x="403" y="676"/>
      <point x="386" y="835"/>
      <point x="386" y="913" type="curve" smooth="yes"/>
      <point x="386" y="1098"/>
      <point x="453" y="1157"/>
      <point x="544" y="1157" type="curve" smooth="yes"/>
      <point x="619" y="1157"/>
      <point x="650" y="1109"/>
      <point x="650" y="1057" type="curve" smooth="yes"/>
      <point x="650" y="985"/>
      <point x="682" y="955"/>
      <point x="719" y="955" type="curve" smooth="yes"/>
      <point x="753" y="955"/>
      <point x="786" y="993"/>
      <point x="786" y="1027" type="curve" smooth="yes"/>
      <point x="786" y="1116"/>
      <point x="700" y="1206"/>
      <point x="566" y="1206" type="curve" smooth="yes"/>
      <point x="418" y="1206"/>
      <point x="242" y="1088"/>
      <point x="242" y="830" type="curve" smooth="yes"/>
      <point x="242" y="800"/>
      <point x="249" y="745"/>
      <point x="254" y="657" type="curve"/>
      <point x="85" y="657" type="line"/>
      <point x="85" y="574" type="line"/>
      <point x="254" y="574" type="line"/>
      <point x="265" y="434"/>
      <point x="278" y="309"/>
      <point x="270" y="219" type="curve"/>
      <point x="254" y="223"/>
      <point x="231" y="226"/>
      <point x="195" y="226" type="curve" smooth="yes"/>
      <point x="147" y="226"/>
      <point x="53" y="203"/>
      <point x="53" y="91" type="curve" smooth="yes"/>
      <point x="53" y="37"/>
      <point x="80" y="-21"/>
      <point x="154" y="-21" type="curve" smooth="yes"/>
      <point x="242" y="-21"/>
      <point x="295" y="74"/>
      <point x="318" y="120" type="curve"/>
      <point x="440" y="30"/>
      <point x="491" y="-21"/>
      <point x="600" y="-21" type="curve" smooth="yes"/>
      <point x="754" y="-21"/>
      <point x="835" y="130"/>
    </contour>
    <contour>
      <point x="260" y="149" type="curve"/>
      <point x="242" y="77"/>
      <point x="208" y="31"/>
      <point x="162" y="31" type="curve" smooth="yes"/>
      <point x="130" y="31"/>
      <point x="103" y="50"/>
      <point x="103" y="98" type="curve" smooth="yes"/>
      <point x="103" y="141"/>
      <point x="130" y="173"/>
      <point x="185" y="173" type="curve" smooth="yes"/>
      <point x="223" y="173"/>
      <point x="249" y="157"/>
    </contour>
  </outline>
</glyph>
<glyph name="currency" format="1">
  <advance width="1046"/>
  <unicode hex="00A4"/>
  <outline>
    <contour>
      <point x="994" y="336" type="line"/>
      <point x="818" y="512" type="line"/>
      <point x="869" y="574"/>
      <point x="893" y="653"/>
      <point x="893" y="734" type="curve" smooth="yes"/>
      <point x="893" y="814"/>
      <point x="864" y="900"/>
      <point x="816" y="960" type="curve"/>
      <point x="994" y="1139" type="line"/>
      <point x="933" y="1201" type="line"/>
      <point x="751" y="1019" type="line"/>
      <point x="693" y="1068"/>
      <point x="613" y="1096"/>
      <point x="535" y="1096" type="curve" smooth="yes"/>
      <point x="455" y="1096"/>
      <point x="371" y="1070"/>
      <point x="311" y="1021" type="curve"/>
      <point x="130" y="1201" type="line"/>
      <point x="69" y="1139" type="line"/>
      <point x="249" y="959" type="line"/>
      <point x="193" y="899"/>
      <point x="170" y="812"/>
      <point x="170" y="732" type="curve" smooth="yes"/>
      <point x="170" y="652"/>
      <point x="195" y="574"/>
      <point x="245" y="512" type="curve"/>
      <point x="69" y="336" type="line"/>
      <point x="130" y="275" type="line"/>
      <point x="307" y="452" type="line"/>
      <point x="370" y="396"/>
      <point x="450" y="370"/>
      <point x="535" y="370" type="curve" smooth="yes"/>
      <point x="613" y="370"/>
      <point x="694" y="398"/>
      <point x="756" y="452" type="curve"/>
      <point x="933" y="275" type="line"/>
    </contour>
    <contour>
      <point x="795" y="734" type="curve"/>
      <point x="795" y="590"/>
      <point x="680" y="468"/>
      <point x="535" y="468" type="curve" smooth="yes"/>
      <point x="388" y="468"/>
      <point x="267" y="585"/>
      <point x="267" y="732" type="curve" smooth="yes"/>
      <point x="267" y="881"/>
      <point x="386" y="998"/>
      <point x="535" y="998" type="curve" smooth="yes"/>
      <point x="679" y="998"/>
      <point x="795" y="877"/>
    </contour>
  </outline>
</glyph>
<glyph name="yen" format="1">
  <advance width="892"/>
  <unicode hex="00A5"/>
  <outline>
    <contour>
      <point x="874" y="307" type="line"/>
      <point x="874" y="370" type="line"/>
      <point x="520" y="370" type="line"/>
      <point x="520" y="511" type="line"/>
      <point x="526" y="526" type="line"/>
      <point x="874" y="526" type="line"/>
      <point x="874" y="590" type="line"/>
      <point x="552" y="590" type="line"/>
      <point x="741" y="1014" type="line" smooth="yes"/>
      <point x="766" y="1070"/>
      <point x="792" y="1108"/>
      <point x="814" y="1127" type="curve" smooth="yes"/>
      <point x="832" y="1142"/>
      <point x="856" y="1148"/>
      <point x="892" y="1148" type="curve"/>
      <point x="892" y="1180" type="line"/>
      <point x="590" y="1180" type="line"/>
      <point x="590" y="1148" type="line"/>
      <point x="624" y="1147"/>
      <point x="648" y="1144"/>
      <point x="669" y="1130" type="curve" smooth="yes"/>
      <point x="701" y="1108"/>
      <point x="680" y="1058"/>
      <point x="669" y="1029" type="curve" smooth="yes"/>
      <point x="484" y="590" type="line"/>
      <point x="298" y="1042" type="line" smooth="yes"/>
      <point x="288" y="1070"/>
      <point x="262" y="1101"/>
      <point x="301" y="1127" type="curve" smooth="yes"/>
      <point x="325" y="1142"/>
      <point x="346" y="1146"/>
      <point x="388" y="1148" type="curve"/>
      <point x="388" y="1180" type="line"/>
      <point x="2" y="1180" type="line"/>
      <point x="2" y="1148" type="line"/>
      <point x="34" y="1146"/>
      <point x="60" y="1139"/>
      <point x="80" y="1121" type="curve"/>
      <point x="103" y="1106"/>
      <point x="123" y="1072"/>
      <point x="144" y="1022" type="curve" smooth="yes"/>
      <point x="329" y="590" type="line"/>
      <point x="17" y="590" type="line"/>
      <point x="17" y="526" type="line"/>
      <point x="358" y="526" type="line"/>
      <point x="370" y="496" type="line"/>
      <point x="370" y="370" type="line"/>
      <point x="17" y="370" type="line"/>
      <point x="17" y="307" type="line"/>
      <point x="370" y="307" type="line"/>
      <point x="370" y="212" type="line" smooth="yes"/>
      <point x="370" y="152"/>
      <point x="371" y="93"/>
      <point x="353" y="72" type="curve" smooth="yes"/>
      <point x="327" y="43"/>
      <point x="288" y="36"/>
      <point x="249" y="36" type="curve" smooth="yes"/>
      <point x="219" y="36" type="line"/>
      <point x="219" y="0" type="line"/>
      <point x="669" y="0" type="line"/>
      <point x="669" y="36" type="line"/>
      <point x="633" y="36" type="line" smooth="yes"/>
      <point x="606" y="36"/>
      <point x="563" y="46"/>
      <point x="542" y="70" type="curve" smooth="yes"/>
      <point x="520" y="97"/>
      <point x="520" y="147"/>
      <point x="520" y="212" type="curve" smooth="yes"/>
      <point x="520" y="307" type="line"/>
    </contour>
  </outline>
</glyph>
<glyph name="brokenbar" format="1">
  <advance width="680"/>
  <unicode hex="00A6"/>
  <outline>
    <contour>
      <point x="390" y="662" type="line"/>
      <point x="390" y="1450" type="line"/>
      <point x="290" y="1450" type="line"/>
      <point x="290" y="662" type="line"/>
    </contour>
    <contour>
      <point x="390" y="-391" type="line"/>
      <point x="390" y="398" type="line"/>
      <point x="290" y="398" type="line"/>
      <point x="290" y="-391" type="line"/>
    </contour>
  </outline>
</glyph>
<glyph name="section" format="1">
  <advance width="892"/>
  <unicode hex="00A7"/>
  <outline>
    <contour>
      <point x="756" y="418" type="curve"/>
      <point x="756" y="590"/>
      <point x="586" y="708"/>
      <point x="472" y="795" type="curve" smooth="yes"/>
      <point x="388" y="859"/>
      <point x="316" y="916"/>
      <point x="316" y="1016" type="curve" smooth="yes"/>
      <point x="316" y="1094"/>
      <point x="371" y="1168"/>
      <point x="466" y="1168" type="curve" smooth="yes"/>
      <point x="528" y="1168"/>
      <point x="563" y="1132"/>
      <point x="563" y="1085" type="curve" smooth="yes"/>
      <point x="563" y="1058"/>
      <point x="550" y="1019"/>
      <point x="550" y="1001" type="curve" smooth="yes"/>
      <point x="550" y="970"/>
      <point x="578" y="934"/>
      <point x="619" y="934" type="curve" smooth="yes"/>
      <point x="657" y="934"/>
      <point x="687" y="966"/>
      <point x="687" y="1014" type="curve" smooth="yes"/>
      <point x="687" y="1134"/>
      <point x="579" y="1206"/>
      <point x="466" y="1206" type="curve" smooth="yes"/>
      <point x="373" y="1206"/>
      <point x="219" y="1130"/>
      <point x="219" y="960" type="curve" smooth="yes"/>
      <point x="219" y="853"/>
      <point x="291" y="777"/>
      <point x="327" y="734" type="curve"/>
      <point x="262" y="694"/>
      <point x="136" y="597"/>
      <point x="136" y="438" type="curve" smooth="yes"/>
      <point x="136" y="301"/>
      <point x="238" y="195"/>
      <point x="403" y="74" type="curve" smooth="yes"/>
      <point x="478" y="19"/>
      <point x="581" y="-60"/>
      <point x="581" y="-171" type="curve" smooth="yes"/>
      <point x="581" y="-238"/>
      <point x="509" y="-314"/>
      <point x="429" y="-314" type="curve" smooth="yes"/>
      <point x="381" y="-314"/>
      <point x="324" y="-291"/>
      <point x="324" y="-247" type="curve" smooth="yes"/>
      <point x="324" y="-223"/>
      <point x="340" y="-175"/>
      <point x="340" y="-151" type="curve" smooth="yes"/>
      <point x="340" y="-129"/>
      <point x="325" y="-76"/>
      <point x="273" y="-76" type="curve" smooth="yes"/>
      <point x="242" y="-76"/>
      <point x="206" y="-101"/>
      <point x="206" y="-152" type="curve" smooth="yes"/>
      <point x="206" y="-281"/>
      <point x="324" y="-348"/>
      <point x="422" y="-348" type="curve" smooth="yes"/>
      <point x="556" y="-348"/>
      <point x="671" y="-249"/>
      <point x="671" y="-100" type="curve" smooth="yes"/>
      <point x="671" y="10"/>
      <point x="604" y="78"/>
      <point x="565" y="122" type="curve"/>
      <point x="632" y="164"/>
      <point x="756" y="258"/>
    </contour>
    <contour>
      <point x="630" y="457" type="curve"/>
      <point x="724" y="307"/>
      <point x="624" y="203"/>
      <point x="535" y="145" type="curve"/>
      <point x="473" y="216"/>
      <point x="325" y="286"/>
      <point x="257" y="401" type="curve" smooth="yes"/>
      <point x="170" y="546"/>
      <point x="270" y="655"/>
      <point x="357" y="706" type="curve"/>
      <point x="388" y="673"/>
      <point x="568" y="554"/>
    </contour>
  </outline>
</glyph>
<glyph name="dieresis" format="1">
  <advance width="613"/>
  <unicode hex="00A8"/>
  <outline>
    <contour>
      <point x="613" y="1228" type="curve"/>
      <point x="613" y="1283"/>
      <point x="566" y="1331"/>
      <point x="511" y="1331" type="curve" smooth="yes"/>
      <point x="459" y="1331"/>
      <point x="408" y="1280"/>
      <point x="408" y="1228" type="curve" smooth="yes"/>
      <point x="408" y="1175"/>
      <point x="455" y="1126"/>
      <point x="511" y="1126" type="curve" smooth="yes"/>
      <point x="566" y="1126"/>
      <point x="613" y="1174"/>
    </contour>
    <contour>
      <point x="204" y="1228" type="curve"/>
      <point x="204" y="1283"/>
      <point x="156" y="1331"/>
      <point x="100" y="1331" type="curve" smooth="yes"/>
      <point x="49" y="1331"/>
      <point x="0" y="1280"/>
      <point x="0" y="1228" type="curve" smooth="yes"/>
      <point x="0" y="1175"/>
      <point x="47" y="1126"/>
      <point x="100" y="1126" type="curve" smooth="yes"/>
      <point x="156" y="1126"/>
      <point x="204" y="1174"/>
    </contour>
    <contour>
      <point x="306" y="1375" type="move" name="U"/>
    </contour>
  </outline>
</glyph>
<glyph name="copyright" format="1">
  <advance width="1355"/>
  <unicode hex="00A9"/>
  <outline>
    <contour>
      <point x="1296" y="590" type="curve"/>
      <point x="1296" y="936"/>
      <point x="1026" y="1208"/>
      <point x="678" y="1208" type="curve" smooth="yes"/>
      <point x="371" y="1208"/>
      <point x="60" y="975"/>
      <point x="60" y="590" type="curve" smooth="yes"/>
      <point x="60" y="237"/>
      <point x="338" y="-28"/>
      <point x="678" y="-28" type="curve" smooth="yes"/>
      <point x="1019" y="-28"/>
      <point x="1296" y="242"/>
    </contour>
    <contour>
      <point x="1241" y="590" type="curve"/>
      <point x="1241" y="262"/>
      <point x="977" y="28"/>
      <point x="678" y="28" type="curve" smooth="yes"/>
      <point x="373" y="28"/>
      <point x="115" y="265"/>
      <point x="115" y="590" type="curve" smooth="yes"/>
      <point x="115" y="938"/>
      <point x="401" y="1154"/>
      <point x="678" y="1154" type="curve" smooth="yes"/>
      <point x="988" y="1154"/>
      <point x="1241" y="907"/>
    </contour>
    <contour>
      <point x="1014" y="373" type="curve"/>
      <point x="983" y="392" type="line"/>
      <point x="916" y="298"/>
      <point x="826" y="252"/>
      <point x="712" y="252" type="curve" smooth="yes"/>
      <point x="539" y="252"/>
      <point x="422" y="368"/>
      <point x="422" y="611" type="curve" smooth="yes"/>
      <point x="422" y="814"/>
      <point x="526" y="948"/>
      <point x="703" y="948" type="curve" smooth="yes"/>
      <point x="887" y="948"/>
      <point x="945" y="812"/>
      <point x="967" y="745" type="curve"/>
      <point x="1000" y="745" type="line"/>
      <point x="983" y="988" type="line"/>
      <point x="948" y="988" type="line"/>
      <point x="941" y="972"/>
      <point x="938" y="948"/>
      <point x="905" y="948" type="curve" smooth="yes"/>
      <point x="871" y="948"/>
      <point x="823" y="988"/>
      <point x="712" y="988" type="curve" smooth="yes"/>
      <point x="487" y="988"/>
      <point x="278" y="842"/>
      <point x="278" y="585" type="curve" smooth="yes"/>
      <point x="278" y="355"/>
      <point x="463" y="197"/>
      <point x="680" y="197" type="curve" smooth="yes"/>
      <point x="826" y="197"/>
      <point x="934" y="258"/>
    </contour>
  </outline>
</glyph>
<glyph name="ordfeminine" format="1">
  <advance width="568"/>
  <unicode hex="00AA"/>
  <outline>
    <contour>
      <point x="566" y="770" type="curve"/>
      <point x="566" y="800" type="line"/>
      <point x="522" y="761"/>
      <point x="512" y="758"/>
      <point x="499" y="758" type="curve" smooth="yes"/>
      <point x="481" y="758"/>
      <point x="473" y="765"/>
      <point x="472" y="784" type="curve"/>
      <point x="468" y="793"/>
      <point x="468" y="823"/>
      <point x="468" y="867" type="curve" smooth="yes"/>
      <point x="468" y="1031" type="line" smooth="yes"/>
      <point x="468" y="1130"/>
      <point x="442" y="1193"/>
      <point x="277" y="1193" type="curve" smooth="yes"/>
      <point x="167" y="1193"/>
      <point x="67" y="1148"/>
      <point x="67" y="1074" type="curve" smooth="yes"/>
      <point x="67" y="1042"/>
      <point x="85" y="1024"/>
      <point x="120" y="1024" type="curve" smooth="yes"/>
      <point x="151" y="1024"/>
      <point x="173" y="1042"/>
      <point x="171" y="1074" type="curve" smooth="yes"/>
      <point x="170" y="1104" type="line"/>
      <point x="173" y="1137"/>
      <point x="204" y="1163"/>
      <point x="256" y="1163" type="curve" smooth="yes"/>
      <point x="329" y="1163"/>
      <point x="364" y="1130"/>
      <point x="364" y="1037" type="curve" smooth="yes"/>
      <point x="364" y="1019" type="line"/>
      <point x="91" y="940"/>
      <point x="44" y="885"/>
      <point x="44" y="814" type="curve" smooth="yes"/>
      <point x="44" y="741"/>
      <point x="100" y="693"/>
      <point x="182" y="693" type="curve" smooth="yes"/>
      <point x="242" y="693"/>
      <point x="262" y="705"/>
      <point x="364" y="770" type="curve"/>
      <point x="364" y="710"/>
      <point x="394" y="693"/>
      <point x="431" y="693" type="curve" smooth="yes"/>
      <point x="475" y="693"/>
      <point x="520" y="719"/>
    </contour>
    <contour>
      <point x="556" y="569" type="line"/>
      <point x="556" y="607" type="line"/>
      <point x="51" y="607" type="line"/>
      <point x="51" y="569" type="line"/>
    </contour>
    <contour>
      <point x="364" y="805" type="line"/>
      <point x="312" y="770"/>
      <point x="270" y="749"/>
      <point x="238" y="751" type="curve" smooth="yes"/>
      <point x="190" y="753"/>
      <point x="151" y="791"/>
      <point x="151" y="838" type="curve" smooth="yes"/>
      <point x="151" y="885"/>
      <point x="170" y="924"/>
      <point x="364" y="988" type="curve"/>
    </contour>
  </outline>
</glyph>
<glyph name="guillemotleft" format="1">
  <advance width="892"/>
  <unicode hex="00AB"/>
  <outline>
    <contour>
      <point x="835" y="-7" type="line"/>
      <point x="622" y="405" type="line"/>
      <point x="835" y="813" type="line"/>
      <point x="786" y="813" type="line"/>
      <point x="442" y="405" type="line"/>
      <point x="786" y="-7" type="line"/>
    </contour>
    <contour>
      <point x="440" y="-7" type="line"/>
      <point x="228" y="405" type="line"/>
      <point x="440" y="813" type="line"/>
      <point x="392" y="813" type="line"/>
      <point x="56" y="405" type="line"/>
      <point x="392" y="-7" type="line"/>
    </contour>
  </outline>
</glyph>
